<?xml version="1.0" encoding="UTF-8"?>
<svg id="Layer_1" xmlns="http://www.w3.org/2000/svg" version="1.1" viewBox="0 0 110 36.6">
  <!-- Generator: Adobe Illustrator 30.3.0, SVG Export Plug-In . SVG Version: 2.1.3 Build 182)  -->
  <defs>
    <style>
      .st0, .st1 {
        fill: #003974;
      }

      .st2 {
        fill: #97144d;
      }

      .st1 {
        fill-rule: evenodd;
      }
    </style>
  </defs>
  <g>
    <polygon class="st2" points="36.14 31.96 26.34 31.96 20.39 21.58 30.19 21.58 36.14 31.96"/>
    <polygon class="st2" points="20.35 4.64 25.26 13.09 14.41 31.96 4.62 31.96 20.35 4.64"/>
    <path class="st2" d="M42.97,19.45h-4.86l-1.18,2.15h-1.84l5.51-9.92,5.4,9.92h-1.87s-1.16-2.15-1.16-2.15ZM38.83,18.09h3.45l-1.69-3.28-1.76,3.28ZM49.84,16.59l-3.22-4.56h1.98l2.25,3.3,2.26-3.3h1.95l-3.26,4.58,3.53,5h-1.98l-2.55-3.68-2.57,3.68h-1.99s3.6-5.01,3.6-5.01ZM56.82,12.03h1.72v9.57h-1.72v-9.57ZM65.68,14.21c-.21-.33-.46-.58-.75-.74s-.65-.24-1.08-.24c-.49,0-.86.11-1.12.33s-.39.5-.39.83c0,.56.41.96,1.23,1.19l1.15.34c.93.27,1.61.65,2.05,1.13.44.48.66,1.06.66,1.73,0,.42-.08.82-.25,1.18-.17.36-.41.68-.72.95-.31.27-.69.48-1.13.63-.44.15-.93.23-1.48.23-1.09,0-1.95-.24-2.59-.73-.63-.49-1.01-1.19-1.14-2.11l1.68-.31c.1.6.32,1.05.67,1.35.35.29.81.44,1.37.44s1.04-.14,1.35-.43.47-.65.47-1.1c0-.24-.04-.45-.12-.62-.08-.17-.2-.32-.35-.45-.15-.13-.32-.24-.53-.33-.2-.09-.42-.17-.66-.24l-1.11-.33c-.79-.24-1.38-.56-1.76-.98-.38-.42-.57-.93-.57-1.52,0-.37.08-.71.23-1.02s.37-.58.66-.8c.28-.22.62-.4,1.01-.52.39-.13.83-.19,1.32-.19.83,0,1.51.15,2.03.45.52.3.92.71,1.18,1.23l-1.35.66h0Z"/>
  </g>
  <path class="st1" d="M89.23,17.93l1.57-3.99h.03l1.45,3.99s-3.05,0-3.05,0ZM105.13,21.16c-.5-.07-.68-.35-1.26-1.17l-2.76-3.95,2.19-2.98c.22-.31.72-.49,1.14-.56.27-.09.34-.37.35-.46h-3.06c0,.07.03.36.35.5.33.13.51.42.2.84l-1.6,2.13-1.38-2.06c-.44-.66-.18-.9.23-.97.29-.08.32-.36.33-.44h-4.06c0,.08.02.35.36.48.41.1.77.35,1.08.81l2.28,3.44-2.2,3.05c-.42.58-.57.85-.89,1.06-.26.19-.54.1-.67.01h0c-.26-.23-.46-.56-.62-.96-.54-1.31-2.31-5.81-3.18-8.06h-.95c-1.23,3.01-3,7.45-3.53,8.48-.29.55-.76.79-1.16.83,0,0-1.08.18-1.19-.6-.02-.16-.02-.33-.02-.58v-6.19c0-.78.25-1.22.99-1.32h0c.35-.1.32-.45.32-.45h-2.63l-3.68,7.1-3.51-7.09h-2.83s0,.4.29.43h0c.57.04,1.02.24,1.1,1.21v5.92c0,.34-.04.64-.07.9-.05.35-.29.54-.74.63h0c-.38.09-.4.4-.4.48h3.1v-.04c-.01-.1-.08-.33-.4-.43-.46-.09-.7-.28-.75-.64-.05-.26-.07-.56-.07-.9v-5.03h.03l3.43,7.04h.33l3.53-6.82h.04v5.21c0,.37,0,.57-.05.83-.04.18-.31.27-.7.32-.36.11-.38.39-.38.46h7.01s.01-.32-.38-.49c-.36-.14-.45-.49-.29-.93l.58-1.63h3.56l.6,1.6c.18.45.14.81-.23.95-.39.14-.43.42-.43.5h5.74s.05-.35-.38-.51h0c-.25-.15-.28-.5.18-1.14l1.9-2.63,1.93,2.79c.48.72.27.96-.08,1.03-.34.13-.37.39-.37.46h3.99s.04-.27-.24-.44h0Z"/>
  <g>
    <path class="st0" d="M40.64,27.29h.83v3.93h2.01v.69h-2.84v-4.62Z"/>
    <path class="st0" d="M44.45,27.29h.83v4.62h-.83v-4.62Z"/>
    <path class="st0" d="M46.62,27.29h2.95v.69h-2.12v1.22h1.93v.69h-1.93v2.01h-.83v-4.62Z"/>
    <path class="st0" d="M50.75,27.29h2.92v.69h-2.08v1.18h1.9v.69h-1.9v1.36h2.09v.69h-2.92v-4.62Z"/>
    <path class="st0" d="M57.75,27.29h.83v4.62h-.83v-4.62Z"/>
    <path class="st0" d="M60.74,28.85v3.06h-.83v-4.75l3.96,3.22v-3.09h.83v4.78s-3.96-3.22-3.96-3.22Z"/>
    <path class="st0" d="M68.45,28.34c-.1-.16-.22-.28-.36-.36-.14-.08-.31-.11-.52-.11-.24,0-.42.05-.54.16s-.19.24-.19.4c0,.27.2.46.6.58l.56.16c.45.13.78.31.99.55s.32.51.32.83c0,.2-.04.4-.12.57-.08.18-.2.33-.35.46s-.33.23-.55.3c-.21.07-.45.11-.71.11-.53,0-.94-.12-1.25-.35s-.49-.58-.55-1.02l.81-.15c.05.29.16.51.32.65.17.14.39.21.66.21s.5-.07.65-.21c.15-.14.23-.32.23-.53,0-.12-.02-.22-.06-.3-.04-.08-.1-.16-.17-.22s-.16-.12-.25-.16c-.1-.04-.2-.08-.32-.12l-.54-.16c-.38-.11-.67-.27-.85-.47-.18-.2-.28-.45-.28-.74,0-.18.04-.34.11-.49s.18-.28.32-.39.3-.19.49-.25c.19-.06.4-.09.64-.09.4,0,.73.07.98.22.25.15.44.34.57.59l-.65.32h0Z"/>
    <path class="st0" d="M71.57,30.99c.21.21.5.32.86.32s.65-.11.86-.32c.21-.21.31-.51.31-.9v-2.79h.83v2.82c0,.29-.04.55-.13.78-.09.23-.22.43-.39.6-.17.17-.38.29-.63.39s-.54.14-.85.14-.61-.05-.86-.14-.46-.22-.63-.39-.3-.36-.39-.6-.13-.49-.13-.78v-2.82h.83v2.79c0,.39.1.69.31.9Z"/>
    <path class="st0" d="M75.74,27.29h1.41c.59,0,1.04.13,1.34.38.31.25.46.6.46,1.04,0,.35-.1.65-.29.88-.2.23-.48.39-.86.48l1.6,1.85h-1.01l-1.45-1.78h-.36v1.78h-.83s0-4.62,0-4.62ZM76.57,27.95v1.52h.57c.32,0,.57-.06.73-.19s.25-.32.25-.57-.08-.44-.25-.57c-.17-.13-.41-.19-.73-.19h-.57Z"/>
    <path class="st0" d="M83.63,30.87h-2.35l-.57,1.04h-.89l2.66-4.79,2.61,4.79h-.9l-.56-1.04h0ZM81.63,30.22h1.67l-.82-1.58-.85,1.58Z"/>
    <path class="st0" d="M86.78,28.85v3.06h-.83v-4.75l3.96,3.22v-3.09h.83v4.78l-3.96-3.22Z"/>
    <path class="st0" d="M96.41,30.79c-.17.37-.43.67-.78.89-.36.22-.79.33-1.31.33-.35,0-.68-.05-.98-.16s-.56-.27-.78-.48-.39-.46-.52-.76-.19-.64-.19-1.02c0-.34.06-.66.18-.96s.29-.55.51-.76.48-.39.78-.51.64-.18,1.01-.18c.48,0,.89.09,1.22.27.33.18.58.42.75.71l-.61.4c-.17-.24-.37-.41-.6-.52s-.48-.16-.76-.16c-.25,0-.47.04-.67.13s-.37.21-.51.36-.25.33-.33.54c-.08.21-.11.43-.11.68,0,.26.04.5.12.71s.19.39.34.54.32.26.51.34c.2.08.42.12.65.12.34,0,.63-.08.87-.24s.42-.37.56-.63l.67.35h0Z"/>
    <path class="st0" d="M97.42,27.29h2.92v.69h-2.08v1.18h1.9v.69h-1.9v1.36h2.09v.69h-2.92s0-4.62,0-4.62Z"/>
  </g>
</svg>