<svg xmlns="http://www.w3.org/2000/svg" width="1200" height="564" fill="none" xmlns:v="https://vecta.io/nano"><style><![CDATA[.B{fill:#94a3b8}.C{fill:#3b82f6}.D{fill:#93c5fd}.E{fill:#fff}.F{stroke-width:.883}.G{stroke:#f1f5f9}.H{stroke:#90a1b9}.I{stroke-linecap:round}.J{stroke-linejoin:round}.K{stroke-dasharray:2.65 2.65}.L{stroke:#e2e8f0}.M{stroke-width:1.324}.N{shape-rendering:crispEdges}.O{stroke-width:1.177}.P{color-interpolation-filters:sRGB}]]></style><path d="M0 0h1200v564H0z" class="E"/><path fill="#e6f4f1" d="M0 0h1200v564H0z"/><g filter="url(#A)"><g clip-path="url(#C)"><rect x="46" y="57" width="1108" height="450.263" rx="14" class="E"/><g filter="url(#B)"><rect x="46" y="57" width="1108" height="450.263" rx="14.126" class="E N"/><rect x="46.441" y="57.441" width="1107.12" height="449.38" rx="13.685" class="F G N"/><path d="M68.704 90.661v-1.755h9.221v1.755h-3.572v9.802h-2.077v-9.802h-3.572zm13.433 9.972c-.846 0-1.58-.187-2.201-.559s-1.102-.894-1.445-1.563-.508-1.452-.508-2.348.169-1.68.508-2.353.824-1.196 1.445-1.569 1.354-.559 2.201-.559 1.58.186 2.201.559 1.1.895 1.439 1.569.514 1.458.514 2.353-.171 1.678-.514 2.348-.818 1.191-1.439 1.563-1.354.559-2.201.559zm.011-1.637c.459 0 .843-.126 1.151-.378s.538-.598.688-1.027.231-.907.231-1.433-.077-1.01-.231-1.439-.38-.777-.688-1.033-.692-.384-1.151-.384c-.47 0-.862.128-1.174.384s-.54.6-.694 1.033-.226.909-.226 1.439.075 1.005.226 1.433a2.32 2.32 0 0 0 .694 1.027c.312.252.704.378 1.174.378zm10.204-7.201v1.58h-4.983v-1.58h4.983zm-3.753-2.077h2.043v8.138c0 .275.041.485.124.632a.67.67 0 0 0 .339.293c.139.053.293.079.463.079a2 2 0 0 0 .35-.028l.248-.051.344 1.597a4.69 4.69 0 0 1-.468.124c-.199.045-.444.071-.734.079-.512.015-.972-.062-1.383-.232a2.15 2.15 0 0 1-.976-.801c-.237-.361-.354-.813-.35-1.354v-8.476zm7.956 10.92c-.549 0-1.044-.098-1.484-.293s-.782-.493-1.038-.88-.378-.865-.378-1.433c0-.489.09-.894.271-1.213s.427-.576.739-.768.664-.337 1.055-.435.803-.175 1.225-.22l1.236-.141c.316-.045.545-.113.688-.203s.22-.239.22-.434v-.034c0-.425-.126-.754-.378-.988s-.615-.35-1.089-.35c-.5 0-.897.109-1.191.327s-.485.476-.587.773l-1.907-.271c.151-.527.399-.967.745-1.321a3.24 3.24 0 0 1 1.27-.801c.5-.181 1.053-.271 1.659-.271.418 0 .833.049 1.247.147a3.51 3.51 0 0 1 1.134.485 2.44 2.44 0 0 1 .824.908c.211.384.316.864.316 1.439v5.801h-1.964v-1.19H99.1a2.49 2.49 0 0 1-.525.677 2.52 2.52 0 0 1-.841.502c-.335.124-.728.186-1.18.186zm.531-1.501c.41 0 .766-.081 1.067-.243s.532-.384.694-.655a1.67 1.67 0 0 0 .248-.886v-1.021c-.064.053-.173.102-.327.147s-.32.085-.508.118l-.559.09-.48.068c-.305.041-.578.109-.818.203a1.36 1.36 0 0 0-.57.395c-.139.166-.209.38-.209.643 0 .376.137.66.412.852s.624.288 1.05.288zm8.143-10.231v11.557h-2.043V88.906h2.043zm16.026 3.9h-2.111c-.06-.346-.171-.653-.333-.92s-.363-.5-.604-.688-.515-.329-.824-.423a3.21 3.21 0 0 0-.987-.147c-.629 0-1.185.158-1.671.474s-.865.771-1.14 1.377-.412 1.338-.412 2.207c0 .884.138 1.629.412 2.235.279.602.659 1.057 1.14 1.366.486.305 1.04.457 1.665.457.346 0 .67-.045.971-.135s.577-.231.818-.412.45-.403.615-.666a2.52 2.52 0 0 0 .35-.903l2.111.011a4.55 4.55 0 0 1-.514 1.546 4.57 4.57 0 0 1-1.021 1.275c-.422.365-.915.651-1.479.858s-1.191.304-1.879.304c-1.016 0-1.923-.235-2.72-.705s-1.426-1.149-1.885-2.037-.689-1.953-.689-3.194.232-2.31.694-3.194 1.093-1.567 1.891-2.037 1.701-.705 2.709-.705c.643 0 1.241.09 1.794.271a4.6 4.6 0 0 1 1.479.796 4.24 4.24 0 0 1 1.067 1.275c.282.5.466 1.072.553 1.716zm4.321 7.833c-.549 0-1.044-.098-1.484-.293s-.783-.493-1.039-.88-.378-.865-.378-1.433c0-.489.091-.894.271-1.213a2.1 2.1 0 0 1 .739-.768c.313-.192.664-.337 1.056-.435s.803-.175 1.224-.22l1.236-.141c.316-.045.546-.113.689-.203a.48.48 0 0 0 .22-.434v-.034c0-.425-.126-.754-.378-.988s-.615-.35-1.089-.35c-.501 0-.898.109-1.191.327s-.486.476-.587.773l-1.908-.271c.151-.527.399-.967.745-1.321s.77-.625 1.27-.801 1.054-.271 1.659-.271c.418 0 .834.049 1.247.147s.792.26 1.135.485a2.44 2.44 0 0 1 .824.908c.21.384.316.864.316 1.439v5.801h-1.964v-1.19h-.068c-.124.241-.299.466-.525.677s-.502.374-.841.502c-.334.124-.728.186-1.179.186zm.53-1.501c.411 0 .766-.081 1.067-.243s.532-.384.694-.655.248-.566.248-.886v-1.021c-.063.053-.173.102-.327.147s-.32.085-.508.118l-.558.09-.48.068c-.305.041-.578.109-.818.203s-.431.226-.57.395-.209.38-.209.643c0 .376.137.66.412.852s.624.288 1.049.288zm8.144-10.231v11.557h-2.043V88.906h2.043zm4.143 0v11.557h-2.042V88.906h2.042zm8.952 5.181l-1.862.203c-.053-.188-.145-.365-.277-.53s-.301-.299-.519-.401-.485-.152-.801-.152c-.425 0-.783.092-1.072.276s-.427.423-.424.717c-.003.252.089.457.277.615s.508.288.948.389l1.478.316c.821.177 1.43.457 1.829.841s.606.886.609 1.507a2.35 2.35 0 0 1-.479 1.445c-.313.414-.747.738-1.304.971s-1.196.35-1.919.35c-1.061 0-1.915-.222-2.562-.666s-1.032-1.07-1.157-1.868l1.992-.192c.091.391.283.687.576.886s.675.299 1.146.299c.485 0 .874-.1 1.168-.299s.446-.446.446-.739a.77.77 0 0 0-.288-.615c-.188-.162-.482-.286-.88-.372l-1.479-.31c-.831-.173-1.447-.465-1.845-.875s-.597-.937-.593-1.569c-.004-.534.141-.997.435-1.388s.709-.7 1.235-.914c.531-.218 1.142-.327 1.835-.327 1.015 0 1.815.216 2.398.649s.95 1.018 1.089 1.755zm12.184-2.003a1.54 1.54 0 0 0-.666-1.151c-.387-.275-.891-.412-1.512-.412-.437 0-.811.066-1.123.197s-.551.31-.717.536a1.31 1.31 0 0 0-.254.773 1.17 1.17 0 0 0 .164.626c.113.177.265.327.457.451a3.21 3.21 0 0 0 .638.305 6.87 6.87 0 0 0 .705.209l1.083.271c.437.101.856.239 1.259.412s.769.391 1.089.655a2.9 2.9 0 0 1 .768.954c.188.372.282.809.282 1.309 0 .677-.173 1.273-.519 1.789s-.847.912-1.502 1.202-1.439.429-2.364.429c-.899 0-1.68-.139-2.342-.417s-1.174-.685-1.546-1.219-.568-1.185-.599-1.953h2.06c.03.403.155.737.373 1.005s.502.467.852.598.749.198 1.185.198c.455 0 .854-.068 1.196-.203s.617-.331.813-.576a1.39 1.39 0 0 0 .299-.869c-.004-.301-.092-.549-.265-.745s-.416-.365-.728-.497-.67-.256-1.084-.361l-1.315-.339c-.951-.245-1.704-.615-2.257-1.112s-.824-1.165-.824-1.992c0-.681.185-1.277.553-1.789.373-.512.879-.909 1.518-1.191s1.364-.429 2.173-.429c.82 0 1.539.143 2.156.429s1.108.675 1.461 1.179.536 1.076.548 1.727h-2.015zm8.277-.288v1.58h-4.983v-1.58h4.983zm-3.752-2.077h2.043v8.138c0 .275.041.485.124.632s.199.241.338.293a1.3 1.3 0 0 0 .463.079c.128 0 .245-.009.35-.028l.248-.051.344 1.597c-.109.037-.265.079-.468.124s-.444.071-.734.079c-.511.015-.972-.062-1.382-.232s-.736-.44-.976-.801-.354-.813-.35-1.354v-8.476zm7.955 10.92c-.549 0-1.044-.098-1.484-.293a2.43 2.43 0 0 1-1.038-.88c-.252-.388-.378-.865-.378-1.433 0-.489.09-.894.271-1.213a2.09 2.09 0 0 1 .739-.768c.312-.192.664-.337 1.055-.435s.803-.175 1.225-.22l1.236-.141c.316-.045.545-.113.688-.203s.22-.239.22-.434v-.034c0-.425-.126-.754-.378-.988s-.615-.35-1.089-.35c-.5 0-.897.109-1.191.327s-.485.476-.587.773l-1.907-.271c.15-.527.399-.967.745-1.321s.769-.625 1.269-.801 1.054-.271 1.66-.271a5.41 5.41 0 0 1 1.247.147c.414.098.792.26 1.134.485a2.44 2.44 0 0 1 .824.908c.211.384.316.864.316 1.439v5.801h-1.964v-1.19h-.068c-.124.241-.299.466-.524.677s-.503.374-.841.502-.728.186-1.18.186zm.531-1.501c.41 0 .765-.081 1.066-.243s.533-.384.695-.655a1.67 1.67 0 0 0 .248-.886v-1.021c-.064.053-.173.102-.327.147a4.69 4.69 0 0 1-.508.118l-.559.09-.48.068a3.58 3.58 0 0 0-.818.203c-.241.094-.431.226-.57.395s-.209.38-.209.643c0 .376.138.66.412.852s.625.288 1.05.288zm10.429-7.342v1.58h-4.983v-1.58h4.983zm-3.753-2.077h2.043v8.138c0 .275.041.485.124.632s.199.241.339.293.293.079.462.079c.128 0 .245-.009.35-.028l.248-.051.345 1.597a4.72 4.72 0 0 1-.469.124c-.199.045-.444.071-.733.079-.512.015-.973-.062-1.383-.232a2.15 2.15 0 0 1-.976-.801c-.237-.361-.354-.813-.35-1.354v-8.476zm5.461 10.745v-8.668h2.043v8.668h-2.043zm1.027-9.898a1.19 1.19 0 0 1-.835-.322c-.233-.218-.35-.48-.35-.785s.117-.57.35-.784a1.18 1.18 0 0 1 .835-.327 1.17 1.17 0 0 1 .836.327c.233.215.349.476.349.784s-.116.566-.349.785a1.18 1.18 0 0 1-.836.322zm9.968 3.522l-1.862.203c-.053-.188-.145-.365-.277-.53s-.301-.299-.519-.401-.486-.152-.802-.152c-.425 0-.782.092-1.072.276s-.427.423-.423.717c-.004.252.088.457.277.615s.507.288.948.389l1.478.316c.82.177 1.43.457 1.829.841s.605.886.609 1.507c-.004.545-.164 1.027-.48 1.445s-.746.738-1.303.971-1.197.35-1.919.35c-1.061 0-1.915-.222-2.562-.666s-1.033-1.07-1.157-1.868l1.992-.192c.09.391.282.687.576.886s.675.299 1.145.299c.486 0 .875-.1 1.169-.299s.445-.446.445-.739a.77.77 0 0 0-.287-.615c-.189-.162-.482-.286-.881-.372l-1.478-.31c-.832-.173-1.447-.465-1.846-.875s-.596-.937-.592-1.569c-.004-.534.141-.997.434-1.388s.709-.7 1.236-.914 1.142-.327 1.834-.327c1.016 0 1.816.216 2.399.649s.95 1.018 1.089 1.755zm6.199-2.291v1.58h-4.983v-1.58h4.983zm-3.753-2.077h2.043v8.138c0 .275.042.485.124.632.087.143.2.241.339.293s.293.079.463.079c.128 0 .244-.009.35-.028l.248-.051.344 1.597c-.109.037-.265.079-.468.124s-.444.071-.734.079c-.512.015-.973-.062-1.383-.232a2.15 2.15 0 0 1-.976-.801c-.237-.361-.354-.813-.35-1.354v-8.476zm5.462 10.745v-8.668h2.042v8.668h-2.042zm1.027-9.898c-.324 0-.602-.107-.836-.322s-.349-.48-.349-.785.116-.57.349-.784a1.18 1.18 0 0 1 .836-.327c.327 0 .605.109.835.327s.35.476.35.784-.117.566-.35.785a1.18 1.18 0 0 1-.835.322zm6.897 10.068c-.865 0-1.608-.19-2.229-.57a3.81 3.81 0 0 1-1.428-1.575c-.331-.674-.496-1.449-.496-2.325s.169-1.657.508-2.331.816-1.204 1.433-1.58 1.354-.57 2.201-.57c.703 0 1.326.13 1.868.389s.98.619 1.303 1.089.508 1.012.554 1.636h-1.953c-.079-.418-.267-.766-.564-1.044s-.687-.423-1.18-.423c-.417 0-.784.113-1.1.339s-.563.542-.74.959-.259.918-.259 1.501c0 .591.086 1.099.259 1.524s.416.747.728.976.687.339 1.112.339c.301 0 .57-.056.807-.169s.442-.284.604-.502.273-.483.333-.796h1.953c-.049.613-.23 1.157-.542 1.631s-.738.839-1.276 1.106-1.17.395-1.896.395zm12.242-6.547l-1.862.203c-.053-.188-.145-.365-.277-.53s-.301-.299-.519-.401-.485-.152-.801-.152c-.425 0-.783.092-1.073.276s-.427.423-.423.717a.75.75 0 0 0 .277.615c.192.158.508.288.948.389l1.478.316c.82.177 1.43.457 1.829.841s.605.886.609 1.507c-.004.545-.163 1.027-.479 1.445s-.747.738-1.304.971-1.196.35-1.919.35c-1.061 0-1.915-.222-2.562-.666s-1.033-1.07-1.157-1.868l1.992-.192c.091.391.283.687.576.886s.675.299 1.146.299c.485 0 .874-.1 1.168-.299s.446-.446.446-.739a.77.77 0 0 0-.288-.615c-.188-.162-.482-.286-.881-.372l-1.478-.31c-.832-.173-1.447-.465-1.846-.875s-.596-.937-.592-1.569c-.004-.534.141-.997.434-1.388.298-.395.71-.7 1.236-.914s1.142-.327 1.834-.327c1.016 0 1.816.216 2.399.649s.95 1.018 1.089 1.755z" fill="#1d293d"/><rect x="880.812" y="79.515" width="99.325" height="30.897" rx="6.622" class="E"/><rect x="880.812" y="79.515" width="99.325" height="30.897" rx="6.622" class="F L"/><g clip-path="url(#D)"><path d="M896.877 97.9h-1.234l2.773-7.705h1.343l2.773 7.705h-1.234l-2.179-6.306h-.06l-2.182 6.306zm.207-3.017h4.003v.978h-4.003v-.978zm7.595-4.688V97.9h-1.125v-7.705h1.125zm2.638 0V97.9h-1.125v-7.705h1.125zm10.807 2.506h-1.174a1.79 1.79 0 0 0-.252-.662 1.84 1.84 0 0 0-.451-.485 1.95 1.95 0 0 0-.598-.301c-.218-.068-.45-.102-.696-.102-.444 0-.842.112-1.193.335s-.624.551-.828.982-.301.958-.301 1.58.101 1.156.301 1.588.481.757.832.978a2.18 2.18 0 0 0 1.185.331c.243 0 .474-.033.692-.098a1.99 1.99 0 0 0 .598-.297c.178-.13.329-.29.452-.478s.212-.409.259-.655l1.174.004a3.12 3.12 0 0 1-.365 1.046c-.178.316-.407.589-.688.82a3.12 3.12 0 0 1-.956.531c-.358.125-.75.188-1.174.188-.667 0-1.261-.158-1.783-.474s-.933-.774-1.234-1.366-.448-1.298-.448-2.118.151-1.529.452-2.118.712-1.046 1.234-1.362 1.115-.478 1.779-.478c.409 0 .791.059 1.144.177a3.03 3.03 0 0 1 .96.512c.283.223.517.497.703.82s.311.689.376 1.102zm3.735 5.316c-.542 0-1.014-.124-1.418-.373s-.717-.596-.941-1.042-.335-.968-.335-1.565.112-1.124.335-1.573a2.51 2.51 0 0 1 .941-1.046c.404-.248.876-.372 1.418-.372s1.015.124 1.419.372a2.51 2.51 0 0 1 .94 1.046c.223.449.335.973.335 1.573s-.112 1.119-.335 1.565-.537.794-.94 1.042-.877.373-1.419.373zm.004-.944c.351 0 .642-.093.873-.278s.401-.433.511-.741.17-.648.17-1.02-.057-.707-.17-1.016-.28-.561-.511-.749-.522-.282-.873-.282-.647.094-.88.282a1.68 1.68 0 0 0-.516.749c-.11.309-.165.647-.165 1.016s.055.711.165 1.02.285.555.516.741.526.278.88.278zm7.606-1.569v-3.382h1.129V97.9h-1.106V96.9h-.06a1.8 1.8 0 0 1-.64.771c-.291.203-.653.305-1.087.305-.371 0-.7-.082-.986-.245a1.72 1.72 0 0 1-.67-.734c-.16-.324-.24-.724-.24-1.2v-3.676h1.125v3.54c0 .394.109.707.327.941s.501.35.85.35c.211 0 .42-.053.628-.158a1.32 1.32 0 0 0 .523-.478c.141-.213.21-.484.207-.813zm3.765-1.035V97.9h-1.125v-5.779h1.08v.941h.072c.133-.306.341-.552.624-.737s.646-.278 1.08-.278c.394 0 .739.083 1.035.248s.525.406.688.73.245.724.245 1.2V97.9h-1.125v-3.54c0-.419-.109-.746-.328-.982s-.518-.357-.899-.357a1.41 1.41 0 0 0-.696.169c-.2.113-.36.278-.478.497s-.173.477-.173.783zm7.905-2.348v.903h-3.157v-.903h3.157zm-2.31-1.385h1.125v5.467c0 .218.032.383.097.493s.15.182.253.222.219.056.342.056c.09 0 .169-.006.237-.019l.158-.03.203.929a1.89 1.89 0 0 1-.278.075 2.21 2.21 0 0 1-.452.045c-.296.005-.572-.048-.827-.158a1.42 1.42 0 0 1-.621-.512c-.158-.231-.237-.52-.237-.869v-5.7zm3.554 7.163v-5.779h1.087v.918h.061c.105-.311.291-.555.556-.734s.572-.271.911-.271l.248.007.23.019v1.076c-.045-.013-.126-.026-.241-.041a2.3 2.3 0 0 0-.346-.026c-.266 0-.503.056-.711.169s-.369.265-.489.463-.181.419-.181.67V97.9h-1.125zm4.953 2.167c-.168 0-.321-.013-.459-.041a1.42 1.42 0 0 1-.308-.083l.27-.922a1.82 1.82 0 0 0 .55.071.66.66 0 0 0 .425-.181c.125-.113.236-.297.331-.553l.139-.384-2.114-5.854h1.204l1.463 4.485h.06l1.464-4.485h1.208l-2.382 6.55c-.11.301-.251.555-.421.764a1.64 1.64 0 0 1-.61.474 1.99 1.99 0 0 1-.82.158z" fill="#62748e"/><path d="M959.443 93.198l3.531 3.532 3.532-3.532" class="H I J O"/></g><rect x="991.614" y="79.515" width="97.495" height="30.897" rx="6.622" class="E"/><rect x="991.614" y="79.515" width="97.495" height="30.897" rx="6.622" class="F L"/><g clip-path="url(#E)"><path d="M1007.68 97.9h-1.23l2.77-7.705h1.34l2.77 7.705h-1.23l-2.18-6.306h-.06l-2.18 6.306zm.21-3.017h4v.978h-4v-.978zm7.59-4.688V97.9h-1.12v-7.705h1.12zm2.64 0V97.9h-1.13v-7.705h1.13zm10.63 0V97.9h-1.07l-3.92-5.651h-.07V97.9h-1.16v-7.705h1.07l3.92 5.658h.07v-5.658h1.16zm5.26 5.308v-3.382h1.13V97.9h-1.11V96.9h-.06a1.74 1.74 0 0 1-.64.771c-.29.203-.65.305-1.08.305-.37 0-.7-.082-.99-.245-.28-.165-.5-.41-.67-.734-.16-.324-.24-.724-.24-1.2v-3.676h1.13v3.54c0 .394.11.707.32.941.22.233.51.35.85.35.21 0 .42-.053.63-.158a1.27 1.27 0 0 0 .52-.478c.15-.213.21-.484.21-.813zm2.64 2.397v-5.779h1.08v.941h.07c.12-.319.32-.567.59-.745.28-.181.6-.271.99-.271.38 0 .71.09.97.271s.45.429.58.745h.06c.14-.309.36-.554.66-.737s.66-.278 1.07-.278c.53 0 .96.164 1.29.493s.5.824.5 1.486V97.9h-1.13v-3.77c0-.391-.1-.675-.32-.85a1.14 1.14 0 0 0-.76-.263c-.37 0-.65.113-.85.339-.21.223-.31.51-.31.862V97.9h-1.12v-3.841c0-.314-.1-.566-.29-.756-.2-.191-.45-.286-.77-.286-.21 0-.41.056-.59.169s-.32.265-.43.463-.16.428-.16.688V97.9h-1.13zm9.46 0v-7.705h1.12v2.863h.07c.06-.12.16-.26.28-.418a1.54 1.54 0 0 1 .51-.414c.22-.12.51-.181.87-.181.46 0 .88.118 1.25.354.36.236.65.576.86 1.02s.31.978.31 1.603-.1 1.16-.31 1.606-.49.786-.86 1.027c-.36.238-.77.357-1.24.357-.35 0-.64-.059-.86-.177s-.4-.256-.52-.414c-.13-.158-.22-.299-.29-.421h-.1v.899h-1.09zm1.1-2.889a3.15 3.15 0 0 0 .17 1.069c.12.306.29.546.52.719.22.17.49.256.82.256a1.33 1.33 0 0 0 .84-.267c.22-.181.4-.425.51-.734.12-.309.18-.656.18-1.042 0-.381-.06-.724-.18-1.027-.11-.303-.28-.543-.51-.719-.22-.176-.5-.263-.84-.263-.33 0-.61.084-.83.252a1.61 1.61 0 0 0-.51.704 3.06 3.06 0 0 0-.17 1.053zm7.93 3.006c-.57 0-1.06-.122-1.47-.365a2.45 2.45 0 0 1-.95-1.035c-.22-.446-.33-.969-.33-1.569 0-.592.11-1.114.33-1.565s.53-.804.93-1.057.87-.38 1.41-.38c.32 0 .64.054.95.162.3.108.58.277.82.508s.44.531.58.899.21.811.21 1.336v.399h-4.6v-.843h3.49c0-.296-.06-.558-.18-.786a1.4 1.4 0 0 0-.5-.546c-.22-.133-.47-.199-.76-.199-.32 0-.6.078-.83.233s-.42.354-.54.602c-.13.246-.19.513-.19.801v.658c0 .386.07.715.2.986.14.271.33.478.58.621.24.141.53.211.86.211a1.76 1.76 0 0 0 .58-.09 1.26 1.26 0 0 0 .46-.278c.13-.123.22-.275.29-.455l1.07.192a1.99 1.99 0 0 1-.46.824c-.22.233-.5.415-.83.545s-.7.192-1.12.192zm3.73-.117v-5.779h1.08v.918h.06c.11-.311.29-.555.56-.734s.57-.271.91-.271l.25.007.23.019v1.076a2.48 2.48 0 0 0-.24-.041c-.12-.018-.23-.026-.35-.026-.27 0-.5.056-.71.169a1.23 1.23 0 0 0-.49.463c-.12.196-.18.419-.18.67V97.9h-1.12z" fill="#62748e"/><path d="M1069.24 93.198l3.54 3.532 3.53-3.532" class="H I J O"/></g><rect x="1100.59" y="79.513" width="30.9" height="30.9" rx="6.622" class="F L"/><path d="M1116.04 96.95v-7.946" class="H I J M"/><path d="M1122 96.95v2.649a1.32 1.32 0 0 1-.39.937 1.34 1.34 0 0 1-.94.388h-9.27a1.3 1.3 0 0 1-.93-.388 1.32 1.32 0 0 1-.39-.937V96.95" class="H I J M"/><path d="M1112.73 93.639l3.31 3.311 3.31-3.311" class="H I J M"/><use href="#H" class="F G K"/><path d="M138.701 335.766H1077.19" class="F G K"/><path d="M138.701 273.744H1077.19" class="F G K"/><path d="M138.701 211.723H1077.19" class="F G K"/><path d="M138.701 149.701H1077.19" class="F G K"/><path d="M167.836 382.282h35.315v15.505h-35.315v-15.505z" class="C"/><path d="M261.685 366.776H297v31.011h-35.315v-31.011z" class="C"/><path d="M355.534 304.755h35.314v93.032h-35.314v-93.032z" class="C"/><path d="M449.383 354.372h35.314v43.415h-35.314v-43.415z" class="C"/><path d="M543.231 354.372h35.315v43.415h-35.315v-43.415z" class="C"/><path d="M637.08 242.733h35.315v155.054H637.08V242.733z" class="C"/><path d="M730.929 289.25h35.315v108.537h-35.315V289.25z" class="C"/><path d="M824.778 372.979h35.315v24.808h-35.315v-24.808z" class="C"/><path d="M918.627 366.776h35.315v31.011h-35.315v-31.011z" class="C"/><path d="M1012.48 304.755h35.31v93.032h-35.31v-93.032z" class="C"/><path d="M167.836 230.76c0-.937.372-1.835 1.034-2.498s1.561-1.034 2.497-1.034h28.252a3.53 3.53 0 0 1 3.532 3.532v151.522h-35.315V230.76z" class="D"/><path d="M261.685 308.286c0-.936.372-1.834 1.034-2.497s1.561-1.034 2.497-1.034h28.252a3.53 3.53 0 0 1 2.497 1.034c.662.663 1.035 1.561 1.035 2.497v58.49h-35.315v-58.49z" class="D"/><path d="M355.534 283.478a3.53 3.53 0 0 1 3.531-3.532h28.252a3.53 3.53 0 0 1 3.531 3.532v21.277h-35.314v-21.277z" class="D"/><path d="M449.383 326.893a3.53 3.53 0 0 1 1.034-2.497c.662-.662 1.561-1.035 2.497-1.035h28.252a3.53 3.53 0 0 1 3.531 3.532v27.479h-35.314v-27.479z" class="D"/><path d="M543.231 264.871c0-.936.373-1.834 1.035-2.497a3.53 3.53 0 0 1 2.497-1.034h28.252c.936 0 1.835.372 2.497 1.034s1.034 1.561 1.034 2.497v89.501h-35.315v-89.501z" class="D"/><path d="M637.08 227.658c0-.936.373-1.834 1.035-2.497a3.53 3.53 0 0 1 2.497-1.034h28.252c.936 0 1.835.372 2.497 1.034s1.034 1.561 1.034 2.497v15.075H637.08v-15.075z" class="D"/><path d="M730.929 184.243c0-.936.373-1.834 1.035-2.497a3.53 3.53 0 0 1 2.497-1.034h28.252c.936 0 1.835.372 2.497 1.034s1.034 1.561 1.034 2.497V289.25h-35.315V184.243z" class="D"/><path d="M824.778 230.76a3.53 3.53 0 0 1 3.532-3.532h28.252c.936 0 1.834.372 2.497 1.034s1.034 1.561 1.034 2.498v142.219h-35.315V230.76z" class="D"/><path d="M918.627 308.286a3.53 3.53 0 0 1 3.532-3.531h28.251c.937 0 1.835.372 2.498 1.034s1.034 1.561 1.034 2.497v58.49h-35.315v-58.49z" class="D"/><path d="M1012.48 283.478c0-.937.37-1.835 1.03-2.497s1.56-1.035 2.5-1.035h28.25c.94 0 1.83.372 2.5 1.035.66.662 1.03 1.56 1.03 2.497v21.277h-35.31v-21.277z" class="D"/><path d="M182.983 420.712c-.567 0-1.049-.154-1.448-.463s-.704-.761-.914-1.351-.317-1.306-.317-2.144.106-1.544.317-2.133.519-1.044.917-1.355.883-.47 1.445-.47 1.042.157 1.441.47.707.763.918 1.355.32 1.3.32 2.133-.105 1.553-.316 2.144-.516 1.04-.914 1.351-.882.463-1.449.463zm0-.828c.562 0 .998-.271 1.309-.812s.467-1.315.467-2.318c0-.667-.072-1.235-.214-1.704s-.344-.827-.61-1.073-.581-.368-.952-.368c-.557 0-.992.274-1.305.824s-.471 1.32-.471 2.321c0 .667.071 1.234.211 1.701s.342.821.606 1.064.585.365.959.365zm6.817-6.983v7.706h-.933v-6.727h-.045l-1.881 1.249v-.948l1.926-1.28h.933z" class="B"/><path d="M276.646 420.712c-.567 0-1.05-.154-1.449-.463s-.703-.761-.914-1.351-.316-1.306-.316-2.144.105-1.544.316-2.133.519-1.044.918-1.355.883-.47 1.445-.47 1.042.157 1.441.47.707.763.918 1.355.319 1.3.319 2.133-.105 1.553-.316 2.144-.515 1.04-.914 1.351-.881.463-1.448.463zm0-.828c.562 0 .998-.271 1.309-.812s.467-1.315.467-2.318c0-.667-.072-1.235-.215-1.704s-.344-.827-.609-1.073a1.35 1.35 0 0 0-.952-.368c-.557 0-.992.274-1.306.824s-.47 1.32-.47 2.321c0 .667.07 1.234.211 1.701s.342.821.605 1.064a1.37 1.37 0 0 0 .96.365zm4.108.723v-.678l2.543-2.784.738-.85a3.16 3.16 0 0 0 .429-.685 1.66 1.66 0 0 0 .143-.677c0-.271-.066-.505-.196-.703a1.26 1.26 0 0 0-.527-.459c-.223-.108-.474-.162-.752-.162-.296 0-.554.061-.775.184s-.388.29-.508.508a1.59 1.59 0 0 0-.177.768h-.888c0-.452.104-.848.312-1.189a2.18 2.18 0 0 1 .851-.798c.361-.191.766-.286 1.215-.286s.851.095 1.2.286.622.448.82.771a2.03 2.03 0 0 1 .297 1.08c0 .283-.051.561-.154.832s-.276.568-.527.899-.593.73-1.034 1.204l-1.731 1.851v.06h3.582v.828h-4.861z" class="B"/><path d="M369.888 420.712c-.567 0-1.05-.154-1.449-.463s-.703-.761-.914-1.351-.316-1.306-.316-2.144.105-1.544.316-2.133.519-1.044.918-1.355.883-.47 1.445-.47 1.042.157 1.441.47.707.763.918 1.355.319 1.3.319 2.133-.105 1.553-.316 2.144-.515 1.04-.914 1.351-.881.463-1.448.463zm0-.828c.561 0 .998-.271 1.309-.812s.466-1.315.466-2.318c0-.667-.071-1.235-.214-1.704s-.344-.827-.609-1.073a1.35 1.35 0 0 0-.952-.368c-.557 0-.992.274-1.306.824s-.47 1.32-.47 2.321c0 .667.07 1.234.211 1.701s.342.821.605 1.064a1.37 1.37 0 0 0 .96.365zm6.711.828a3.27 3.27 0 0 1-1.328-.256 2.28 2.28 0 0 1-.921-.711 1.91 1.91 0 0 1-.369-1.065h.948c.02.249.105.463.256.644s.347.316.591.413a2.14 2.14 0 0 0 .808.147 2.13 2.13 0 0 0 .881-.173 1.45 1.45 0 0 0 .602-.481 1.21 1.21 0 0 0 .218-.715c0-.284-.07-.533-.211-.749s-.346-.389-.617-.512-.602-.184-.993-.184h-.617v-.828h.617c.306 0 .574-.055.805-.165s.415-.266.546-.467.199-.436.199-.707c0-.261-.058-.488-.173-.681s-.278-.344-.489-.451a1.58 1.58 0 0 0-.737-.162 1.96 1.96 0 0 0-.753.146 1.41 1.41 0 0 0-.572.418c-.148.181-.228.399-.241.655h-.902c.015-.404.136-.758.364-1.061s.527-.544.896-.715.779-.256 1.223-.256c.476 0 .885.097 1.226.29s.603.443.786.756a1.98 1.98 0 0 1 .275 1.016c0 .434-.114.804-.342 1.11s-.533.518-.922.636v.06c.486.08.866.287 1.14.62s.41.742.41 1.231a1.95 1.95 0 0 1-.342 1.128c-.226.331-.535.592-.926.783s-.836.286-1.336.286z" class="B"/><path d="M463.711 420.712c-.567 0-1.05-.154-1.449-.463s-.703-.761-.914-1.351-.316-1.306-.316-2.144.105-1.544.316-2.133.519-1.044.918-1.355.883-.47 1.445-.47 1.042.157 1.441.47.707.763.918 1.355.319 1.3.319 2.133-.105 1.553-.316 2.144-.515 1.04-.914 1.351-.881.463-1.448.463zm0-.828c.562 0 .998-.271 1.309-.812s.466-1.315.466-2.318c0-.667-.071-1.235-.214-1.704s-.344-.827-.609-1.073a1.35 1.35 0 0 0-.952-.368c-.557 0-.992.274-1.306.824s-.47 1.32-.47 2.321c0 .667.07 1.234.211 1.701s.342.821.605 1.064a1.37 1.37 0 0 0 .96.365zm3.927-.858v-.767l3.386-5.358h.557v1.189h-.376l-2.558 4.048v.061h4.56v.827h-5.569zm3.627 1.581v-1.814-.357-5.535h.888v7.706h-.888z" class="B"/><path d="M558.177 420.712c-.567 0-1.05-.154-1.449-.463s-.703-.761-.914-1.351-.316-1.306-.316-2.144.105-1.544.316-2.133.519-1.044.918-1.355.883-.47 1.445-.47 1.042.157 1.441.47.707.763.918 1.355.32 1.3.32 2.133-.106 1.553-.316 2.144-.516 1.04-.915 1.351-.881.463-1.448.463zm0-.828c.562 0 .998-.271 1.309-.812s.467-1.315.467-2.318c0-.667-.072-1.235-.215-1.704s-.343-.827-.609-1.073a1.35 1.35 0 0 0-.952-.368c-.557 0-.992.274-1.306.824s-.47 1.32-.47 2.321c0 .667.07 1.234.211 1.701s.342.821.605 1.064a1.37 1.37 0 0 0 .96.365zm6.516.828c-.441 0-.839-.088-1.193-.264a2.21 2.21 0 0 1-.85-.722c-.213-.306-.33-.654-.35-1.046h.903a1.24 1.24 0 0 0 .474.866c.284.225.622.338 1.016.338.316 0 .597-.074.843-.222s.442-.351.583-.609a1.81 1.81 0 0 0 .214-.884c0-.337-.074-.636-.222-.9a1.63 1.63 0 0 0-.602-.628c-.255-.153-.548-.231-.876-.233-.236-.003-.478.034-.726.109s-.453.167-.614.282l-.872-.105.466-3.793h4.003v.828h-3.22l-.271 2.273h.045c.158-.126.356-.23.594-.313a2.28 2.28 0 0 1 .745-.124c.472 0 .892.113 1.261.339s.662.529.872.918.32.832.32 1.332c0 .491-.11.93-.331 1.316s-.519.688-.903.911-.82.331-1.309.331z" class="B"/><path d="M651.943 420.712c-.567 0-1.05-.154-1.448-.463s-.704-.761-.915-1.351-.316-1.306-.316-2.144.106-1.544.316-2.133.52-1.044.918-1.355.883-.47 1.445-.47 1.042.157 1.441.47.707.763.918 1.355.32 1.3.32 2.133-.106 1.553-.316 2.144-.516 1.04-.914 1.351-.882.463-1.449.463zm0-.828c.562 0 .998-.271 1.309-.812s.467-1.315.467-2.318c0-.667-.072-1.235-.215-1.704s-.343-.827-.609-1.073-.581-.368-.952-.368c-.557 0-.992.274-1.305.824s-.471 1.32-.471 2.321c0 .667.071 1.234.211 1.701s.342.821.606 1.064.585.365.959.365zm6.667.828c-.316-.005-.632-.065-.948-.181s-.605-.309-.866-.583-.47-.648-.628-1.117-.237-1.064-.237-1.776a7.71 7.71 0 0 1 .192-1.813c.128-.53.313-.975.557-1.336a2.5 2.5 0 0 1 .88-.828 2.41 2.41 0 0 1 1.17-.282c.432 0 .815.087 1.151.26s.615.409.828.715.351.658.414 1.057h-.918a1.7 1.7 0 0 0-.497-.862c-.245-.228-.572-.342-.978-.342-.597 0-1.067.259-1.411.779s-.513 1.247-.515 2.185h.06a2.27 2.27 0 0 1 1.148-.899c.235-.082.485-.124.748-.124a2.3 2.3 0 0 1 1.212.331 2.45 2.45 0 0 1 .88.907c.221.384.331.824.331 1.32 0 .477-.107.913-.32 1.31s-.513.707-.899.94-.835.344-1.354.339zm0-.828a1.56 1.56 0 0 0 .85-.237c.253-.158.453-.37.598-.636s.222-.562.222-.888a1.78 1.78 0 0 0-.214-.869c-.141-.263-.335-.472-.583-.628s-.527-.233-.843-.233c-.238 0-.46.047-.666.143a1.71 1.71 0 0 0-.542.384 1.85 1.85 0 0 0-.361.56c-.088.208-.132.428-.132.658 0 .306.072.592.215.858a1.76 1.76 0 0 0 .594.644 1.56 1.56 0 0 0 .862.244z" class="B"/><path d="M745.675 420.712c-.567 0-1.05-.154-1.449-.463s-.703-.761-.914-1.351-.316-1.306-.316-2.144.106-1.544.316-2.133.519-1.044.918-1.355.883-.47 1.445-.47 1.042.157 1.441.47.707.763.918 1.355.32 1.3.32 2.133-.106 1.553-.316 2.144-.516 1.04-.915 1.351-.881.463-1.448.463zm0-.828c.562 0 .998-.271 1.309-.812s.467-1.315.467-2.318c0-.667-.072-1.235-.215-1.704s-.343-.827-.609-1.073a1.35 1.35 0 0 0-.952-.368c-.557 0-.992.274-1.306.824s-.47 1.32-.47 2.321c0 .667.07 1.234.211 1.701s.342.821.606 1.064.585.365.959.365zm4.142.723l3.446-6.818v-.06h-3.973v-.828h4.936v.873l-3.431 6.833h-.978z" class="B"/><path d="M839.682 420.712c-.567 0-1.049-.154-1.448-.463s-.704-.761-.914-1.351-.316-1.306-.316-2.144.105-1.544.316-2.133.519-1.044.918-1.355.883-.47 1.444-.47 1.042.157 1.441.47.708.763.918 1.355.32 1.3.32 2.133-.105 1.553-.316 2.144-.515 1.04-.914 1.351-.882.463-1.449.463zm0-.828c.562 0 .999-.271 1.31-.812s.466-1.315.466-2.318c0-.667-.071-1.235-.214-1.704s-.344-.827-.61-1.073-.58-.368-.952-.368c-.556 0-.992.274-1.305.824s-.47 1.32-.47 2.321c0 .667.07 1.234.21 1.701s.343.821.606 1.064.586.365.959.365zm6.577.828c-.517 0-.973-.092-1.37-.275s-.701-.44-.921-.764a1.92 1.92 0 0 1-.328-1.113 2.06 2.06 0 0 1 .192-.903c.13-.278.309-.51.534-.696a1.64 1.64 0 0 1 .764-.357v-.046c-.369-.095-.662-.302-.88-.62a1.88 1.88 0 0 1-.324-1.095 1.87 1.87 0 0 1 .297-1.05 2.1 2.1 0 0 1 .828-.73 2.65 2.65 0 0 1 1.208-.267c.446 0 .845.089 1.196.267a2.1 2.1 0 0 1 .828.73c.203.309.306.659.308 1.05-.002.409-.114.774-.335 1.095a1.48 1.48 0 0 1-.869.62v.046c.279.05.53.169.753.357s.401.418.534.696.201.577.203.903c-.002.416-.115.787-.338 1.113s-.528.579-.922.764-.844.275-1.358.275zm0-.828c.348 0 .649-.056.903-.169s.449-.272.587-.478a1.29 1.29 0 0 0 .21-.722c-.002-.291-.078-.548-.226-.772s-.349-.398-.605-.526-.543-.192-.869-.192a1.96 1.96 0 0 0-.881.192c-.255.128-.457.303-.605.526s-.217.481-.215.772a1.26 1.26 0 0 0 .2.722c.138.206.334.365.59.478s.56.169.911.169zm0-3.657c.276 0 .52-.055.733-.165s.385-.265.508-.463a1.31 1.31 0 0 0 .188-.696c-.002-.261-.064-.488-.184-.681s-.287-.346-.5-.451-.462-.162-.745-.162c-.289 0-.541.054-.757.162s-.382.255-.5.451a1.26 1.26 0 0 0-.173.681c-.002.266.056.498.177.696s.292.352.508.463.464.165.745.165z" class="B"/><path d="M933.49 420.712c-.567 0-1.05-.154-1.449-.463s-.703-.761-.914-1.351-.316-1.306-.316-2.144.105-1.544.316-2.133.519-1.044.918-1.355.883-.47 1.445-.47 1.042.157 1.441.47.707.763.918 1.355.32 1.3.32 2.133-.106 1.553-.316 2.144-.516 1.04-.915 1.351-.881.463-1.448.463zm0-.828c.562 0 .998-.271 1.309-.812s.467-1.315.467-2.318c0-.667-.072-1.235-.215-1.704s-.343-.827-.609-1.073a1.35 1.35 0 0 0-.952-.368c-.557 0-.992.274-1.306.824s-.47 1.32-.47 2.321c0 .667.07 1.234.211 1.701s.342.821.605 1.064a1.37 1.37 0 0 0 .96.365zm6.561-7.088a2.77 2.77 0 0 1 .948.181c.316.118.605.313.866.587s.47.64.628 1.109.237 1.058.237 1.765c0 .685-.065 1.293-.196 1.825s-.313.975-.557 1.339a2.46 2.46 0 0 1-.88.828 2.39 2.39 0 0 1-1.166.282c-.432 0-.817-.085-1.155-.256a2.27 2.27 0 0 1-.828-.719c-.213-.308-.35-.665-.41-1.072h.918c.083.354.247.646.493.877s.575.342.982.342c.594 0 1.063-.259 1.407-.779s.519-1.252.519-2.201h-.06c-.141.211-.307.393-.501.546s-.407.271-.643.354-.486.124-.752.124c-.442 0-.847-.109-1.216-.328s-.659-.522-.88-.906-.327-.828-.327-1.325c0-.471.105-.902.316-1.294a2.44 2.44 0 0 1 .895-.94c.386-.234.84-.346 1.362-.339zm0 .828a1.58 1.58 0 0 0-.854.237 1.7 1.7 0 0 0-.598.632c-.146.263-.218.555-.218.876s.07.614.21.877.338.469.584.625.53.229.846.229a1.6 1.6 0 0 0 .666-.139 1.72 1.72 0 0 0 .538-.388c.155-.165.277-.352.365-.56s.132-.43.132-.659c0-.301-.073-.583-.219-.846s-.341-.477-.594-.64a1.54 1.54 0 0 0-.858-.244z" class="B"/><path d="M1027.82 412.901v7.706h-.93v-6.727h-.05l-1.88 1.249v-.948l1.93-1.28h.93zm4.73 7.811c-.57 0-1.05-.154-1.45-.463s-.7-.761-.91-1.351c-.22-.591-.32-1.306-.32-2.144s.1-1.544.32-2.133c.21-.592.51-1.044.91-1.355s.89-.47 1.45-.47 1.04.157 1.44.47.71.763.92 1.355.32 1.3.32 2.133-.11 1.553-.32 2.144-.51 1.04-.91 1.351-.89.463-1.45.463zm0-.828c.56 0 1-.271 1.31-.812s.46-1.315.46-2.318c0-.667-.07-1.235-.21-1.704s-.34-.827-.61-1.073a1.34 1.34 0 0 0-.95-.368c-.56 0-.99.274-1.31.824-.31.546-.47 1.32-.47 2.321 0 .667.07 1.234.21 1.701s.35.821.61 1.064.58.365.96.365z" class="B"/><path d="M128.264 401.059c-.566 0-1.049-.154-1.448-.463s-.704-.761-.914-1.35-.316-1.307-.316-2.145c0-.832.105-1.543.316-2.133s.519-1.043.918-1.354.883-.471 1.444-.471 1.043.157 1.441.471.708.762.918 1.354.32 1.301.32 2.133c0 .838-.105 1.553-.316 2.145s-.515 1.039-.914 1.35-.882.463-1.449.463zm0-.827c.562 0 .999-.271 1.31-.813s.466-1.314.466-2.318c0-.667-.071-1.235-.214-1.704s-.344-.826-.61-1.072-.58-.369-.952-.369c-.556 0-.992.275-1.305.824s-.47 1.321-.47 2.321c0 .668.07 1.234.21 1.701s.343.821.606 1.065.586.365.959.365z" class="B"/><path d="M120.157 338.932v-.677l2.543-2.784.737-.85c.194-.243.337-.472.429-.685s.143-.441.143-.677c0-.271-.065-.505-.195-.704s-.304-.351-.527-.459a1.72 1.72 0 0 0-.753-.161 1.57 1.57 0 0 0-.775.184c-.218.12-.387.29-.507.508s-.177.474-.177.767h-.888c0-.451.104-.847.312-1.188a2.17 2.17 0 0 1 .85-.798c.362-.191.767-.286 1.216-.286s.851.095 1.2.286a2.16 2.16 0 0 1 .82.771 2.03 2.03 0 0 1 .297 1.08c0 .283-.051.561-.154.831s-.276.568-.527.9-.593.729-1.034 1.203l-1.731 1.851v.061h3.582v.827h-4.861zm8.928.106c-.567 0-1.05-.155-1.449-.463s-.703-.761-.914-1.351-.316-1.306-.316-2.144c0-.833.105-1.544.316-2.133s.519-1.044.918-1.355.883-.47 1.445-.47 1.042.157 1.44.47.708.763.918 1.355.32 1.3.32 2.133c0 .838-.105 1.552-.316 2.144s-.515 1.04-.914 1.351-.882.463-1.448.463zm0-.828c.561 0 .998-.271 1.309-.813s.466-1.314.466-2.317c0-.667-.071-1.235-.214-1.704s-.344-.827-.61-1.073-.58-.368-.951-.368c-.557 0-.992.274-1.306.824s-.47 1.32-.47 2.321c0 .667.07 1.234.21 1.7s.343.822.606 1.065.586.365.96.365z" class="B"/><path d="M118.711 275.331v-.768l3.386-5.357h.556v1.189h-.376l-2.558 4.048v.06h4.56v.828h-5.568zm3.626 1.58v-1.814-.357-5.534h.888v7.705h-.888zm5.865.105c-.567 0-1.05-.154-1.449-.463s-.703-.761-.914-1.35-.316-1.307-.316-2.145c0-.832.105-1.543.316-2.133s.519-1.043.918-1.354.883-.471 1.445-.471 1.042.157 1.441.471.707.762.918 1.354.319 1.301.319 2.133c0 .838-.105 1.553-.316 2.145s-.515 1.039-.914 1.35-.881.463-1.448.463zm0-.828c.562 0 .998-.27 1.309-.812s.466-1.314.466-2.318c0-.667-.071-1.235-.214-1.704s-.344-.826-.609-1.072-.581-.369-.952-.369c-.557 0-.992.275-1.306.824s-.47 1.321-.47 2.321c0 .667.07 1.234.211 1.701s.342.821.605 1.065.586.364.96.364z" class="B"/><path d="M122.518 214.995c-.316-.005-.632-.066-.948-.181a2.27 2.27 0 0 1-.865-.583c-.261-.276-.47-.648-.628-1.117s-.237-1.064-.237-1.776c0-.682.064-1.287.192-1.814s.313-.974.556-1.335.537-.64.881-.828a2.41 2.41 0 0 1 1.17-.282c.431 0 .815.086 1.151.26s.615.408.828.714a2.51 2.51 0 0 1 .414 1.058h-.918c-.086-.347-.251-.634-.497-.862s-.572-.342-.978-.342c-.597 0-1.067.259-1.411.778s-.513 1.248-.515 2.186h.06a2.25 2.25 0 0 1 .5-.545 2.28 2.28 0 0 1 .647-.354c.236-.083.486-.124.749-.124a2.3 2.3 0 0 1 1.211.331c.367.218.66.52.881.907s.331.824.331 1.32c0 .477-.107.913-.32 1.309s-.513.708-.899.941-.835.344-1.355.339zm0-.828c.317 0 .6-.079.851-.237a1.7 1.7 0 0 0 .598-.636c.148-.266.222-.562.222-.888a1.78 1.78 0 0 0-.215-.869c-.14-.263-.334-.473-.583-.628s-.526-.233-.842-.233a1.55 1.55 0 0 0-.666.143c-.206.092-.387.22-.542.383s-.273.35-.361.561-.132.428-.132.658c0 .306.072.592.215.858s.343.48.594.643.54.245.861.245zm6.567.828c-.567 0-1.05-.155-1.449-.463s-.703-.761-.914-1.351-.316-1.306-.316-2.144.105-1.544.316-2.133.519-1.044.918-1.355.883-.47 1.445-.47 1.042.157 1.44.47.708.763.918 1.355.32 1.3.32 2.133-.105 1.552-.316 2.144-.515 1.04-.914 1.351-.882.463-1.448.463zm0-.828c.561 0 .998-.271 1.309-.813s.466-1.314.466-2.317c0-.667-.071-1.235-.214-1.704s-.344-.827-.61-1.073a1.34 1.34 0 0 0-.951-.368c-.557 0-.992.274-1.306.824s-.47 1.32-.47 2.321c0 .667.07 1.234.21 1.7s.343.822.606 1.065.586.365.96.365z" class="B"/><path d="M122.511 152.973c-.517 0-.973-.091-1.369-.275s-.702-.44-.922-.763a1.92 1.92 0 0 1-.328-1.114 2.06 2.06 0 0 1 .192-.903 1.98 1.98 0 0 1 .535-.696 1.63 1.63 0 0 1 .763-.357v-.045c-.368-.096-.662-.303-.88-.621s-.326-.686-.324-1.095c-.002-.391.097-.741.298-1.05a2.09 2.09 0 0 1 .827-.729c.354-.179.756-.268 1.208-.268.446 0 .845.089 1.196.268s.627.421.828.729.306.659.309 1.05c-.003.409-.115.774-.335 1.095s-.508.525-.869.621v.045c.278.05.529.169.752.357s.401.418.534.696.201.577.203.903c-.002.417-.115.788-.338 1.114s-.528.578-.922.763-.844.275-1.358.275zm0-.828c.349 0 .65-.056.903-.169s.449-.272.587-.478a1.28 1.28 0 0 0 .21-.722 1.38 1.38 0 0 0-.225-.771c-.148-.223-.35-.399-.606-.527a1.9 1.9 0 0 0-.869-.192c-.329 0-.622.064-.88.192s-.458.304-.606.527-.217.48-.215.771c-.002.276.064.517.2.722a1.34 1.34 0 0 0 .591.478c.255.113.559.169.91.169zm0-3.656a1.58 1.58 0 0 0 .734-.166c.215-.11.385-.265.507-.463a1.32 1.32 0 0 0 .189-.696c-.003-.261-.064-.488-.185-.681s-.287-.346-.5-.451-.462-.162-.745-.162-.541.054-.756.162a1.17 1.17 0 0 0-.501.451 1.26 1.26 0 0 0-.173.681c-.002.266.057.498.177.696s.292.353.508.463.464.166.745.166zm6.574 4.484c-.567 0-1.05-.154-1.449-.463s-.703-.761-.914-1.35-.316-1.307-.316-2.145c0-.832.105-1.543.316-2.133s.519-1.043.918-1.354.883-.471 1.445-.471 1.042.157 1.44.471.708.762.918 1.354.32 1.301.32 2.133c0 .838-.105 1.553-.316 2.145s-.515 1.039-.914 1.35-.882.463-1.448.463zm0-.828c.561 0 .998-.27 1.309-.812s.466-1.314.466-2.318c0-.667-.071-1.235-.214-1.704s-.344-.826-.61-1.072a1.34 1.34 0 0 0-.951-.369c-.557 0-.992.275-1.306.824s-.47 1.321-.47 2.321c0 .667.07 1.234.21 1.701s.343.821.606 1.065.586.364.96.364z" class="B"/><g clip-path="url(#F)" class="C"><use href="#I"/></g><path d="M478.524 466.198v10.273h-1.244v-10.273h1.244zm3.517 5.638v4.635h-1.183v-7.705h1.143v1.204h.101c.18-.392.454-.706.822-.943s.843-.361 1.425-.361c.522 0 .978.107 1.369.321s.696.531.913.963.326.97.326 1.625v4.896h-1.183v-4.816c0-.605-.158-1.077-.472-1.414s-.746-.512-1.294-.512c-.378 0-.716.082-1.013.246a1.76 1.76 0 0 0-.698.717c-.17.314-.256.696-.256 1.144zm7.24 4.635v-10.273h1.184v3.792h.1l.362-.512c.157-.211.381-.398.672-.562s.692-.25 1.194-.25c.648 0 1.22.162 1.715.486s.881.784 1.159 1.38.416 1.297.416 2.106c0 .816-.138 1.524-.416 2.122s-.662 1.057-1.154 1.385-1.058.486-1.7.486c-.495 0-.892-.082-1.189-.245-.298-.168-.527-.357-.687-.567l-.372-.532h-.14v1.184h-1.144zm1.164-3.853c0 .582.085 1.096.256 1.54s.42.788.747 1.039.729.371 1.204.371c.495 0 .908-.13 1.239-.391a2.4 2.4 0 0 0 .753-1.064c.17-.448.255-.946.255-1.495 0-.541-.083-1.03-.25-1.464s-.413-.785-.748-1.039-.747-.386-1.249-.386c-.481 0-.886.122-1.214.366s-.575.579-.742 1.013-.251.935-.251 1.51zm10.579 4.013c-.695 0-1.306-.165-1.831-.496a3.38 3.38 0 0 1-1.224-1.39c-.29-.595-.436-1.291-.436-2.087 0-.802.146-1.503.436-2.101s.703-1.064 1.224-1.395 1.136-.496 1.831-.496 1.305.165 1.826.496a3.32 3.32 0 0 1 1.224 1.395c.295.598.442 1.299.442 2.101 0 .796-.147 1.492-.442 2.087s-.699 1.059-1.224 1.39-1.13.496-1.826.496zm0-1.063c.529 0 .964-.135 1.305-.406s.593-.627.757-1.069.246-.919.246-1.435-.082-.994-.246-1.439-.416-.804-.757-1.079-.776-.411-1.305-.411-.963.137-1.304.411-.593.634-.757 1.079-.246.924-.246 1.439.082.994.246 1.435.416.798.757 1.069.776.406 1.304.406zm10.155-2.247v-4.555h1.183v7.705h-1.183v-1.304h-.081c-.18.391-.461.724-.842.998s-.863.406-1.445.406c-.482 0-.91-.105-1.284-.316s-.669-.535-.883-.963-.321-.975-.321-1.63v-4.896h1.184v4.815c0 .562.157 1.01.471 1.345s.723.501 1.214.501a2.02 2.02 0 0 0 .898-.225c.308-.151.565-.381.773-.692s.316-.708.316-1.189zm4.536-1.485v4.635h-1.184v-7.705h1.143v1.204h.101c.18-.392.455-.706.822-.943s.843-.361 1.425-.361c.522 0 .978.107 1.37.321a2.16 2.16 0 0 1 .913.963c.217.428.326.97.326 1.625v4.896h-1.184v-4.816c0-.605-.157-1.077-.472-1.414s-.746-.512-1.294-.512c-.378 0-.716.082-1.013.246a1.76 1.76 0 0 0-.698.717c-.17.314-.255.696-.255 1.144zm9.988 4.795c-.642 0-1.209-.162-1.7-.486s-.876-.789-1.154-1.385-.416-1.306-.416-2.122c0-.809.138-1.511.416-2.106s.664-1.056 1.159-1.38 1.067-.486 1.715-.486c.502 0 .898.083 1.189.25s.519.351.672.562l.367.512h.1v-3.792h1.184v10.273h-1.144v-1.184h-.14c-.087.14-.211.318-.372.532s-.389.399-.687.567c-.297.163-.694.245-1.189.245zm.161-1.063c.475 0 .876-.124 1.204-.371s.577-.597.747-1.039.256-.958.256-1.54c0-.575-.084-1.078-.251-1.51s-.414-.772-.742-1.013-.733-.366-1.214-.366c-.502 0-.92.129-1.254.386s-.58.601-.748 1.039-.245.923-.245 1.464c0 .549.083 1.047.25 1.495s.422.799.753 1.064.749.391 1.244.391zm18.104-6.16h-1.244c-.074-.358-.203-.672-.387-.943a2.56 2.56 0 0 0-.662-.682 2.79 2.79 0 0 0-.858-.422c-.314-.093-.642-.14-.983-.14-.622 0-1.185.157-1.69.471s-.902.778-1.199 1.39-.442 1.363-.442 2.252.148 1.641.442 2.253.697 1.075 1.199 1.389 1.068.472 1.69.472a3.41 3.41 0 0 0 .983-.141 2.87 2.87 0 0 0 .858-.416c.261-.188.482-.417.662-.687a2.65 2.65 0 0 0 .387-.944h1.244c-.094.525-.265.995-.512 1.41s-.555.768-.923 1.058a4.05 4.05 0 0 1-1.239.658 4.63 4.63 0 0 1-1.46.225c-.876 0-1.655-.214-2.337-.642s-1.219-1.036-1.611-1.826-.586-1.725-.586-2.809.195-2.02.586-2.809.928-1.398 1.611-1.826 1.461-.642 2.337-.642c.519 0 1.005.075 1.46.226s.871.371 1.239.662.676.639.923 1.053a4.12 4.12 0 0 1 .512 1.41zm4.117 7.243c-.488 0-.932-.091-1.33-.275s-.714-.457-.948-.808-.351-.783-.351-1.284c0-.442.087-.799.261-1.074s.406-.495.697-.652.612-.274.963-.351l1.069-.191 1.139-.135c.294-.033.508-.089.642-.166s.205-.21.205-.401v-.04c0-.495-.135-.88-.406-1.154s-.674-.411-1.219-.411c-.565 0-1.008.124-1.329.371s-.547.512-.677.793l-1.124-.402c.201-.468.468-.832.803-1.093s.705-.448 1.103-.552a4.58 4.58 0 0 1 1.184-.16c.247 0 .532.03.853.09s.637.175.938.356.557.453.757.818.301.852.301 1.464v5.077h-1.184v-1.044h-.06a2.06 2.06 0 0 1-.401.537c-.187.191-.436.353-.748.487s-.69.2-1.138.2zm.18-1.063c.469 0 .863-.092 1.184-.276s.569-.421.733-.712.25-.597.25-.918v-1.084c-.05.06-.16.116-.331.166s-.361.088-.582.125l-.637.091-.496.06a4.54 4.54 0 0 0-.863.195c-.264.087-.478.219-.642.397s-.241.411-.241.712c0 .411.152.722.457.933s.697.311 1.168.311zm6.696-9.39v10.273h-1.184v-10.273h1.184zm3.352 0v10.273h-1.184v-10.273h1.184zm7.626 4.293l-1.063.301c-.067-.177-.166-.349-.296-.516s-.301-.311-.522-.422-.503-.165-.848-.165c-.471 0-.864.109-1.179.326s-.466.486-.466.818c0 .294.107.526.321.697s.548.313 1.003.426l1.144.281c.689.167 1.202.423 1.54.768s.507.78.507 1.319a1.96 1.96 0 0 1-.382 1.184c-.251.348-.602.622-1.053.822s-.977.301-1.575.301c-.786 0-1.437-.17-1.952-.511s-.841-.84-.978-1.495l1.124-.281c.107.415.309.726.607.933s.694.311 1.179.311c.551 0 .99-.117 1.314-.351s.492-.522.492-.853c0-.267-.094-.491-.281-.672s-.475-.321-.863-.411l-1.284-.301c-.706-.168-1.224-.427-1.555-.778s-.492-.798-.492-1.329c0-.435.122-.82.366-1.154s.584-.597 1.008-.788.913-.285 1.455-.285c.763 0 1.361.167 1.796.501s.749.776.933 1.324z" class="C"/><g clip-path="url(#G)" class="D"><path d="M588.002 471.622a6.18 6.18 0 0 1-6.18 6.18 6.18 6.18 0 0 1-6.18-6.18 6.18 6.18 0 0 1 6.18-6.181 6.18 6.18 0 0 1 6.18 6.181z"/></g><path d="M601.498 471.334c0 1.084-.196 2.02-.587 2.809s-.928 1.398-1.61 1.826-1.462.642-2.338.642-1.655-.214-2.338-.642-1.218-1.036-1.61-1.826-.587-1.725-.587-2.809.196-2.02.587-2.809.928-1.398 1.61-1.826 1.462-.642 2.338-.642 1.655.214 2.338.642 1.219 1.037 1.61 1.826.587 1.726.587 2.809zm-1.204 0c0-.889-.149-1.64-.447-2.252s-.693-1.075-1.198-1.39-1.064-.471-1.686-.471-1.185.157-1.69.471-.902.778-1.199 1.39-.442 1.363-.442 2.252.147 1.641.442 2.253.697 1.075 1.199 1.389 1.068.472 1.69.472 1.184-.158 1.686-.472.904-.777 1.198-1.389.447-1.363.447-2.253zm7.991 1.987v-4.555h1.184v7.705h-1.184v-1.304h-.08c-.181.391-.462.724-.843.998s-.863.406-1.445.406c-.481 0-.909-.105-1.284-.316s-.669-.535-.883-.963-.321-.975-.321-1.63v-4.896h1.184v4.815c0 .562.157 1.01.471 1.345s.723.501 1.214.501c.295 0 .594-.075.898-.225s.566-.381.773-.692.316-.708.316-1.189zm6.703-4.555v1.003h-3.993v-1.003h3.993zm-2.829-1.846h1.184v7.344c0 .334.048.585.145.752a.75.75 0 0 0 .381.331 1.52 1.52 0 0 0 .497.08 2.03 2.03 0 0 0 .321-.02l.201-.04.24 1.064c-.08.03-.192.06-.336.09s-.326.05-.547.05c-.334 0-.662-.072-.983-.215a1.95 1.95 0 0 1-.792-.658c-.208-.294-.311-.665-.311-1.113v-7.665zm4.936 9.551v-10.273h1.184v3.792h.1l.361-.512c.157-.211.381-.398.672-.562s.693-.25 1.194-.25c.649 0 1.221.162 1.716.486s.881.784 1.158 1.38.417 1.297.417 2.106c0 .816-.139 1.524-.417 2.122s-.662 1.057-1.153 1.385-1.059.486-1.701.486c-.495 0-.891-.082-1.189-.245-.297-.168-.526-.357-.687-.567l-.371-.532h-.141v1.184h-1.143zm1.164-3.853c0 .582.085 1.096.255 1.54s.42.788.748 1.039.729.371 1.204.371c.495 0 .908-.13 1.239-.391s.585-.619.752-1.064.256-.946.256-1.495c0-.541-.084-1.03-.251-1.464s-.413-.785-.747-1.039-.748-.386-1.249-.386c-.482 0-.887.122-1.214.366s-.575.579-.743 1.013-.25.935-.25 1.51zm10.579 4.013c-.696 0-1.306-.165-1.831-.496s-.93-.794-1.224-1.39-.436-1.291-.436-2.087c0-.802.145-1.503.436-2.101s.702-1.064 1.224-1.395 1.135-.496 1.831-.496 1.304.165 1.826.496a3.32 3.32 0 0 1 1.224 1.395c.294.598.441 1.299.441 2.101 0 .796-.147 1.492-.441 2.087s-.699 1.059-1.224 1.39-1.131.496-1.826.496zm0-1.063c.528 0 .963-.135 1.304-.406s.594-.627.758-1.069.245-.919.245-1.435a4.15 4.15 0 0 0-.245-1.439c-.164-.445-.417-.804-.758-1.079s-.776-.411-1.304-.411-.963.137-1.304.411-.594.634-.758 1.079-.246.924-.246 1.439.082.994.246 1.435.417.798.758 1.069.776.406 1.304.406zm10.154-2.247v-4.555h1.184v7.705h-1.184v-1.304h-.08c-.181.391-.462.724-.843.998s-.863.406-1.445.406c-.481 0-.909-.105-1.284-.316s-.669-.535-.883-.963-.321-.975-.321-1.63v-4.896h1.184v4.815c0 .562.157 1.01.472 1.345a1.6 1.6 0 0 0 1.214.501c.294 0 .593-.075.898-.225a1.96 1.96 0 0 0 .772-.692c.211-.311.316-.708.316-1.189zm4.536-1.485v4.635h-1.184v-7.705h1.144v1.204h.1c.181-.392.455-.706.823-.943s.843-.361 1.425-.361c.521 0 .978.107 1.369.321s.696.531.913.963.326.97.326 1.625v4.896h-1.184v-4.816c0-.605-.157-1.077-.471-1.414s-.746-.512-1.294-.512c-.378 0-.716.082-1.014.246s-.526.403-.697.717-.256.696-.256 1.144zm9.989 4.795c-.642 0-1.209-.162-1.701-.486s-.876-.789-1.153-1.385-.417-1.306-.417-2.122c0-.809.139-1.511.417-2.106s.663-1.056 1.158-1.38 1.067-.486 1.716-.486c.502 0 .898.083 1.189.25s.518.351.672.562l.366.512h.1v-3.792h1.184v10.273h-1.143v-1.184h-.141a7.88 7.88 0 0 1-.371.532c-.161.21-.39.399-.687.567-.298.163-.694.245-1.189.245zm.16-1.063c.475 0 .877-.124 1.204-.371s.577-.597.748-1.039.256-.958.256-1.54c0-.575-.084-1.078-.251-1.51s-.415-.772-.743-1.013-.732-.366-1.214-.366c-.501 0-.919.129-1.254.386s-.58.601-.747 1.039-.246.923-.246 1.464c0 .549.084 1.047.251 1.495s.421.799.752 1.064.749.391 1.244.391zm18.104-6.16h-1.244c-.073-.358-.202-.672-.386-.943s-.401-.498-.662-.682-.544-.328-.858-.422-.642-.14-.983-.14c-.622 0-1.186.157-1.691.471s-.901.778-1.199 1.39-.441 1.363-.441 2.252.147 1.641.441 2.253.698 1.075 1.199 1.389a3.14 3.14 0 0 0 1.691.472 3.41 3.41 0 0 0 .983-.141c.314-.094.6-.232.858-.416a2.67 2.67 0 0 0 .662-.687 2.63 2.63 0 0 0 .386-.944h1.244c-.093.525-.264.995-.511 1.41s-.556.768-.923 1.058-.781.507-1.24.658c-.454.15-.941.225-1.459.225-.876 0-1.656-.214-2.338-.642s-1.219-1.036-1.61-1.826-.587-1.725-.587-2.809.196-2.02.587-2.809.928-1.398 1.61-1.826 1.462-.642 2.338-.642c.518 0 1.005.075 1.459.226a3.97 3.97 0 0 1 1.24.662 3.82 3.82 0 0 1 .923 1.053 4.1 4.1 0 0 1 .511 1.41zm4.117 7.243c-.488 0-.931-.091-1.329-.275s-.714-.457-.948-.808-.351-.783-.351-1.284c0-.442.087-.799.261-1.074s.406-.495.697-.652.612-.274.963-.351l1.068-.191 1.139-.135c.294-.033.509-.089.642-.166s.206-.21.206-.401v-.04c0-.495-.136-.88-.406-1.154s-.674-.411-1.219-.411c-.566 0-1.009.124-1.33.371s-.546.512-.677.793l-1.124-.402c.201-.468.469-.832.803-1.093a3.02 3.02 0 0 1 1.104-.552 4.58 4.58 0 0 1 1.184-.16 4.7 4.7 0 0 1 .852.09 2.72 2.72 0 0 1 .938.356c.305.181.557.453.758.818s.301.852.301 1.464v5.077h-1.184v-1.044h-.06c-.081.168-.214.347-.402.537s-.436.353-.747.487-.691.2-1.139.2zm.181-1.063c.468 0 .863-.092 1.184-.276a1.88 1.88 0 0 0 .732-.712c.167-.291.251-.597.251-.918v-1.084c-.05.06-.161.116-.331.166s-.361.088-.582.125l-.637.091-.497.06c-.307.04-.595.105-.863.195s-.478.219-.642.397-.24.411-.24.712c0 .411.152.722.456.933s.697.311 1.169.311zm6.695-9.39v10.273h-1.183v-10.273h1.183zm3.353 0v10.273h-1.184v-10.273h1.184zm7.626 4.293l-1.064.301a1.96 1.96 0 0 0-.296-.516c-.127-.171-.301-.311-.522-.422s-.503-.165-.847-.165c-.472 0-.865.109-1.179.326s-.467.486-.467.818c0 .294.107.526.321.697s.549.313 1.004.426l1.143.281c.689.167 1.203.423 1.54.768s.507.78.507 1.319a1.96 1.96 0 0 1-.381 1.184c-.251.348-.602.622-1.054.822s-.976.301-1.575.301c-.786 0-1.436-.17-1.951-.511s-.841-.84-.978-1.495l1.123-.281c.107.415.31.726.607.933s.694.311 1.179.311c.552 0 .99-.117 1.314-.351s.492-.522.492-.853c0-.267-.094-.491-.281-.672s-.475-.321-.863-.411l-1.284-.301c-.705-.168-1.224-.427-1.555-.778s-.492-.798-.492-1.329c0-.435.123-.82.367-1.154s.583-.597 1.008-.788.913-.285 1.455-.285c.762 0 1.361.167 1.796.501s.749.776.933 1.324z" class="D"/></g></g></g><defs><filter id="A" x="42" y="57" width="1116" height="458.263" filterUnits="userSpaceOnUse" class="P"><feFlood flood-opacity="0" result="A"/><feColorMatrix in="SourceAlpha" values="0 0 0 0 0 0 0 0 0 0 0 0 0 0 0 0 0 0 127 0" result="B"/><feOffset dy="4"/><feGaussianBlur stdDeviation="2"/><feComposite in2="B" operator="out"/><feColorMatrix values="0 0 0 0 0 0 0 0 0 0 0 0 0 0 0 0 0 0 0.12 0"/><feBlend in2="A"/><feBlend in="SourceGraphic"/></filter><filter id="B" x="28" y="57" width="1144" height="498.263" filterUnits="userSpaceOnUse" class="P"><feFlood flood-opacity="0" result="A"/><feColorMatrix in="SourceAlpha" values="0 0 0 0 0 0 0 0 0 0 0 0 0 0 0 0 0 0 127 0" result="B"/><feOffset dy="30"/><feGaussianBlur stdDeviation="9"/><feComposite in2="B" operator="out"/><feColorMatrix values="0 0 0 0 0 0 0 0 0 0 0 0 0 0 0 0 0 0 0.5 0"/><feBlend in2="A"/><feBlend in="SourceGraphic"/></filter><clipPath id="C"><rect x="46" y="57" width="1108" height="450.263" rx="14" class="E"/></clipPath><clipPath id="D"><path transform="translate(895.38 87.018)" d="M0 0h75.487v15.892H0z" class="E"/></clipPath><clipPath id="E"><path transform="translate(1006.18 87.018)" d="M0 0h73.657v15.892H0z" class="E"/></clipPath><clipPath id="F"><path transform="translate(459.792 465.441)" d="M0 0h12.36v12.36H0z" class="E"/></clipPath><clipPath id="G"><path transform="translate(575.642 465.441)" d="M0 0h12.36v12.36H0z" class="E"/></clipPath><path id="H" d="M138.701 397.787H1077.19"/><path id="I" d="M472.152 471.622a6.18 6.18 0 0 1-6.18 6.18 6.18 6.18 0 0 1-6.18-6.18 6.18 6.18 0 0 1 6.18-6.181 6.18 6.18 0 0 1 6.18 6.181z"/></defs></svg>