<svg width="608" height="184" viewBox="0 0 608 184" fill="none" xmlns="http://www.w3.org/2000/svg">
<rect width="607.5" height="184" fill="white"/>
<rect width="559.5" height="136" transform="translate(24 24)" fill="white"/>
<g clip-path="url(#clip0_96_1012)">
<g clip-path="url(#clip1_96_1012)">
<path d="M39.8578 57.5583C48.6158 57.5583 55.7155 50.4585 55.7155 41.7005C55.7155 32.9425 48.6158 25.8428 39.8578 25.8428C31.0998 25.8428 24 32.9425 24 41.7005C24 50.4585 31.0998 57.5583 39.8578 57.5583Z" fill="#FF3333"/>
<mask id="mask0_96_1012" style="mask-type:luminance" maskUnits="userSpaceOnUse" x="30" y="31" width="20" height="21">
<path d="M49.735 31.6663H30.3232V51.078H49.735V31.6663Z" fill="white"/>
</mask>
<g mask="url(#mask0_96_1012)">
<path d="M46.7851 34.6164C45.8996 33.722 44.846 33.0115 43.685 32.5255C42.5239 32.0396 41.2783 31.7878 40.0196 31.7847C38.761 31.7816 37.5142 32.0272 36.3507 32.5074C35.1873 32.9877 34.1302 33.693 33.2403 34.583C32.3503 35.473 31.6449 36.5301 31.1647 37.6935C30.6844 38.857 30.4388 40.1038 30.4419 41.3624C30.445 42.621 30.6968 43.8667 31.1827 45.0277C31.6687 46.1888 32.3792 47.2424 33.2736 48.1279C34.1592 49.0223 35.2128 49.7329 36.3738 50.2188C37.5348 50.7047 38.7805 50.9565 40.0391 50.9596C41.2977 50.9627 42.5446 50.7171 43.708 50.2368C44.8714 49.7567 45.9285 49.0512 46.8185 48.1612C47.7084 47.2713 48.4139 46.2142 48.8941 45.0508C49.3743 43.8873 49.6199 42.6405 49.6168 41.3819C49.6137 40.1233 49.3619 38.8776 48.8761 37.7166C48.3901 36.5556 47.6795 35.5019 46.7851 34.6164ZM43.1004 39.3248C43.3028 39.3248 43.5008 39.3849 43.6691 39.4974C43.8374 39.6099 43.9687 39.7697 44.0461 39.9567C44.1236 40.1438 44.1439 40.3496 44.1044 40.5482C44.0649 40.7468 43.9674 40.9292 43.8242 41.0723C43.6811 41.2155 43.4986 41.3129 43.3001 41.3524C43.1015 41.3919 42.8957 41.3717 42.7087 41.2942C42.5216 41.2168 42.3617 41.0855 42.2493 40.9172C42.1368 40.7488 42.0767 40.5509 42.0767 40.3485C42.0764 40.2139 42.1026 40.0807 42.154 39.9564C42.2053 39.832 42.2806 39.719 42.3757 39.6239C42.4709 39.5288 42.5839 39.4534 42.7083 39.402C42.8326 39.3507 42.9659 39.3245 43.1004 39.3248ZM36.9584 39.3248C37.1609 39.3248 37.3588 39.3849 37.5271 39.4974C37.6955 39.6099 37.8266 39.7697 37.9041 39.9567C37.9816 40.1438 38.0019 40.3496 37.9624 40.5482C37.9229 40.7468 37.8253 40.9292 37.6822 41.0723C37.539 41.2155 37.3566 41.3129 37.1581 41.3524C36.9595 41.3919 36.7537 41.3717 36.5667 41.2942C36.3795 41.2168 36.2197 41.0855 36.1072 40.9172C35.9947 40.7488 35.9347 40.5509 35.9347 40.3485C35.9343 40.2139 35.9606 40.0807 36.012 39.9564C36.0632 39.832 36.1386 39.719 36.2338 39.6239C36.3289 39.5288 36.4419 39.4534 36.5662 39.402C36.6906 39.3507 36.8239 39.3245 36.9584 39.3248ZM40.0293 42.7371C41.9666 42.7371 43.6016 43.9949 44.1121 45.7155C44.1547 45.8656 44.2115 46.1493 44.2115 46.1493H35.8494C35.8494 46.1493 35.9053 45.8639 35.9488 45.7155C36.4513 43.994 38.0899 42.7371 40.0293 42.7371Z" fill="white"/>
</g>
</g>
</g>
<path d="M75.8115 30.0469V40H74.4854L69.4746 32.3232V40H68.1553V30.0469H69.4746L74.5059 37.7441V30.0469H75.8115ZM81.3273 40.1367C80.8124 40.1367 80.3452 40.0501 79.926 39.877C79.5113 39.6992 79.1535 39.4508 78.8527 39.1318C78.5565 38.8128 78.3286 38.4346 78.1691 37.9971C78.0096 37.5596 77.9299 37.0811 77.9299 36.5615V36.2744C77.9299 35.6729 78.0188 35.1374 78.1965 34.668C78.3742 34.194 78.6158 33.793 78.9211 33.4648C79.2264 33.1367 79.5728 32.8883 79.9602 32.7197C80.3475 32.5511 80.7486 32.4668 81.1633 32.4668C81.6919 32.4668 82.1477 32.5579 82.5305 32.7402C82.9178 32.9225 83.2346 33.1777 83.4807 33.5059C83.7268 33.8294 83.909 34.2122 84.0275 34.6543C84.146 35.0918 84.2053 35.5703 84.2053 36.0898V36.6572H78.6818V35.625H82.9406V35.5293C82.9224 35.2012 82.854 34.8822 82.7355 34.5723C82.6216 34.2624 82.4393 34.0072 82.1887 33.8066C81.938 33.6061 81.5962 33.5059 81.1633 33.5059C80.8762 33.5059 80.6118 33.5674 80.3703 33.6904C80.1288 33.8089 79.9214 33.9867 79.7482 34.2236C79.5751 34.4606 79.4406 34.75 79.3449 35.0918C79.2492 35.4336 79.2014 35.8278 79.2014 36.2744V36.5615C79.2014 36.9124 79.2492 37.2428 79.3449 37.5527C79.4452 37.8581 79.5887 38.127 79.7756 38.3594C79.967 38.5918 80.1971 38.7741 80.466 38.9062C80.7395 39.0384 81.0493 39.1045 81.3957 39.1045C81.8423 39.1045 82.2206 39.0133 82.5305 38.8311C82.8404 38.6488 83.1115 38.4049 83.3439 38.0996L84.1096 38.708C83.9501 38.9495 83.7473 39.1797 83.5012 39.3984C83.2551 39.6172 82.952 39.7949 82.592 39.9316C82.2365 40.0684 81.815 40.1367 81.3273 40.1367ZM90.7738 32.6035H91.9223V39.8428C91.9223 40.4945 91.7901 41.0505 91.5258 41.5107C91.2615 41.971 90.8923 42.3197 90.4184 42.5566C89.949 42.7982 89.4066 42.9189 88.7914 42.9189C88.5362 42.9189 88.2354 42.8779 87.8891 42.7959C87.5473 42.7184 87.21 42.584 86.8773 42.3926C86.5492 42.2057 86.2735 41.9528 86.0502 41.6338L86.7133 40.8818C87.0232 41.2555 87.3467 41.5153 87.684 41.6611C88.0258 41.807 88.363 41.8799 88.6957 41.8799C89.0967 41.8799 89.4431 41.8047 89.7348 41.6543C90.0264 41.5039 90.252 41.2806 90.4115 40.9844C90.5756 40.6927 90.6576 40.3327 90.6576 39.9043V34.2305L90.7738 32.6035ZM85.6811 36.3838V36.2402C85.6811 35.6751 85.7471 35.1624 85.8793 34.7021C86.016 34.2373 86.2097 33.8385 86.4604 33.5059C86.7156 33.1732 87.0232 32.918 87.3832 32.7402C87.7432 32.5579 88.1488 32.4668 88.6 32.4668C89.0648 32.4668 89.4704 32.5488 89.8168 32.7129C90.1677 32.8724 90.4639 33.1071 90.7055 33.417C90.9516 33.7223 91.1452 34.0915 91.2865 34.5244C91.4278 34.9574 91.5258 35.4473 91.5805 35.9941V36.623C91.5303 37.1654 91.4324 37.653 91.2865 38.0859C91.1452 38.5189 90.9516 38.888 90.7055 39.1934C90.4639 39.4987 90.1677 39.7334 89.8168 39.8975C89.4659 40.057 89.0557 40.1367 88.5863 40.1367C88.1443 40.1367 87.7432 40.0433 87.3832 39.8564C87.0277 39.6696 86.7224 39.4076 86.4672 39.0703C86.212 38.7331 86.016 38.3366 85.8793 37.8809C85.7471 37.4206 85.6811 36.9215 85.6811 36.3838ZM86.9457 36.2402V36.3838C86.9457 36.7529 86.9822 37.0993 87.0551 37.4229C87.1326 37.7464 87.2488 38.0312 87.4037 38.2773C87.5632 38.5234 87.766 38.7171 88.0121 38.8584C88.2582 38.9951 88.5521 39.0635 88.8939 39.0635C89.3132 39.0635 89.6596 38.9746 89.933 38.7969C90.2064 38.6191 90.4229 38.3844 90.5824 38.0928C90.7465 37.8011 90.8741 37.4844 90.9652 37.1426V35.4951C90.9151 35.2445 90.8376 35.0029 90.7328 34.7705C90.6326 34.5335 90.5004 34.3239 90.3363 34.1416C90.1768 33.9548 89.9786 33.8066 89.7416 33.6973C89.5046 33.5879 89.2266 33.5332 88.9076 33.5332C88.5613 33.5332 88.2628 33.6061 88.0121 33.752C87.766 33.8932 87.5632 34.0892 87.4037 34.3398C87.2488 34.5859 87.1326 34.873 87.0551 35.2012C86.9822 35.5247 86.9457 35.8711 86.9457 36.2402ZM98.5045 38.7354V34.9277C98.5045 34.6361 98.4452 34.3831 98.3268 34.1689C98.2128 33.9502 98.0396 33.7816 97.8072 33.6631C97.5748 33.5446 97.2877 33.4854 96.9459 33.4854C96.6269 33.4854 96.3466 33.54 96.1051 33.6494C95.8681 33.7588 95.6812 33.9023 95.5445 34.0801C95.4124 34.2578 95.3463 34.4492 95.3463 34.6543H94.0816C94.0816 34.39 94.15 34.1279 94.2867 33.8682C94.4234 33.6084 94.6194 33.3737 94.8746 33.1641C95.1344 32.9499 95.4443 32.7812 95.8043 32.6582C96.1689 32.5306 96.5745 32.4668 97.0211 32.4668C97.5589 32.4668 98.0328 32.5579 98.443 32.7402C98.8577 32.9225 99.1812 33.1982 99.4137 33.5674C99.6507 33.932 99.7691 34.39 99.7691 34.9414V38.3867C99.7691 38.6328 99.7896 38.8949 99.8307 39.1729C99.8762 39.4508 99.9423 39.6901 100.029 39.8906V40H98.7096C98.6458 39.8542 98.5956 39.6605 98.5592 39.4189C98.5227 39.1729 98.5045 38.945 98.5045 38.7354ZM98.7232 35.5156L98.7369 36.4043H97.4586C97.0986 36.4043 96.7773 36.4339 96.4947 36.4932C96.2122 36.5479 95.9752 36.6322 95.7838 36.7461C95.5924 36.86 95.4465 37.0036 95.3463 37.1768C95.246 37.3454 95.1959 37.5436 95.1959 37.7715C95.1959 38.0039 95.2483 38.2158 95.3531 38.4072C95.4579 38.5986 95.6152 38.7513 95.8248 38.8652C96.039 38.9746 96.301 39.0293 96.6109 39.0293C96.9983 39.0293 97.3401 38.9473 97.6363 38.7832C97.9326 38.6191 98.1673 38.4186 98.3404 38.1816C98.5182 37.9447 98.6139 37.7145 98.6275 37.4912L99.1676 38.0996C99.1357 38.291 99.0491 38.5029 98.9078 38.7354C98.7665 38.9678 98.5774 39.1911 98.3404 39.4053C98.108 39.6149 97.83 39.7904 97.5064 39.9316C97.1874 40.0684 96.8274 40.1367 96.4264 40.1367C95.9251 40.1367 95.4853 40.0387 95.107 39.8428C94.7333 39.6468 94.4417 39.3848 94.232 39.0566C94.027 38.724 93.9244 38.3525 93.9244 37.9424C93.9244 37.5459 94.0019 37.1973 94.1568 36.8965C94.3118 36.5911 94.5351 36.3382 94.8268 36.1377C95.1184 35.9326 95.4693 35.7777 95.8795 35.6729C96.2896 35.568 96.7477 35.5156 97.2535 35.5156H98.7232ZM105.155 32.6035V33.5742H101.156V32.6035H105.155ZM102.51 30.8057H103.774V38.168C103.774 38.4186 103.813 38.6077 103.89 38.7354C103.968 38.863 104.068 38.9473 104.191 38.9883C104.314 39.0293 104.446 39.0498 104.588 39.0498C104.693 39.0498 104.802 39.0407 104.916 39.0225C105.034 38.9997 105.123 38.9814 105.182 38.9678L105.189 40C105.089 40.0319 104.957 40.0615 104.793 40.0889C104.633 40.1208 104.44 40.1367 104.212 40.1367C103.902 40.1367 103.617 40.0752 103.357 39.9521C103.097 39.8291 102.89 39.624 102.735 39.3369C102.585 39.0452 102.51 38.6533 102.51 38.1611V30.8057ZM108.312 32.6035V40H107.041V32.6035H108.312ZM106.945 30.6416C106.945 30.4365 107.007 30.2633 107.13 30.1221C107.257 29.9808 107.444 29.9102 107.69 29.9102C107.932 29.9102 108.117 29.9808 108.244 30.1221C108.376 30.2633 108.442 30.4365 108.442 30.6416C108.442 30.8376 108.376 31.0062 108.244 31.1475C108.117 31.2842 107.932 31.3525 107.69 31.3525C107.444 31.3525 107.257 31.2842 107.13 31.1475C107.007 31.0062 106.945 30.8376 106.945 30.6416ZM112.892 38.8584L114.915 32.6035H116.207L113.548 40H112.7L112.892 38.8584ZM111.203 32.6035L113.288 38.8926L113.432 40H112.584L109.904 32.6035H111.203ZM120.698 40.1367C120.183 40.1367 119.716 40.0501 119.296 39.877C118.882 39.6992 118.524 39.4508 118.223 39.1318C117.927 38.8128 117.699 38.4346 117.539 37.9971C117.38 37.5596 117.3 37.0811 117.3 36.5615V36.2744C117.3 35.6729 117.389 35.1374 117.567 34.668C117.745 34.194 117.986 33.793 118.291 33.4648C118.597 33.1367 118.943 32.8883 119.33 32.7197C119.718 32.5511 120.119 32.4668 120.534 32.4668C121.062 32.4668 121.518 32.5579 121.901 32.7402C122.288 32.9225 122.605 33.1777 122.851 33.5059C123.097 33.8294 123.279 34.2122 123.398 34.6543C123.516 35.0918 123.576 35.5703 123.576 36.0898V36.6572H118.052V35.625H122.311V35.5293C122.293 35.2012 122.224 34.8822 122.106 34.5723C121.992 34.2624 121.81 34.0072 121.559 33.8066C121.308 33.6061 120.967 33.5059 120.534 33.5059C120.246 33.5059 119.982 33.5674 119.741 33.6904C119.499 33.8089 119.292 33.9867 119.119 34.2236C118.945 34.4606 118.811 34.75 118.715 35.0918C118.62 35.4336 118.572 35.8278 118.572 36.2744V36.5615C118.572 36.9124 118.62 37.2428 118.715 37.5527C118.815 37.8581 118.959 38.127 119.146 38.3594C119.337 38.5918 119.567 38.7741 119.836 38.9062C120.11 39.0384 120.42 39.1045 120.766 39.1045C121.213 39.1045 121.591 39.0133 121.901 38.8311C122.211 38.6488 122.482 38.4049 122.714 38.0996L123.48 38.708C123.32 38.9495 123.118 39.1797 122.871 39.3984C122.625 39.6172 122.322 39.7949 121.962 39.9316C121.607 40.0684 121.185 40.1367 120.698 40.1367ZM134.621 37.4844C134.621 37.252 134.584 37.0469 134.512 36.8691C134.443 36.6868 134.32 36.5228 134.142 36.377C133.969 36.2311 133.728 36.0921 133.418 35.96C133.112 35.8278 132.725 35.6934 132.256 35.5566C131.763 35.4108 131.319 35.249 130.923 35.0713C130.526 34.889 130.187 34.6816 129.904 34.4492C129.622 34.2168 129.405 33.9502 129.255 33.6494C129.104 33.3486 129.029 33.0046 129.029 32.6172C129.029 32.2298 129.109 31.8721 129.268 31.5439C129.428 31.2158 129.656 30.931 129.952 30.6895C130.253 30.4434 130.61 30.252 131.025 30.1152C131.44 29.9785 131.902 29.9102 132.413 29.9102C133.16 29.9102 133.794 30.0537 134.313 30.3408C134.837 30.6234 135.236 30.9948 135.51 31.4551C135.783 31.9108 135.92 32.3984 135.92 32.918H134.607C134.607 32.5443 134.527 32.2139 134.368 31.9268C134.208 31.6351 133.967 31.4072 133.643 31.2432C133.32 31.0745 132.91 30.9902 132.413 30.9902C131.943 30.9902 131.556 31.0609 131.251 31.2021C130.945 31.3434 130.718 31.5348 130.567 31.7764C130.421 32.0179 130.348 32.2936 130.348 32.6035C130.348 32.8132 130.392 33.0046 130.478 33.1777C130.569 33.3464 130.708 33.5036 130.895 33.6494C131.087 33.7952 131.328 33.9297 131.62 34.0527C131.916 34.1758 132.269 34.2943 132.679 34.4082C133.245 34.5677 133.732 34.7454 134.142 34.9414C134.553 35.1374 134.89 35.3584 135.154 35.6045C135.423 35.846 135.621 36.1217 135.749 36.4316C135.881 36.737 135.947 37.0833 135.947 37.4707C135.947 37.8763 135.865 38.2432 135.701 38.5713C135.537 38.8994 135.302 39.1797 134.997 39.4121C134.692 39.6445 134.325 39.8245 133.896 39.9521C133.472 40.0752 132.999 40.1367 132.474 40.1367C132.014 40.1367 131.561 40.0729 131.114 39.9453C130.672 39.8177 130.269 39.6263 129.904 39.3711C129.544 39.1159 129.255 38.8014 129.036 38.4277C128.822 38.0495 128.715 37.612 128.715 37.1152H130.027C130.027 37.457 130.093 37.751 130.225 37.9971C130.358 38.2386 130.538 38.4391 130.765 38.5986C130.998 38.7581 131.26 38.8766 131.552 38.9541C131.848 39.027 132.155 39.0635 132.474 39.0635C132.935 39.0635 133.324 38.9997 133.643 38.8721C133.962 38.7445 134.204 38.5622 134.368 38.3252C134.537 38.0882 134.621 37.8079 134.621 37.4844ZM140.807 40.1367C140.292 40.1367 139.825 40.0501 139.405 39.877C138.991 39.6992 138.633 39.4508 138.332 39.1318C138.036 38.8128 137.808 38.4346 137.648 37.9971C137.489 37.5596 137.409 37.0811 137.409 36.5615V36.2744C137.409 35.6729 137.498 35.1374 137.676 34.668C137.854 34.194 138.095 33.793 138.4 33.4648C138.706 33.1367 139.052 32.8883 139.439 32.7197C139.827 32.5511 140.228 32.4668 140.643 32.4668C141.171 32.4668 141.627 32.5579 142.01 32.7402C142.397 32.9225 142.714 33.1777 142.96 33.5059C143.206 33.8294 143.388 34.2122 143.507 34.6543C143.625 35.0918 143.685 35.5703 143.685 36.0898V36.6572H138.161V35.625H142.42V35.5293C142.402 35.2012 142.333 34.8822 142.215 34.5723C142.101 34.2624 141.919 34.0072 141.668 33.8066C141.417 33.6061 141.076 33.5059 140.643 33.5059C140.355 33.5059 140.091 33.5674 139.85 33.6904C139.608 33.8089 139.401 33.9867 139.228 34.2236C139.054 34.4606 138.92 34.75 138.824 35.0918C138.729 35.4336 138.681 35.8278 138.681 36.2744V36.5615C138.681 36.9124 138.729 37.2428 138.824 37.5527C138.924 37.8581 139.068 38.127 139.255 38.3594C139.446 38.5918 139.676 38.7741 139.945 38.9062C140.219 39.0384 140.529 39.1045 140.875 39.1045C141.322 39.1045 141.7 39.0133 142.01 38.8311C142.32 38.6488 142.591 38.4049 142.823 38.0996L143.589 38.708C143.429 38.9495 143.227 39.1797 142.98 39.3984C142.734 39.6172 142.431 39.7949 142.071 39.9316C141.716 40.0684 141.294 40.1367 140.807 40.1367ZM146.726 34.1826V40H145.461V32.6035H146.657L146.726 34.1826ZM146.425 36.0215L145.899 36.001C145.903 35.4951 145.978 35.028 146.124 34.5996C146.27 34.1667 146.475 33.7907 146.739 33.4717C147.004 33.1527 147.318 32.9066 147.683 32.7334C148.052 32.5557 148.46 32.4668 148.906 32.4668C149.271 32.4668 149.599 32.5169 149.891 32.6172C150.182 32.7129 150.431 32.8678 150.636 33.082C150.846 33.2962 151.005 33.5742 151.114 33.916C151.224 34.2533 151.279 34.6657 151.279 35.1533V40H150.007V35.1396C150.007 34.7523 149.95 34.4424 149.836 34.21C149.722 33.973 149.556 33.8021 149.337 33.6973C149.118 33.5879 148.849 33.5332 148.53 33.5332C148.216 33.5332 147.929 33.5993 147.669 33.7314C147.414 33.8636 147.193 34.0459 147.006 34.2783C146.824 34.5107 146.68 34.7773 146.575 35.0781C146.475 35.3743 146.425 35.6888 146.425 36.0215ZM156.596 32.6035V33.5742H152.597V32.6035H156.596ZM153.951 30.8057H155.215V38.168C155.215 38.4186 155.254 38.6077 155.331 38.7354C155.409 38.863 155.509 38.9473 155.632 38.9883C155.755 39.0293 155.887 39.0498 156.029 39.0498C156.134 39.0498 156.243 39.0407 156.357 39.0225C156.475 38.9997 156.564 38.9814 156.623 38.9678L156.63 40C156.53 40.0319 156.398 40.0615 156.234 40.0889C156.074 40.1208 155.881 40.1367 155.653 40.1367C155.343 40.1367 155.058 40.0752 154.798 39.9521C154.538 39.8291 154.331 39.624 154.176 39.3369C154.026 39.0452 153.951 38.6533 153.951 38.1611V30.8057ZM159.754 32.6035V40H158.482V32.6035H159.754ZM158.386 30.6416C158.386 30.4365 158.448 30.2633 158.571 30.1221C158.699 29.9808 158.885 29.9102 159.131 29.9102C159.373 29.9102 159.558 29.9808 159.685 30.1221C159.817 30.2633 159.883 30.4365 159.883 30.6416C159.883 30.8376 159.817 31.0062 159.685 31.1475C159.558 31.2842 159.373 31.3525 159.131 31.3525C158.885 31.3525 158.699 31.2842 158.571 31.1475C158.448 31.0062 158.386 30.8376 158.386 30.6416ZM163.342 34.0732V40H162.07V32.6035H163.273L163.342 34.0732ZM163.082 36.0215L162.494 36.001C162.498 35.4951 162.565 35.028 162.692 34.5996C162.82 34.1667 163.009 33.7907 163.26 33.4717C163.51 33.1527 163.822 32.9066 164.196 32.7334C164.57 32.5557 165.003 32.4668 165.495 32.4668C165.841 32.4668 166.16 32.5169 166.452 32.6172C166.744 32.7129 166.997 32.8656 167.211 33.0752C167.425 33.2848 167.591 33.5537 167.71 33.8818C167.828 34.21 167.887 34.6064 167.887 35.0713V40H166.623V35.1328C166.623 34.7454 166.557 34.4355 166.425 34.2031C166.297 33.9707 166.115 33.8021 165.878 33.6973C165.641 33.5879 165.363 33.5332 165.044 33.5332C164.67 33.5332 164.358 33.5993 164.107 33.7314C163.857 33.8636 163.656 34.0459 163.506 34.2783C163.355 34.5107 163.246 34.7773 163.178 35.0781C163.114 35.3743 163.082 35.6888 163.082 36.0215ZM167.874 35.3242L167.026 35.584C167.031 35.1784 167.097 34.7887 167.224 34.415C167.357 34.0413 167.546 33.7087 167.792 33.417C168.042 33.1253 168.35 32.8952 168.715 32.7266C169.079 32.5534 169.496 32.4668 169.966 32.4668C170.362 32.4668 170.713 32.5192 171.018 32.624C171.328 32.7288 171.588 32.8906 171.798 33.1094C172.012 33.3236 172.174 33.5993 172.283 33.9365C172.392 34.2738 172.447 34.6748 172.447 35.1396V40H171.176V35.126C171.176 34.7113 171.11 34.39 170.977 34.1621C170.85 33.9297 170.667 33.7679 170.43 33.6768C170.198 33.5811 169.92 33.5332 169.596 33.5332C169.318 33.5332 169.072 33.5811 168.858 33.6768C168.644 33.7725 168.464 33.9046 168.318 34.0732C168.172 34.2373 168.061 34.4264 167.983 34.6406C167.91 34.8548 167.874 35.0827 167.874 35.3242ZM177.73 40.1367C177.215 40.1367 176.748 40.0501 176.329 39.877C175.914 39.6992 175.557 39.4508 175.256 39.1318C174.96 38.8128 174.732 38.4346 174.572 37.9971C174.413 37.5596 174.333 37.0811 174.333 36.5615V36.2744C174.333 35.6729 174.422 35.1374 174.6 34.668C174.777 34.194 175.019 33.793 175.324 33.4648C175.63 33.1367 175.976 32.8883 176.363 32.7197C176.751 32.5511 177.152 32.4668 177.566 32.4668C178.095 32.4668 178.551 32.5579 178.934 32.7402C179.321 32.9225 179.638 33.1777 179.884 33.5059C180.13 33.8294 180.312 34.2122 180.431 34.6543C180.549 35.0918 180.608 35.5703 180.608 36.0898V36.6572H175.085V35.625H179.344V35.5293C179.326 35.2012 179.257 34.8822 179.139 34.5723C179.025 34.2624 178.842 34.0072 178.592 33.8066C178.341 33.6061 177.999 33.5059 177.566 33.5059C177.279 33.5059 177.015 33.5674 176.773 33.6904C176.532 33.8089 176.325 33.9867 176.151 34.2236C175.978 34.4606 175.844 34.75 175.748 35.0918C175.652 35.4336 175.604 35.8278 175.604 36.2744V36.5615C175.604 36.9124 175.652 37.2428 175.748 37.5527C175.848 37.8581 175.992 38.127 176.179 38.3594C176.37 38.5918 176.6 38.7741 176.869 38.9062C177.143 39.0384 177.452 39.1045 177.799 39.1045C178.245 39.1045 178.624 39.0133 178.934 38.8311C179.243 38.6488 179.515 38.4049 179.747 38.0996L180.513 38.708C180.353 38.9495 180.15 39.1797 179.904 39.3984C179.658 39.6172 179.355 39.7949 178.995 39.9316C178.64 40.0684 178.218 40.1367 177.73 40.1367ZM183.65 34.1826V40H182.385V32.6035H183.581L183.65 34.1826ZM183.349 36.0215L182.822 36.001C182.827 35.4951 182.902 35.028 183.048 34.5996C183.194 34.1667 183.399 33.7907 183.663 33.4717C183.928 33.1527 184.242 32.9066 184.607 32.7334C184.976 32.5557 185.384 32.4668 185.83 32.4668C186.195 32.4668 186.523 32.5169 186.815 32.6172C187.106 32.7129 187.355 32.8678 187.56 33.082C187.769 33.2962 187.929 33.5742 188.038 33.916C188.148 34.2533 188.202 34.6657 188.202 35.1533V40H186.931V35.1396C186.931 34.7523 186.874 34.4424 186.76 34.21C186.646 33.973 186.48 33.8021 186.261 33.6973C186.042 33.5879 185.773 33.5332 185.454 33.5332C185.14 33.5332 184.853 33.5993 184.593 33.7314C184.338 33.8636 184.117 34.0459 183.93 34.2783C183.748 34.5107 183.604 34.7773 183.499 35.0781C183.399 35.3743 183.349 35.6888 183.349 36.0215ZM193.52 32.6035V33.5742H189.521V32.6035H193.52ZM190.874 30.8057H192.139V38.168C192.139 38.4186 192.178 38.6077 192.255 38.7354C192.333 38.863 192.433 38.9473 192.556 38.9883C192.679 39.0293 192.811 39.0498 192.953 39.0498C193.057 39.0498 193.167 39.0407 193.281 39.0225C193.399 38.9997 193.488 38.9814 193.547 38.9678L193.554 40C193.454 40.0319 193.322 40.0615 193.158 40.0889C192.998 40.1208 192.804 40.1367 192.577 40.1367C192.267 40.1367 191.982 40.0752 191.722 39.9521C191.462 39.8291 191.255 39.624 191.1 39.3369C190.95 39.0452 190.874 38.6533 190.874 38.1611V30.8057ZM199.61 38.0381C199.61 37.8558 199.569 37.6872 199.487 37.5322C199.409 37.3727 199.248 37.2292 199.002 37.1016C198.76 36.9694 198.395 36.8555 197.908 36.7598C197.498 36.6732 197.126 36.5706 196.794 36.4521C196.465 36.3337 196.185 36.1901 195.953 36.0215C195.725 35.8529 195.549 35.6546 195.426 35.4268C195.303 35.1989 195.242 34.9323 195.242 34.627C195.242 34.3353 195.306 34.0596 195.433 33.7998C195.565 33.54 195.75 33.3099 195.987 33.1094C196.228 32.9089 196.518 32.7516 196.855 32.6377C197.192 32.5238 197.568 32.4668 197.983 32.4668C198.575 32.4668 199.081 32.5716 199.501 32.7812C199.92 32.9909 200.241 33.2712 200.464 33.6221C200.688 33.9684 200.799 34.3535 200.799 34.7773H199.535C199.535 34.5723 199.473 34.374 199.35 34.1826C199.232 33.9867 199.056 33.8249 198.824 33.6973C198.596 33.5697 198.316 33.5059 197.983 33.5059C197.632 33.5059 197.347 33.5605 197.129 33.6699C196.914 33.7747 196.757 33.9092 196.657 34.0732C196.561 34.2373 196.513 34.4105 196.513 34.5928C196.513 34.7295 196.536 34.8525 196.582 34.9619C196.632 35.0667 196.718 35.1647 196.841 35.2559C196.964 35.3424 197.138 35.4245 197.361 35.502C197.584 35.5794 197.869 35.6569 198.215 35.7344C198.822 35.8711 199.321 36.0352 199.713 36.2266C200.104 36.418 200.396 36.6527 200.588 36.9307C200.779 37.2087 200.875 37.5459 200.875 37.9424C200.875 38.266 200.806 38.5622 200.67 38.8311C200.537 39.0999 200.344 39.3324 200.088 39.5283C199.838 39.7197 199.537 39.8701 199.186 39.9795C198.84 40.0843 198.45 40.1367 198.017 40.1367C197.365 40.1367 196.814 40.0205 196.363 39.7881C195.912 39.5557 195.57 39.2549 195.338 38.8857C195.105 38.5166 194.989 38.127 194.989 37.7168H196.26C196.279 38.0632 196.379 38.3389 196.561 38.5439C196.743 38.7445 196.967 38.888 197.231 38.9746C197.495 39.0566 197.757 39.0977 198.017 39.0977C198.364 39.0977 198.653 39.0521 198.885 38.9609C199.122 38.8698 199.302 38.7445 199.425 38.585C199.548 38.4255 199.61 38.2432 199.61 38.0381Z" fill="#0A0A0A"/>
<path d="M561.483 47.9922V58H560.219V49.5713L557.669 50.501V49.3594L561.285 47.9922H561.483ZM571.75 52.2305V53.748C571.75 54.5638 571.677 55.252 571.531 55.8125C571.386 56.373 571.176 56.8242 570.903 57.166C570.629 57.5078 570.299 57.7562 569.911 57.9111C569.529 58.0615 569.096 58.1367 568.613 58.1367C568.23 58.1367 567.876 58.0889 567.553 57.9932C567.229 57.8975 566.938 57.7448 566.678 57.5352C566.423 57.321 566.204 57.043 566.022 56.7012C565.839 56.3594 565.7 55.9447 565.605 55.457C565.509 54.9694 565.461 54.3997 565.461 53.748V52.2305C565.461 51.4147 565.534 50.7311 565.68 50.1797C565.83 49.6283 566.042 49.1862 566.316 48.8535C566.589 48.5163 566.917 48.2747 567.3 48.1289C567.687 47.9831 568.12 47.9102 568.599 47.9102C568.986 47.9102 569.342 47.958 569.665 48.0537C569.993 48.1449 570.285 48.293 570.54 48.498C570.795 48.6986 571.012 48.9674 571.19 49.3047C571.372 49.6374 571.511 50.0452 571.607 50.5283C571.702 51.0114 571.75 51.5788 571.75 52.2305ZM570.479 53.9531V52.0186C570.479 51.5719 570.451 51.18 570.397 50.8428C570.347 50.501 570.271 50.2093 570.171 49.9678C570.071 49.7262 569.943 49.5303 569.788 49.3799C569.638 49.2295 569.462 49.1201 569.262 49.0518C569.066 48.9788 568.845 48.9424 568.599 48.9424C568.298 48.9424 568.031 48.9993 567.799 49.1133C567.567 49.2227 567.371 49.3981 567.211 49.6396C567.056 49.8812 566.938 50.1979 566.856 50.5898C566.774 50.9818 566.733 51.458 566.733 52.0186V53.9531C566.733 54.3997 566.758 54.7939 566.808 55.1357C566.863 55.4775 566.942 55.7738 567.047 56.0244C567.152 56.2705 567.279 56.4733 567.43 56.6328C567.58 56.7923 567.753 56.9108 567.949 56.9883C568.15 57.0612 568.371 57.0977 568.613 57.0977C568.922 57.0977 569.194 57.0384 569.426 56.9199C569.658 56.8014 569.852 56.6169 570.007 56.3662C570.167 56.111 570.285 55.7852 570.363 55.3887C570.44 54.9876 570.479 54.5091 570.479 53.9531ZM573.568 50.4873V49.9609C573.568 49.5827 573.65 49.2386 573.814 48.9287C573.978 48.6188 574.213 48.3704 574.518 48.1836C574.823 47.9967 575.186 47.9033 575.605 47.9033C576.033 47.9033 576.398 47.9967 576.699 48.1836C577.004 48.3704 577.239 48.6188 577.403 48.9287C577.567 49.2386 577.649 49.5827 577.649 49.9609V50.4873C577.649 50.8564 577.567 51.196 577.403 51.5059C577.243 51.8158 577.011 52.0641 576.705 52.251C576.405 52.4378 576.042 52.5312 575.619 52.5312C575.195 52.5312 574.828 52.4378 574.518 52.251C574.213 52.0641 573.978 51.8158 573.814 51.5059C573.65 51.196 573.568 50.8564 573.568 50.4873ZM574.518 49.9609V50.4873C574.518 50.6969 574.557 50.8952 574.634 51.082C574.716 51.2689 574.839 51.4215 575.003 51.54C575.167 51.654 575.372 51.7109 575.619 51.7109C575.865 51.7109 576.067 51.654 576.227 51.54C576.386 51.4215 576.505 51.2689 576.582 51.082C576.66 50.8952 576.699 50.6969 576.699 50.4873V49.9609C576.699 49.7467 576.658 49.5462 576.576 49.3594C576.498 49.168 576.377 49.0153 576.213 48.9014C576.054 48.7829 575.851 48.7236 575.605 48.7236C575.363 48.7236 575.161 48.7829 574.996 48.9014C574.837 49.0153 574.716 49.168 574.634 49.3594C574.557 49.5462 574.518 49.7467 574.518 49.9609ZM578.414 56.0928V55.5596C578.414 55.1859 578.496 54.8441 578.661 54.5342C578.825 54.2243 579.059 53.9759 579.365 53.7891C579.67 53.6022 580.032 53.5088 580.452 53.5088C580.88 53.5088 581.245 53.6022 581.545 53.7891C581.851 53.9759 582.085 54.2243 582.249 54.5342C582.413 54.8441 582.496 55.1859 582.496 55.5596V56.0928C582.496 56.4665 582.413 56.8083 582.249 57.1182C582.09 57.4281 581.857 57.6764 581.552 57.8633C581.251 58.0501 580.889 58.1436 580.465 58.1436C580.041 58.1436 579.677 58.0501 579.371 57.8633C579.066 57.6764 578.829 57.4281 578.661 57.1182C578.496 56.8083 578.414 56.4665 578.414 56.0928ZM579.365 55.5596V56.0928C579.365 56.3024 579.403 56.5029 579.481 56.6943C579.563 56.8812 579.686 57.0339 579.85 57.1523C580.014 57.2663 580.219 57.3232 580.465 57.3232C580.711 57.3232 580.914 57.2663 581.074 57.1523C581.238 57.0339 581.358 56.8812 581.436 56.6943C581.513 56.5075 581.552 56.307 581.552 56.0928V55.5596C581.552 55.3454 581.511 55.1449 581.429 54.958C581.352 54.7712 581.231 54.6208 581.067 54.5068C580.907 54.3883 580.702 54.3291 580.452 54.3291C580.21 54.3291 580.007 54.3883 579.843 54.5068C579.684 54.6208 579.563 54.7712 579.481 54.958C579.403 55.1449 579.365 55.3454 579.365 55.5596ZM580.766 49.4619L575.906 57.2412L575.195 56.79L580.055 49.0107L580.766 49.4619Z" fill="#455560"/>
<rect x="67" y="49" width="481.5" height="8" rx="4" fill="#455560" fill-opacity="0.06"/>
<g clip-path="url(#clip2_96_1012)">
<rect x="67" y="49" width="49" height="8" rx="4" fill="#FF3333"/>
<rect x="67" y="49" width="487" height="8" fill="#FF3333"/>
</g>
<g clip-path="url(#clip3_96_1012)">
<path d="M39.8578 107.872C48.6158 107.872 55.7155 100.772 55.7155 92.0144C55.7155 83.2564 48.6158 76.1566 39.8578 76.1566C31.0998 76.1566 24 83.2564 24 92.0144C24 100.772 31.0998 107.872 39.8578 107.872Z" fill="#FFAA33"/>
<path d="M40.0291 101.392C45.3809 101.392 49.735 97.0379 49.735 91.6861C49.735 86.3342 45.3809 81.9802 40.0291 81.9802C34.6773 81.9802 30.3232 86.3342 30.3232 91.6861C30.3232 97.0379 34.6773 101.392 40.0291 101.392ZM43.4193 88.7743C43.6129 88.7694 43.8054 88.8032 43.9857 88.8739C44.1659 88.9445 44.3301 89.0506 44.4687 89.1857C44.6073 89.3208 44.7175 89.4824 44.7926 89.6608C44.8678 89.8392 44.9066 90.0308 44.9065 90.2244C44.9064 90.418 44.8676 90.6096 44.7922 90.788C44.717 90.9663 44.6068 91.1277 44.4681 91.2628C44.3294 91.3978 44.165 91.5038 43.9848 91.5743C43.8045 91.6448 43.6119 91.6786 43.4184 91.6735C43.0404 91.6636 42.6813 91.5064 42.4176 91.2356C42.1538 90.9647 42.0063 90.6015 42.0064 90.2234C42.0065 89.8453 42.1543 89.4823 42.4182 89.2116C42.6822 88.9409 43.0414 88.784 43.4193 88.7743ZM39.2448 95.4898C39.7626 95.5937 40.2957 95.5937 40.8133 95.4898C41.0589 95.4393 41.3035 95.3627 41.5413 95.2637C41.7684 95.1666 41.9916 95.0462 42.2003 94.9065C42.4022 94.7687 42.5953 94.6095 42.7739 94.4319C42.9515 94.2552 43.1107 94.0621 43.2485 93.8573L44.8578 94.9414C44.4394 95.5615 43.906 96.0956 43.2864 96.5147C42.6552 96.9407 41.9466 97.2388 41.2006 97.3922C40.4273 97.5475 39.6308 97.5472 38.8576 97.3912C38.1115 97.2401 37.4028 96.9422 36.7728 96.5147C36.1532 96.0946 35.6193 95.5604 35.1994 94.9404L36.8087 93.8563C36.9475 94.0611 37.1066 94.2542 37.2823 94.429C37.8183 94.9675 38.5008 95.3365 39.2448 95.4898ZM36.632 88.7743C36.8233 88.7744 37.0127 88.8122 37.1893 88.8853C37.3661 88.9586 37.5265 89.066 37.6617 89.2013C37.7969 89.3366 37.9042 89.4971 37.9773 89.6738C38.0504 89.8506 38.088 90.04 38.0879 90.2312C38.0879 90.4225 38.0501 90.6118 37.9769 90.7885C37.9037 90.9651 37.7963 91.1256 37.661 91.2609C37.5257 91.3961 37.3652 91.5033 37.1885 91.5764C37.0117 91.6496 36.8223 91.6871 36.631 91.687C36.2448 91.6869 35.8745 91.5334 35.6014 91.2602C35.3284 90.987 35.1751 90.6165 35.1752 90.2302C35.1754 89.844 35.3289 89.4736 35.6021 89.2006C35.8753 88.9276 36.2458 88.7742 36.632 88.7743Z" fill="white"/>
<path d="M45.8526 93.6272H34.2056V97.5096H45.8526V93.6272Z" fill="white"/>
<path d="M44.8817 94.5978H35.1758V96.539H44.8817V94.5978Z" fill="#FFAA33"/>
</g>
<path d="M75.8115 80.0469V90H74.4854L69.4746 82.3232V90H68.1553V80.0469H69.4746L74.5059 87.7441V80.0469H75.8115ZM81.3273 90.1367C80.8124 90.1367 80.3452 90.0501 79.926 89.877C79.5113 89.6992 79.1535 89.4508 78.8527 89.1318C78.5565 88.8128 78.3286 88.4346 78.1691 87.9971C78.0096 87.5596 77.9299 87.0811 77.9299 86.5615V86.2744C77.9299 85.6729 78.0188 85.1374 78.1965 84.668C78.3742 84.194 78.6158 83.793 78.9211 83.4648C79.2264 83.1367 79.5728 82.8883 79.9602 82.7197C80.3475 82.5511 80.7486 82.4668 81.1633 82.4668C81.6919 82.4668 82.1477 82.5579 82.5305 82.7402C82.9178 82.9225 83.2346 83.1777 83.4807 83.5059C83.7268 83.8294 83.909 84.2122 84.0275 84.6543C84.146 85.0918 84.2053 85.5703 84.2053 86.0898V86.6572H78.6818V85.625H82.9406V85.5293C82.9224 85.2012 82.854 84.8822 82.7355 84.5723C82.6216 84.2624 82.4393 84.0072 82.1887 83.8066C81.938 83.6061 81.5962 83.5059 81.1633 83.5059C80.8762 83.5059 80.6118 83.5674 80.3703 83.6904C80.1288 83.8089 79.9214 83.9867 79.7482 84.2236C79.5751 84.4606 79.4406 84.75 79.3449 85.0918C79.2492 85.4336 79.2014 85.8278 79.2014 86.2744V86.5615C79.2014 86.9124 79.2492 87.2428 79.3449 87.5527C79.4452 87.8581 79.5887 88.127 79.7756 88.3594C79.967 88.5918 80.1971 88.7741 80.466 88.9062C80.7395 89.0384 81.0493 89.1045 81.3957 89.1045C81.8423 89.1045 82.2206 89.0133 82.5305 88.8311C82.8404 88.6488 83.1115 88.4049 83.3439 88.0996L84.1096 88.708C83.9501 88.9495 83.7473 89.1797 83.5012 89.3984C83.2551 89.6172 82.952 89.7949 82.592 89.9316C82.2365 90.0684 81.815 90.1367 81.3273 90.1367ZM90.5072 88.291V82.6035H91.7787V90H90.5688L90.5072 88.291ZM90.7465 86.7324L91.2729 86.7188C91.2729 87.2109 91.2204 87.6667 91.1156 88.0859C91.0154 88.5007 90.8513 88.8607 90.6234 89.166C90.3956 89.4714 90.0971 89.7106 89.7279 89.8838C89.3588 90.0524 88.9099 90.1367 88.3813 90.1367C88.0212 90.1367 87.6908 90.0843 87.39 89.9795C87.0938 89.8747 86.8386 89.7129 86.6244 89.4941C86.4102 89.2754 86.2439 88.9906 86.1254 88.6396C86.0115 88.2887 85.9545 87.8672 85.9545 87.375V82.6035H87.2191V87.3887C87.2191 87.7214 87.2556 87.9971 87.3285 88.2158C87.406 88.43 87.5085 88.6009 87.6361 88.7285C87.7683 88.8516 87.9141 88.9382 88.0736 88.9883C88.2377 89.0384 88.4063 89.0635 88.5795 89.0635C89.1173 89.0635 89.5434 88.9609 89.8578 88.7559C90.1723 88.5462 90.3979 88.266 90.5346 87.915C90.6758 87.5596 90.7465 87.1654 90.7465 86.7324ZM97.1031 82.6035V83.5742H93.1041V82.6035H97.1031ZM94.4576 80.8057H95.7223V88.168C95.7223 88.4186 95.761 88.6077 95.8385 88.7354C95.916 88.863 96.0162 88.9473 96.1393 88.9883C96.2623 89.0293 96.3945 89.0498 96.5357 89.0498C96.6406 89.0498 96.7499 89.0407 96.8639 89.0225C96.9824 88.9997 97.0712 88.9814 97.1305 88.9678L97.1373 90C97.037 90.0319 96.9049 90.0615 96.7408 90.0889C96.5813 90.1208 96.3876 90.1367 96.1598 90.1367C95.8499 90.1367 95.565 90.0752 95.3053 89.9521C95.0455 89.8291 94.8382 89.624 94.6832 89.3369C94.5328 89.0452 94.4576 88.6533 94.4576 88.1611V80.8057ZM100.151 83.7656V90H98.8865V82.6035H100.117L100.151 83.7656ZM102.462 82.5625L102.455 83.7383C102.35 83.7155 102.25 83.7018 102.154 83.6973C102.063 83.6882 101.958 83.6836 101.84 83.6836C101.548 83.6836 101.29 83.7292 101.067 83.8203C100.844 83.9115 100.655 84.0391 100.5 84.2031C100.345 84.3672 100.222 84.5632 100.131 84.791C100.044 85.0143 99.9871 85.2604 99.9598 85.5293L99.6043 85.7344C99.6043 85.2878 99.6476 84.8685 99.7342 84.4766C99.8253 84.0846 99.9643 83.7383 100.151 83.4375C100.338 83.1322 100.575 82.8952 100.862 82.7266C101.154 82.5534 101.5 82.4668 101.901 82.4668C101.992 82.4668 102.097 82.4782 102.216 82.501C102.334 82.5192 102.416 82.5397 102.462 82.5625ZM108.019 88.7354V84.9277C108.019 84.6361 107.959 84.3831 107.841 84.1689C107.727 83.9502 107.554 83.7816 107.321 83.6631C107.089 83.5446 106.802 83.4854 106.46 83.4854C106.141 83.4854 105.861 83.54 105.619 83.6494C105.382 83.7588 105.195 83.9023 105.059 84.0801C104.926 84.2578 104.86 84.4492 104.86 84.6543H103.596C103.596 84.39 103.664 84.1279 103.801 83.8682C103.938 83.6084 104.133 83.3737 104.389 83.1641C104.648 82.9499 104.958 82.7812 105.318 82.6582C105.683 82.5306 106.089 82.4668 106.535 82.4668C107.073 82.4668 107.547 82.5579 107.957 82.7402C108.372 82.9225 108.695 83.1982 108.928 83.5674C109.165 83.932 109.283 84.39 109.283 84.9414V88.3867C109.283 88.6328 109.304 88.8949 109.345 89.1729C109.39 89.4508 109.456 89.6901 109.543 89.8906V90H108.224C108.16 89.8542 108.11 89.6605 108.073 89.4189C108.037 89.1729 108.019 88.945 108.019 88.7354ZM108.237 85.5156L108.251 86.4043H106.973C106.613 86.4043 106.291 86.4339 106.009 86.4932C105.726 86.5479 105.489 86.6322 105.298 86.7461C105.106 86.86 104.961 87.0036 104.86 87.1768C104.76 87.3454 104.71 87.5436 104.71 87.7715C104.71 88.0039 104.762 88.2158 104.867 88.4072C104.972 88.5986 105.129 88.7513 105.339 88.8652C105.553 88.9746 105.815 89.0293 106.125 89.0293C106.512 89.0293 106.854 88.9473 107.15 88.7832C107.447 88.6191 107.681 88.4186 107.854 88.1816C108.032 87.9447 108.128 87.7145 108.142 87.4912L108.682 88.0996C108.65 88.291 108.563 88.5029 108.422 88.7354C108.281 88.9678 108.091 89.1911 107.854 89.4053C107.622 89.6149 107.344 89.7904 107.021 89.9316C106.701 90.0684 106.341 90.1367 105.94 90.1367C105.439 90.1367 104.999 90.0387 104.621 89.8428C104.247 89.6468 103.956 89.3848 103.746 89.0566C103.541 88.724 103.438 88.3525 103.438 87.9424C103.438 87.5459 103.516 87.1973 103.671 86.8965C103.826 86.5911 104.049 86.3382 104.341 86.1377C104.632 85.9326 104.983 85.7777 105.394 85.6729C105.804 85.568 106.262 85.5156 106.768 85.5156H108.237ZM112.946 79.5V90H111.675V79.5H112.946ZM124.546 87.4844C124.546 87.252 124.509 87.0469 124.436 86.8691C124.368 86.6868 124.245 86.5228 124.067 86.377C123.894 86.2311 123.652 86.0921 123.342 85.96C123.037 85.8278 122.65 85.6934 122.18 85.5566C121.688 85.4108 121.244 85.249 120.847 85.0713C120.451 84.889 120.111 84.6816 119.829 84.4492C119.546 84.2168 119.33 83.9502 119.179 83.6494C119.029 83.3486 118.954 83.0046 118.954 82.6172C118.954 82.2298 119.033 81.8721 119.193 81.5439C119.352 81.2158 119.58 80.931 119.877 80.6895C120.177 80.4434 120.535 80.252 120.95 80.1152C121.365 79.9785 121.827 79.9102 122.338 79.9102C123.085 79.9102 123.718 80.0537 124.238 80.3408C124.762 80.6234 125.161 80.9948 125.434 81.4551C125.708 81.9108 125.844 82.3984 125.844 82.918H124.532C124.532 82.5443 124.452 82.2139 124.293 81.9268C124.133 81.6351 123.892 81.4072 123.568 81.2432C123.244 81.0745 122.834 80.9902 122.338 80.9902C121.868 80.9902 121.481 81.0609 121.175 81.2021C120.87 81.3434 120.642 81.5348 120.492 81.7764C120.346 82.0179 120.273 82.2936 120.273 82.6035C120.273 82.8132 120.316 83.0046 120.403 83.1777C120.494 83.3464 120.633 83.5036 120.82 83.6494C121.011 83.7952 121.253 83.9297 121.545 84.0527C121.841 84.1758 122.194 84.2943 122.604 84.4082C123.169 84.5677 123.657 84.7454 124.067 84.9414C124.477 85.1374 124.814 85.3584 125.079 85.6045C125.348 85.846 125.546 86.1217 125.673 86.4316C125.806 86.737 125.872 87.0833 125.872 87.4707C125.872 87.8763 125.79 88.2432 125.626 88.5713C125.462 88.8994 125.227 89.1797 124.921 89.4121C124.616 89.6445 124.249 89.8245 123.821 89.9521C123.397 90.0752 122.923 90.1367 122.399 90.1367C121.939 90.1367 121.485 90.0729 121.039 89.9453C120.597 89.8177 120.193 89.6263 119.829 89.3711C119.469 89.1159 119.179 88.8014 118.961 88.4277C118.746 88.0495 118.639 87.612 118.639 87.1152H119.952C119.952 87.457 120.018 87.751 120.15 87.9971C120.282 88.2386 120.462 88.4391 120.69 88.5986C120.922 88.7581 121.185 88.8766 121.476 88.9541C121.772 89.027 122.08 89.0635 122.399 89.0635C122.859 89.0635 123.249 88.9997 123.568 88.8721C123.887 88.7445 124.129 88.5622 124.293 88.3252C124.461 88.0882 124.546 87.8079 124.546 87.4844ZM130.731 90.1367C130.216 90.1367 129.749 90.0501 129.33 89.877C128.915 89.6992 128.557 89.4508 128.257 89.1318C127.96 88.8128 127.733 88.4346 127.573 87.9971C127.414 87.5596 127.334 87.0811 127.334 86.5615V86.2744C127.334 85.6729 127.423 85.1374 127.6 84.668C127.778 84.194 128.02 83.793 128.325 83.4648C128.63 83.1367 128.977 82.8883 129.364 82.7197C129.751 82.5511 130.152 82.4668 130.567 82.4668C131.096 82.4668 131.552 82.5579 131.934 82.7402C132.322 82.9225 132.638 83.1777 132.885 83.5059C133.131 83.8294 133.313 84.2122 133.431 84.6543C133.55 85.0918 133.609 85.5703 133.609 86.0898V86.6572H128.086V85.625H132.345V85.5293C132.326 85.2012 132.258 84.8822 132.139 84.5723C132.026 84.2624 131.843 84.0072 131.593 83.8066C131.342 83.6061 131 83.5059 130.567 83.5059C130.28 83.5059 130.016 83.5674 129.774 83.6904C129.533 83.8089 129.325 83.9867 129.152 84.2236C128.979 84.4606 128.845 84.75 128.749 85.0918C128.653 85.4336 128.605 85.8278 128.605 86.2744V86.5615C128.605 86.9124 128.653 87.2428 128.749 87.5527C128.849 87.8581 128.993 88.127 129.179 88.3594C129.371 88.5918 129.601 88.7741 129.87 88.9062C130.143 89.0384 130.453 89.1045 130.8 89.1045C131.246 89.1045 131.624 89.0133 131.934 88.8311C132.244 88.6488 132.515 88.4049 132.748 88.0996L133.513 88.708C133.354 88.9495 133.151 89.1797 132.905 89.3984C132.659 89.6172 132.356 89.7949 131.996 89.9316C131.64 90.0684 131.219 90.1367 130.731 90.1367ZM136.65 84.1826V90H135.386V82.6035H136.582L136.65 84.1826ZM136.35 86.0215L135.823 86.001C135.828 85.4951 135.903 85.028 136.049 84.5996C136.195 84.1667 136.4 83.7907 136.664 83.4717C136.928 83.1527 137.243 82.9066 137.607 82.7334C137.977 82.5557 138.384 82.4668 138.831 82.4668C139.196 82.4668 139.524 82.5169 139.815 82.6172C140.107 82.7129 140.355 82.8678 140.561 83.082C140.77 83.2962 140.93 83.5742 141.039 83.916C141.148 84.2533 141.203 84.6657 141.203 85.1533V90H139.932V85.1396C139.932 84.7523 139.875 84.4424 139.761 84.21C139.647 83.973 139.48 83.8021 139.262 83.6973C139.043 83.5879 138.774 83.5332 138.455 83.5332C138.141 83.5332 137.854 83.5993 137.594 83.7314C137.339 83.8636 137.118 84.0459 136.931 84.2783C136.748 84.5107 136.605 84.7773 136.5 85.0781C136.4 85.3743 136.35 85.6888 136.35 86.0215ZM146.521 82.6035V83.5742H142.522V82.6035H146.521ZM143.875 80.8057H145.14V88.168C145.14 88.4186 145.179 88.6077 145.256 88.7354C145.334 88.863 145.434 88.9473 145.557 88.9883C145.68 89.0293 145.812 89.0498 145.953 89.0498C146.058 89.0498 146.168 89.0407 146.281 89.0225C146.4 88.9997 146.489 88.9814 146.548 88.9678L146.555 90C146.455 90.0319 146.322 90.0615 146.158 90.0889C145.999 90.1208 145.805 90.1367 145.577 90.1367C145.267 90.1367 144.983 90.0752 144.723 89.9521C144.463 89.8291 144.256 89.624 144.101 89.3369C143.95 89.0452 143.875 88.6533 143.875 88.1611V80.8057ZM149.678 82.6035V90H148.407V82.6035H149.678ZM148.311 80.6416C148.311 80.4365 148.372 80.2633 148.496 80.1221C148.623 79.9808 148.81 79.9102 149.056 79.9102C149.298 79.9102 149.482 79.9808 149.61 80.1221C149.742 80.2633 149.808 80.4365 149.808 80.6416C149.808 80.8376 149.742 81.0062 149.61 81.1475C149.482 81.2842 149.298 81.3525 149.056 81.3525C148.81 81.3525 148.623 81.2842 148.496 81.1475C148.372 81.0062 148.311 80.8376 148.311 80.6416ZM153.266 84.0732V90H151.995V82.6035H153.198L153.266 84.0732ZM153.006 86.0215L152.419 86.001C152.423 85.4951 152.489 85.028 152.617 84.5996C152.744 84.1667 152.934 83.7907 153.184 83.4717C153.435 83.1527 153.747 82.9066 154.121 82.7334C154.494 82.5557 154.927 82.4668 155.42 82.4668C155.766 82.4668 156.085 82.5169 156.377 82.6172C156.668 82.7129 156.921 82.8656 157.135 83.0752C157.35 83.2848 157.516 83.5537 157.634 83.8818C157.753 84.21 157.812 84.6064 157.812 85.0713V90H156.547V85.1328C156.547 84.7454 156.481 84.4355 156.349 84.2031C156.222 83.9707 156.039 83.8021 155.802 83.6973C155.565 83.5879 155.287 83.5332 154.968 83.5332C154.595 83.5332 154.282 83.5993 154.032 83.7314C153.781 83.8636 153.581 84.0459 153.43 84.2783C153.28 84.5107 153.171 84.7773 153.102 85.0781C153.038 85.3743 153.006 85.6888 153.006 86.0215ZM157.798 85.3242L156.951 85.584C156.955 85.1784 157.021 84.7887 157.149 84.415C157.281 84.0413 157.47 83.7087 157.716 83.417C157.967 83.1253 158.275 82.8952 158.639 82.7266C159.004 82.5534 159.421 82.4668 159.89 82.4668C160.287 82.4668 160.638 82.5192 160.943 82.624C161.253 82.7288 161.513 82.8906 161.722 83.1094C161.936 83.3236 162.098 83.5993 162.208 83.9365C162.317 84.2738 162.372 84.6748 162.372 85.1396V90H161.1V85.126C161.1 84.7113 161.034 84.39 160.902 84.1621C160.774 83.9297 160.592 83.7679 160.355 83.6768C160.123 83.5811 159.845 83.5332 159.521 83.5332C159.243 83.5332 158.997 83.5811 158.783 83.6768C158.569 83.7725 158.389 83.9046 158.243 84.0732C158.097 84.2373 157.985 84.4264 157.908 84.6406C157.835 84.8548 157.798 85.0827 157.798 85.3242ZM167.655 90.1367C167.14 90.1367 166.673 90.0501 166.254 89.877C165.839 89.6992 165.481 89.4508 165.18 89.1318C164.884 88.8128 164.656 88.4346 164.497 87.9971C164.337 87.5596 164.258 87.0811 164.258 86.5615V86.2744C164.258 85.6729 164.346 85.1374 164.524 84.668C164.702 84.194 164.943 83.793 165.249 83.4648C165.554 83.1367 165.901 82.8883 166.288 82.7197C166.675 82.5511 167.076 82.4668 167.491 82.4668C168.02 82.4668 168.475 82.5579 168.858 82.7402C169.246 82.9225 169.562 83.1777 169.808 83.5059C170.054 83.8294 170.237 84.2122 170.355 84.6543C170.474 85.0918 170.533 85.5703 170.533 86.0898V86.6572H165.01V85.625H169.268V85.5293C169.25 85.2012 169.182 84.8822 169.063 84.5723C168.949 84.2624 168.767 84.0072 168.516 83.8066C168.266 83.6061 167.924 83.5059 167.491 83.5059C167.204 83.5059 166.94 83.5674 166.698 83.6904C166.457 83.8089 166.249 83.9867 166.076 84.2236C165.903 84.4606 165.768 84.75 165.673 85.0918C165.577 85.4336 165.529 85.8278 165.529 86.2744V86.5615C165.529 86.9124 165.577 87.2428 165.673 87.5527C165.773 87.8581 165.916 88.127 166.103 88.3594C166.295 88.5918 166.525 88.7741 166.794 88.9062C167.067 89.0384 167.377 89.1045 167.723 89.1045C168.17 89.1045 168.548 89.0133 168.858 88.8311C169.168 88.6488 169.439 88.4049 169.672 88.0996L170.437 88.708C170.278 88.9495 170.075 89.1797 169.829 89.3984C169.583 89.6172 169.28 89.7949 168.92 89.9316C168.564 90.0684 168.143 90.1367 167.655 90.1367ZM173.574 84.1826V90H172.31V82.6035H173.506L173.574 84.1826ZM173.273 86.0215L172.747 86.001C172.752 85.4951 172.827 85.028 172.973 84.5996C173.118 84.1667 173.324 83.7907 173.588 83.4717C173.852 83.1527 174.167 82.9066 174.531 82.7334C174.9 82.5557 175.308 82.4668 175.755 82.4668C176.119 82.4668 176.448 82.5169 176.739 82.6172C177.031 82.7129 177.279 82.8678 177.484 83.082C177.694 83.2962 177.854 83.5742 177.963 83.916C178.072 84.2533 178.127 84.6657 178.127 85.1533V90H176.855V85.1396C176.855 84.7523 176.799 84.4424 176.685 84.21C176.571 83.973 176.404 83.8021 176.186 83.6973C175.967 83.5879 175.698 83.5332 175.379 83.5332C175.064 83.5332 174.777 83.5993 174.518 83.7314C174.262 83.8636 174.041 84.0459 173.854 84.2783C173.672 84.5107 173.529 84.7773 173.424 85.0781C173.324 85.3743 173.273 85.6888 173.273 86.0215ZM183.445 82.6035V83.5742H179.446V82.6035H183.445ZM180.799 80.8057H182.064V88.168C182.064 88.4186 182.102 88.6077 182.18 88.7354C182.257 88.863 182.358 88.9473 182.481 88.9883C182.604 89.0293 182.736 89.0498 182.877 89.0498C182.982 89.0498 183.091 89.0407 183.205 89.0225C183.324 88.9997 183.413 88.9814 183.472 88.9678L183.479 90C183.378 90.0319 183.246 90.0615 183.082 90.0889C182.923 90.1208 182.729 90.1367 182.501 90.1367C182.191 90.1367 181.906 90.0752 181.647 89.9521C181.387 89.8291 181.18 89.624 181.025 89.3369C180.874 89.0452 180.799 88.6533 180.799 88.1611V80.8057ZM189.535 88.0381C189.535 87.8558 189.494 87.6872 189.412 87.5322C189.334 87.3727 189.172 87.2292 188.926 87.1016C188.685 86.9694 188.32 86.8555 187.832 86.7598C187.422 86.6732 187.051 86.5706 186.718 86.4521C186.39 86.3337 186.11 86.1901 185.877 86.0215C185.649 85.8529 185.474 85.6546 185.351 85.4268C185.228 85.1989 185.166 84.9323 185.166 84.627C185.166 84.3353 185.23 84.0596 185.358 83.7998C185.49 83.54 185.675 83.3099 185.912 83.1094C186.153 82.9089 186.442 82.7516 186.78 82.6377C187.117 82.5238 187.493 82.4668 187.908 82.4668C188.5 82.4668 189.006 82.5716 189.425 82.7812C189.844 82.9909 190.166 83.2712 190.389 83.6221C190.612 83.9684 190.724 84.3535 190.724 84.7773H189.459C189.459 84.5723 189.398 84.374 189.275 84.1826C189.156 83.9867 188.981 83.8249 188.748 83.6973C188.521 83.5697 188.24 83.5059 187.908 83.5059C187.557 83.5059 187.272 83.5605 187.053 83.6699C186.839 83.7747 186.682 83.9092 186.581 84.0732C186.486 84.2373 186.438 84.4105 186.438 84.5928C186.438 84.7295 186.461 84.8525 186.506 84.9619C186.556 85.0667 186.643 85.1647 186.766 85.2559C186.889 85.3424 187.062 85.4245 187.286 85.502C187.509 85.5794 187.794 85.6569 188.14 85.7344C188.746 85.8711 189.245 86.0352 189.637 86.2266C190.029 86.418 190.321 86.6527 190.512 86.9307C190.704 87.2087 190.799 87.5459 190.799 87.9424C190.799 88.266 190.731 88.5622 190.594 88.8311C190.462 89.0999 190.268 89.3324 190.013 89.5283C189.762 89.7197 189.462 89.8701 189.111 89.9795C188.764 90.0843 188.375 90.1367 187.942 90.1367C187.29 90.1367 186.739 90.0205 186.287 89.7881C185.836 89.5557 185.495 89.2549 185.262 88.8857C185.03 88.5166 184.913 88.127 184.913 87.7168H186.185C186.203 88.0632 186.303 88.3389 186.486 88.5439C186.668 88.7445 186.891 88.888 187.156 88.9746C187.42 89.0566 187.682 89.0977 187.942 89.0977C188.288 89.0977 188.578 89.0521 188.81 88.9609C189.047 88.8698 189.227 88.7445 189.35 88.585C189.473 88.4255 189.535 88.2432 189.535 88.0381Z" fill="#0A0A0A"/>
<path d="M558.927 103.263L557.915 103.003L558.414 98.0469H563.521V99.2158H559.487L559.187 101.923C559.369 101.818 559.599 101.72 559.877 101.629C560.16 101.538 560.483 101.492 560.848 101.492C561.308 101.492 561.72 101.572 562.085 101.731C562.45 101.886 562.759 102.11 563.015 102.401C563.274 102.693 563.473 103.044 563.609 103.454C563.746 103.864 563.814 104.322 563.814 104.828C563.814 105.307 563.748 105.746 563.616 106.147C563.489 106.549 563.295 106.899 563.035 107.2C562.775 107.496 562.447 107.727 562.051 107.891C561.659 108.055 561.196 108.137 560.663 108.137C560.262 108.137 559.882 108.082 559.521 107.973C559.166 107.859 558.847 107.688 558.564 107.46C558.286 107.228 558.059 106.94 557.881 106.599C557.708 106.252 557.598 105.847 557.553 105.382H558.756C558.811 105.756 558.92 106.07 559.084 106.325C559.248 106.58 559.462 106.774 559.727 106.906C559.995 107.034 560.308 107.098 560.663 107.098C560.964 107.098 561.23 107.045 561.463 106.94C561.695 106.836 561.891 106.685 562.051 106.489C562.21 106.293 562.331 106.056 562.413 105.778C562.5 105.5 562.543 105.188 562.543 104.842C562.543 104.527 562.5 104.236 562.413 103.967C562.326 103.698 562.197 103.463 562.023 103.263C561.855 103.062 561.647 102.907 561.401 102.798C561.155 102.684 560.873 102.627 560.554 102.627C560.13 102.627 559.809 102.684 559.59 102.798C559.376 102.912 559.155 103.067 558.927 103.263ZM571.75 102.23V103.748C571.75 104.564 571.677 105.252 571.531 105.812C571.386 106.373 571.176 106.824 570.903 107.166C570.629 107.508 570.299 107.756 569.911 107.911C569.529 108.062 569.096 108.137 568.613 108.137C568.23 108.137 567.876 108.089 567.553 107.993C567.229 107.897 566.938 107.745 566.678 107.535C566.423 107.321 566.204 107.043 566.022 106.701C565.839 106.359 565.7 105.945 565.605 105.457C565.509 104.969 565.461 104.4 565.461 103.748V102.23C565.461 101.415 565.534 100.731 565.68 100.18C565.83 99.6283 566.042 99.1862 566.316 98.8535C566.589 98.5163 566.917 98.2747 567.3 98.1289C567.687 97.9831 568.12 97.9102 568.599 97.9102C568.986 97.9102 569.342 97.958 569.665 98.0537C569.993 98.1449 570.285 98.293 570.54 98.498C570.795 98.6986 571.012 98.9674 571.19 99.3047C571.372 99.6374 571.511 100.045 571.607 100.528C571.702 101.011 571.75 101.579 571.75 102.23ZM570.479 103.953V102.019C570.479 101.572 570.451 101.18 570.397 100.843C570.347 100.501 570.271 100.209 570.171 99.9678C570.071 99.7262 569.943 99.5303 569.788 99.3799C569.638 99.2295 569.462 99.1201 569.262 99.0518C569.066 98.9788 568.845 98.9424 568.599 98.9424C568.298 98.9424 568.031 98.9993 567.799 99.1133C567.567 99.2227 567.371 99.3981 567.211 99.6396C567.056 99.8812 566.938 100.198 566.856 100.59C566.774 100.982 566.733 101.458 566.733 102.019V103.953C566.733 104.4 566.758 104.794 566.808 105.136C566.863 105.478 566.942 105.774 567.047 106.024C567.152 106.271 567.279 106.473 567.43 106.633C567.58 106.792 567.753 106.911 567.949 106.988C568.15 107.061 568.371 107.098 568.613 107.098C568.922 107.098 569.194 107.038 569.426 106.92C569.658 106.801 569.852 106.617 570.007 106.366C570.167 106.111 570.285 105.785 570.363 105.389C570.44 104.988 570.479 104.509 570.479 103.953ZM573.568 100.487V99.9609C573.568 99.5827 573.65 99.2386 573.814 98.9287C573.978 98.6188 574.213 98.3704 574.518 98.1836C574.823 97.9967 575.186 97.9033 575.605 97.9033C576.033 97.9033 576.398 97.9967 576.699 98.1836C577.004 98.3704 577.239 98.6188 577.403 98.9287C577.567 99.2386 577.649 99.5827 577.649 99.9609V100.487C577.649 100.856 577.567 101.196 577.403 101.506C577.243 101.816 577.011 102.064 576.705 102.251C576.405 102.438 576.042 102.531 575.619 102.531C575.195 102.531 574.828 102.438 574.518 102.251C574.213 102.064 573.978 101.816 573.814 101.506C573.65 101.196 573.568 100.856 573.568 100.487ZM574.518 99.9609V100.487C574.518 100.697 574.557 100.895 574.634 101.082C574.716 101.269 574.839 101.422 575.003 101.54C575.167 101.654 575.372 101.711 575.619 101.711C575.865 101.711 576.067 101.654 576.227 101.54C576.386 101.422 576.505 101.269 576.582 101.082C576.66 100.895 576.699 100.697 576.699 100.487V99.9609C576.699 99.7467 576.658 99.5462 576.576 99.3594C576.498 99.168 576.377 99.0153 576.213 98.9014C576.054 98.7829 575.851 98.7236 575.605 98.7236C575.363 98.7236 575.161 98.7829 574.996 98.9014C574.837 99.0153 574.716 99.168 574.634 99.3594C574.557 99.5462 574.518 99.7467 574.518 99.9609ZM578.414 106.093V105.56C578.414 105.186 578.496 104.844 578.661 104.534C578.825 104.224 579.059 103.976 579.365 103.789C579.67 103.602 580.032 103.509 580.452 103.509C580.88 103.509 581.245 103.602 581.545 103.789C581.851 103.976 582.085 104.224 582.249 104.534C582.413 104.844 582.496 105.186 582.496 105.56V106.093C582.496 106.466 582.413 106.808 582.249 107.118C582.09 107.428 581.857 107.676 581.552 107.863C581.251 108.05 580.889 108.144 580.465 108.144C580.041 108.144 579.677 108.05 579.371 107.863C579.066 107.676 578.829 107.428 578.661 107.118C578.496 106.808 578.414 106.466 578.414 106.093ZM579.365 105.56V106.093C579.365 106.302 579.403 106.503 579.481 106.694C579.563 106.881 579.686 107.034 579.85 107.152C580.014 107.266 580.219 107.323 580.465 107.323C580.711 107.323 580.914 107.266 581.074 107.152C581.238 107.034 581.358 106.881 581.436 106.694C581.513 106.507 581.552 106.307 581.552 106.093V105.56C581.552 105.345 581.511 105.145 581.429 104.958C581.352 104.771 581.231 104.621 581.067 104.507C580.907 104.388 580.702 104.329 580.452 104.329C580.21 104.329 580.007 104.388 579.843 104.507C579.684 104.621 579.563 104.771 579.481 104.958C579.403 105.145 579.365 105.345 579.365 105.56ZM580.766 99.4619L575.906 107.241L575.195 106.79L580.055 99.0107L580.766 99.4619Z" fill="#455560"/>
<rect x="67" y="99" width="481.5" height="8" rx="4" fill="#455560" fill-opacity="0.06"/>
<rect x="67" y="99" width="252" height="8" rx="4" fill="#FFAA33"/>
<rect x="67" y="99" width="112.467" height="8" fill="#FFAA33"/>
<g clip-path="url(#clip4_96_1012)">
<g clip-path="url(#clip5_96_1012)">
<path d="M40.3383 158.177C49.3617 158.177 56.6766 150.862 56.6766 141.838C56.6766 132.815 49.3617 125.5 40.3383 125.5C31.3149 125.5 24 132.815 24 141.838C24 150.862 31.3149 158.177 40.3383 158.177Z" fill="#00CC66"/>
<mask id="mask1_96_1012" style="mask-type:luminance" maskUnits="userSpaceOnUse" x="30" y="131" width="20" height="21">
<path d="M50 131.5H30V151.5H50V131.5Z" fill="white"/>
</mask>
<g mask="url(#mask1_96_1012)">
<path d="M40 151.5C45.514 151.5 50 147.014 50 141.5C50 135.986 45.514 131.5 40 131.5C34.486 131.5 30 135.986 30 141.5C30 147.014 34.486 151.5 40 151.5ZM43.493 138.5C43.6924 138.495 43.8908 138.53 44.0765 138.603C44.2621 138.675 44.4314 138.785 44.5742 138.924C44.717 139.063 44.8304 139.229 44.9079 139.413C44.9853 139.597 45.0252 139.795 45.0251 139.994C45.0251 140.194 44.9851 140.391 44.9075 140.575C44.8299 140.758 44.7163 140.925 44.5735 141.064C44.4306 141.203 44.2613 141.312 44.0755 141.385C43.8898 141.457 43.6914 141.492 43.492 141.487C43.1026 141.477 42.7326 141.315 42.4608 141.036C42.189 140.757 42.037 140.383 42.0371 139.993C42.0373 139.604 42.1895 139.229 42.4615 138.95C42.7335 138.672 43.1036 138.51 43.493 138.5ZM39.192 145.419C39.7254 145.526 40.2746 145.526 40.808 145.419C41.061 145.367 41.313 145.288 41.558 145.186C41.792 145.086 42.022 144.962 42.237 144.818C42.445 144.676 42.644 144.512 42.828 144.329C43.011 144.147 43.175 143.948 43.317 143.737L44.975 144.854C44.5439 145.493 43.9943 146.043 43.356 146.475C42.7056 146.914 41.9755 147.221 41.207 147.379C40.4103 147.539 39.5896 147.539 38.793 147.378C38.0242 147.222 37.2941 146.915 36.645 146.475C36.0066 146.042 35.4565 145.492 35.024 144.853L36.682 143.736C36.825 143.947 36.989 144.146 37.17 144.326C37.7221 144.881 38.4253 145.261 39.192 145.419ZM36.5 138.5C36.697 138.5 36.8922 138.539 37.0742 138.614C37.2562 138.69 37.4216 138.801 37.5609 138.94C37.7002 139.079 37.8106 139.245 37.886 139.427C37.9613 139.609 38.0001 139.804 38 140.001C37.9999 140.198 37.9611 140.393 37.8856 140.575C37.8101 140.757 37.6995 140.923 37.5602 141.062C37.4208 141.201 37.2553 141.312 37.0733 141.387C36.8912 141.462 36.696 141.501 36.499 141.501C36.101 141.501 35.7194 141.343 35.4381 141.061C35.1568 140.78 34.9989 140.398 34.999 140C34.9991 139.602 35.1573 139.22 35.4388 138.939C35.7203 138.658 36.102 138.5 36.5 138.5Z" fill="white"/>
</g>
</g>
</g>
<path d="M71.8262 136.097H69.167V135.023H71.8262C72.3411 135.023 72.7581 134.941 73.0771 134.777C73.3962 134.613 73.6286 134.385 73.7744 134.094C73.9248 133.802 74 133.469 74 133.096C74 132.754 73.9248 132.433 73.7744 132.132C73.6286 131.831 73.3962 131.59 73.0771 131.407C72.7581 131.22 72.3411 131.127 71.8262 131.127H69.4746V140H68.1553V130.047H71.8262C72.5781 130.047 73.2139 130.177 73.7334 130.437C74.2529 130.696 74.6471 131.056 74.916 131.517C75.1849 131.972 75.3193 132.494 75.3193 133.082C75.3193 133.72 75.1849 134.265 74.916 134.716C74.6471 135.167 74.2529 135.511 73.7334 135.748C73.2139 135.98 72.5781 136.097 71.8262 136.097ZM76.6652 136.384V136.227C76.6652 135.693 76.7427 135.199 76.8977 134.743C77.0526 134.283 77.2759 133.884 77.5676 133.547C77.8592 133.205 78.2124 132.941 78.6271 132.754C79.0419 132.562 79.5067 132.467 80.0217 132.467C80.5412 132.467 81.0083 132.562 81.423 132.754C81.8423 132.941 82.1978 133.205 82.4895 133.547C82.7857 133.884 83.0113 134.283 83.1662 134.743C83.3212 135.199 83.3986 135.693 83.3986 136.227V136.384C83.3986 136.917 83.3212 137.411 83.1662 137.867C83.0113 138.323 82.7857 138.722 82.4895 139.063C82.1978 139.401 81.8446 139.665 81.4299 139.856C81.0197 140.043 80.5549 140.137 80.0354 140.137C79.5158 140.137 79.0487 140.043 78.634 139.856C78.2193 139.665 77.8638 139.401 77.5676 139.063C77.2759 138.722 77.0526 138.323 76.8977 137.867C76.7427 137.411 76.6652 136.917 76.6652 136.384ZM77.9299 136.227V136.384C77.9299 136.753 77.9732 137.102 78.0598 137.43C78.1464 137.753 78.2762 138.04 78.4494 138.291C78.6271 138.542 78.8482 138.74 79.1125 138.886C79.3768 139.027 79.6844 139.098 80.0354 139.098C80.3817 139.098 80.6848 139.027 80.9445 138.886C81.2089 138.74 81.4276 138.542 81.6008 138.291C81.774 138.04 81.9038 137.753 81.9904 137.43C82.0816 137.102 82.1271 136.753 82.1271 136.384V136.227C82.1271 135.862 82.0816 135.518 81.9904 135.194C81.9038 134.866 81.7717 134.577 81.5939 134.326C81.4208 134.071 81.202 133.87 80.9377 133.725C80.6779 133.579 80.3726 133.506 80.0217 133.506C79.6753 133.506 79.37 133.579 79.1057 133.725C78.8459 133.87 78.6271 134.071 78.4494 134.326C78.2762 134.577 78.1464 134.866 78.0598 135.194C77.9732 135.518 77.9299 135.862 77.9299 136.227ZM89.5912 138.038C89.5912 137.856 89.5502 137.687 89.4682 137.532C89.3907 137.373 89.2289 137.229 88.9828 137.102C88.7413 136.969 88.3767 136.855 87.8891 136.76C87.4789 136.673 87.1075 136.571 86.7748 136.452C86.4467 136.334 86.1664 136.19 85.934 136.021C85.7061 135.853 85.5307 135.655 85.4076 135.427C85.2846 135.199 85.223 134.932 85.223 134.627C85.223 134.335 85.2868 134.06 85.4145 133.8C85.5466 133.54 85.7312 133.31 85.9682 133.109C86.2097 132.909 86.4991 132.752 86.8363 132.638C87.1736 132.524 87.5495 132.467 87.9643 132.467C88.5567 132.467 89.0626 132.572 89.4818 132.781C89.9011 132.991 90.2224 133.271 90.4457 133.622C90.669 133.968 90.7807 134.354 90.7807 134.777H89.516C89.516 134.572 89.4545 134.374 89.3314 134.183C89.213 133.987 89.0375 133.825 88.8051 133.697C88.5772 133.57 88.2969 133.506 87.9643 133.506C87.6133 133.506 87.3285 133.561 87.1098 133.67C86.8956 133.775 86.7383 133.909 86.6381 134.073C86.5424 134.237 86.4945 134.41 86.4945 134.593C86.4945 134.729 86.5173 134.853 86.5629 134.962C86.613 135.067 86.6996 135.165 86.8227 135.256C86.9457 135.342 87.1189 135.424 87.3422 135.502C87.5655 135.579 87.8503 135.657 88.1967 135.734C88.8028 135.871 89.3018 136.035 89.6938 136.227C90.0857 136.418 90.3773 136.653 90.5688 136.931C90.7602 137.209 90.8559 137.546 90.8559 137.942C90.8559 138.266 90.7875 138.562 90.6508 138.831C90.5186 139.1 90.3249 139.332 90.0697 139.528C89.8191 139.72 89.5183 139.87 89.1674 139.979C88.821 140.084 88.4314 140.137 87.9984 140.137C87.3467 140.137 86.7953 140.021 86.3441 139.788C85.893 139.556 85.5512 139.255 85.3188 138.886C85.0863 138.517 84.9701 138.127 84.9701 137.717H86.2416C86.2598 138.063 86.3601 138.339 86.5424 138.544C86.7247 138.744 86.948 138.888 87.2123 138.975C87.4766 139.057 87.7387 139.098 87.9984 139.098C88.3448 139.098 88.6342 139.052 88.8666 138.961C89.1036 138.87 89.2836 138.744 89.4066 138.585C89.5297 138.425 89.5912 138.243 89.5912 138.038ZM94.191 132.604V140H92.9195V132.604H94.191ZM92.8238 130.642C92.8238 130.437 92.8854 130.263 93.0084 130.122C93.136 129.981 93.3229 129.91 93.5689 129.91C93.8105 129.91 93.9951 129.981 94.1227 130.122C94.2548 130.263 94.3209 130.437 94.3209 130.642C94.3209 130.838 94.2548 131.006 94.1227 131.147C93.9951 131.284 93.8105 131.353 93.5689 131.353C93.3229 131.353 93.136 131.284 93.0084 131.147C92.8854 131.006 92.8238 130.838 92.8238 130.642ZM99.618 132.604V133.574H95.6189V132.604H99.618ZM96.9725 130.806H98.2371V138.168C98.2371 138.419 98.2758 138.608 98.3533 138.735C98.4308 138.863 98.5311 138.947 98.6541 138.988C98.7771 139.029 98.9093 139.05 99.0506 139.05C99.1554 139.05 99.2648 139.041 99.3787 139.022C99.4972 139 99.5861 138.981 99.6453 138.968L99.6521 140C99.5519 140.032 99.4197 140.062 99.2557 140.089C99.0962 140.121 98.9025 140.137 98.6746 140.137C98.3647 140.137 98.0799 140.075 97.8201 139.952C97.5604 139.829 97.353 139.624 97.198 139.337C97.0477 139.045 96.9725 138.653 96.9725 138.161V130.806ZM102.775 132.604V140H101.504V132.604H102.775ZM101.408 130.642C101.408 130.437 101.47 130.263 101.593 130.122C101.72 129.981 101.907 129.91 102.153 129.91C102.395 129.91 102.579 129.981 102.707 130.122C102.839 130.263 102.905 130.437 102.905 130.642C102.905 130.838 102.839 131.006 102.707 131.147C102.579 131.284 102.395 131.353 102.153 131.353C101.907 131.353 101.72 131.284 101.593 131.147C101.47 131.006 101.408 130.838 101.408 130.642ZM107.355 138.858L109.378 132.604H110.67L108.011 140H107.163L107.355 138.858ZM105.666 132.604L107.751 138.893L107.895 140H107.047L104.367 132.604H105.666ZM115.161 140.137C114.646 140.137 114.178 140.05 113.759 139.877C113.344 139.699 112.987 139.451 112.686 139.132C112.39 138.813 112.162 138.435 112.002 137.997C111.843 137.56 111.763 137.081 111.763 136.562V136.274C111.763 135.673 111.852 135.137 112.03 134.668C112.207 134.194 112.449 133.793 112.754 133.465C113.06 133.137 113.406 132.888 113.793 132.72C114.181 132.551 114.582 132.467 114.996 132.467C115.525 132.467 115.981 132.558 116.364 132.74C116.751 132.923 117.068 133.178 117.314 133.506C117.56 133.829 117.742 134.212 117.861 134.654C117.979 135.092 118.038 135.57 118.038 136.09V136.657H112.515V135.625H116.774V135.529C116.756 135.201 116.687 134.882 116.569 134.572C116.455 134.262 116.273 134.007 116.022 133.807C115.771 133.606 115.429 133.506 114.996 133.506C114.709 133.506 114.445 133.567 114.204 133.69C113.962 133.809 113.755 133.987 113.581 134.224C113.408 134.461 113.274 134.75 113.178 135.092C113.082 135.434 113.035 135.828 113.035 136.274V136.562C113.035 136.912 113.082 137.243 113.178 137.553C113.278 137.858 113.422 138.127 113.609 138.359C113.8 138.592 114.03 138.774 114.299 138.906C114.573 139.038 114.883 139.104 115.229 139.104C115.676 139.104 116.054 139.013 116.364 138.831C116.674 138.649 116.945 138.405 117.177 138.1L117.943 138.708C117.783 138.95 117.58 139.18 117.334 139.398C117.088 139.617 116.785 139.795 116.425 139.932C116.07 140.068 115.648 140.137 115.161 140.137ZM129.084 137.484C129.084 137.252 129.047 137.047 128.974 136.869C128.906 136.687 128.783 136.523 128.605 136.377C128.432 136.231 128.191 136.092 127.881 135.96C127.575 135.828 127.188 135.693 126.719 135.557C126.226 135.411 125.782 135.249 125.386 135.071C124.989 134.889 124.65 134.682 124.367 134.449C124.084 134.217 123.868 133.95 123.718 133.649C123.567 133.349 123.492 133.005 123.492 132.617C123.492 132.23 123.572 131.872 123.731 131.544C123.891 131.216 124.119 130.931 124.415 130.689C124.716 130.443 125.073 130.252 125.488 130.115C125.903 129.979 126.365 129.91 126.876 129.91C127.623 129.91 128.257 130.054 128.776 130.341C129.3 130.623 129.699 130.995 129.972 131.455C130.246 131.911 130.383 132.398 130.383 132.918H129.07C129.07 132.544 128.99 132.214 128.831 131.927C128.671 131.635 128.43 131.407 128.106 131.243C127.783 131.075 127.373 130.99 126.876 130.99C126.406 130.99 126.019 131.061 125.714 131.202C125.408 131.343 125.18 131.535 125.03 131.776C124.884 132.018 124.811 132.294 124.811 132.604C124.811 132.813 124.855 133.005 124.941 133.178C125.032 133.346 125.171 133.504 125.358 133.649C125.55 133.795 125.791 133.93 126.083 134.053C126.379 134.176 126.732 134.294 127.142 134.408C127.707 134.568 128.195 134.745 128.605 134.941C129.015 135.137 129.353 135.358 129.617 135.604C129.886 135.846 130.084 136.122 130.212 136.432C130.344 136.737 130.41 137.083 130.41 137.471C130.41 137.876 130.328 138.243 130.164 138.571C130 138.899 129.765 139.18 129.46 139.412C129.154 139.645 128.788 139.825 128.359 139.952C127.935 140.075 127.461 140.137 126.937 140.137C126.477 140.137 126.024 140.073 125.577 139.945C125.135 139.818 124.732 139.626 124.367 139.371C124.007 139.116 123.718 138.801 123.499 138.428C123.285 138.049 123.178 137.612 123.178 137.115H124.49C124.49 137.457 124.556 137.751 124.688 137.997C124.82 138.239 125 138.439 125.228 138.599C125.461 138.758 125.723 138.877 126.014 138.954C126.311 139.027 126.618 139.063 126.937 139.063C127.398 139.063 127.787 139 128.106 138.872C128.425 138.744 128.667 138.562 128.831 138.325C128.999 138.088 129.084 137.808 129.084 137.484ZM135.27 140.137C134.755 140.137 134.287 140.05 133.868 139.877C133.453 139.699 133.096 139.451 132.795 139.132C132.499 138.813 132.271 138.435 132.111 137.997C131.952 137.56 131.872 137.081 131.872 136.562V136.274C131.872 135.673 131.961 135.137 132.139 134.668C132.316 134.194 132.558 133.793 132.863 133.465C133.169 133.137 133.515 132.888 133.902 132.72C134.29 132.551 134.691 132.467 135.105 132.467C135.634 132.467 136.09 132.558 136.473 132.74C136.86 132.923 137.177 133.178 137.423 133.506C137.669 133.829 137.851 134.212 137.97 134.654C138.088 135.092 138.147 135.57 138.147 136.09V136.657H132.624V135.625H136.883V135.529C136.865 135.201 136.796 134.882 136.678 134.572C136.564 134.262 136.382 134.007 136.131 133.807C135.88 133.606 135.538 133.506 135.105 133.506C134.818 133.506 134.554 133.567 134.312 133.69C134.071 133.809 133.864 133.987 133.69 134.224C133.517 134.461 133.383 134.75 133.287 135.092C133.191 135.434 133.144 135.828 133.144 136.274V136.562C133.144 136.912 133.191 137.243 133.287 137.553C133.387 137.858 133.531 138.127 133.718 138.359C133.909 138.592 134.139 138.774 134.408 138.906C134.682 139.038 134.992 139.104 135.338 139.104C135.785 139.104 136.163 139.013 136.473 138.831C136.783 138.649 137.054 138.405 137.286 138.1L138.052 138.708C137.892 138.95 137.689 139.18 137.443 139.398C137.197 139.617 136.894 139.795 136.534 139.932C136.179 140.068 135.757 140.137 135.27 140.137ZM141.189 134.183V140H139.924V132.604H141.12L141.189 134.183ZM140.888 136.021L140.362 136.001C140.366 135.495 140.441 135.028 140.587 134.6C140.733 134.167 140.938 133.791 141.202 133.472C141.467 133.153 141.781 132.907 142.146 132.733C142.515 132.556 142.923 132.467 143.369 132.467C143.734 132.467 144.062 132.517 144.354 132.617C144.645 132.713 144.894 132.868 145.099 133.082C145.308 133.296 145.468 133.574 145.577 133.916C145.687 134.253 145.741 134.666 145.741 135.153V140H144.47V135.14C144.47 134.752 144.413 134.442 144.299 134.21C144.185 133.973 144.019 133.802 143.8 133.697C143.581 133.588 143.312 133.533 142.993 133.533C142.679 133.533 142.392 133.599 142.132 133.731C141.877 133.864 141.656 134.046 141.469 134.278C141.287 134.511 141.143 134.777 141.038 135.078C140.938 135.374 140.888 135.689 140.888 136.021ZM151.059 132.604V133.574H147.06V132.604H151.059ZM148.413 130.806H149.678V138.168C149.678 138.419 149.717 138.608 149.794 138.735C149.872 138.863 149.972 138.947 150.095 138.988C150.218 139.029 150.35 139.05 150.492 139.05C150.596 139.05 150.706 139.041 150.82 139.022C150.938 139 151.027 138.981 151.086 138.968L151.093 140C150.993 140.032 150.861 140.062 150.697 140.089C150.537 140.121 150.343 140.137 150.116 140.137C149.806 140.137 149.521 140.075 149.261 139.952C149.001 139.829 148.794 139.624 148.639 139.337C148.489 139.045 148.413 138.653 148.413 138.161V130.806ZM154.216 132.604V140H152.945V132.604H154.216ZM152.849 130.642C152.849 130.437 152.911 130.263 153.034 130.122C153.161 129.981 153.348 129.91 153.594 129.91C153.836 129.91 154.02 129.981 154.148 130.122C154.28 130.263 154.346 130.437 154.346 130.642C154.346 130.838 154.28 131.006 154.148 131.147C154.02 131.284 153.836 131.353 153.594 131.353C153.348 131.353 153.161 131.284 153.034 131.147C152.911 131.006 152.849 130.838 152.849 130.642ZM157.804 134.073V140H156.533V132.604H157.736L157.804 134.073ZM157.545 136.021L156.957 136.001C156.961 135.495 157.027 135.028 157.155 134.6C157.283 134.167 157.472 133.791 157.722 133.472C157.973 133.153 158.285 132.907 158.659 132.733C159.033 132.556 159.466 132.467 159.958 132.467C160.304 132.467 160.623 132.517 160.915 132.617C161.207 132.713 161.459 132.866 161.674 133.075C161.888 133.285 162.054 133.554 162.173 133.882C162.291 134.21 162.35 134.606 162.35 135.071V140H161.086V135.133C161.086 134.745 161.02 134.436 160.887 134.203C160.76 133.971 160.578 133.802 160.341 133.697C160.104 133.588 159.826 133.533 159.507 133.533C159.133 133.533 158.821 133.599 158.57 133.731C158.319 133.864 158.119 134.046 157.969 134.278C157.818 134.511 157.709 134.777 157.64 135.078C157.577 135.374 157.545 135.689 157.545 136.021ZM162.337 135.324L161.489 135.584C161.494 135.178 161.56 134.789 161.687 134.415C161.819 134.041 162.009 133.709 162.255 133.417C162.505 133.125 162.813 132.895 163.178 132.727C163.542 132.553 163.959 132.467 164.429 132.467C164.825 132.467 165.176 132.519 165.481 132.624C165.791 132.729 166.051 132.891 166.261 133.109C166.475 133.324 166.637 133.599 166.746 133.937C166.855 134.274 166.91 134.675 166.91 135.14V140H165.638V135.126C165.638 134.711 165.572 134.39 165.44 134.162C165.313 133.93 165.13 133.768 164.893 133.677C164.661 133.581 164.383 133.533 164.059 133.533C163.781 133.533 163.535 133.581 163.321 133.677C163.107 133.772 162.927 133.905 162.781 134.073C162.635 134.237 162.524 134.426 162.446 134.641C162.373 134.855 162.337 135.083 162.337 135.324ZM172.193 140.137C171.678 140.137 171.211 140.05 170.792 139.877C170.377 139.699 170.02 139.451 169.719 139.132C169.423 138.813 169.195 138.435 169.035 137.997C168.876 137.56 168.796 137.081 168.796 136.562V136.274C168.796 135.673 168.885 135.137 169.062 134.668C169.24 134.194 169.482 133.793 169.787 133.465C170.092 133.137 170.439 132.888 170.826 132.72C171.214 132.551 171.615 132.467 172.029 132.467C172.558 132.467 173.014 132.558 173.396 132.74C173.784 132.923 174.101 133.178 174.347 133.506C174.593 133.829 174.775 134.212 174.894 134.654C175.012 135.092 175.071 135.57 175.071 136.09V136.657H169.548V135.625H173.807V135.529C173.788 135.201 173.72 134.882 173.602 134.572C173.488 134.262 173.305 134.007 173.055 133.807C172.804 133.606 172.462 133.506 172.029 133.506C171.742 133.506 171.478 133.567 171.236 133.69C170.995 133.809 170.787 133.987 170.614 134.224C170.441 134.461 170.307 134.75 170.211 135.092C170.115 135.434 170.067 135.828 170.067 136.274V136.562C170.067 136.912 170.115 137.243 170.211 137.553C170.311 137.858 170.455 138.127 170.642 138.359C170.833 138.592 171.063 138.774 171.332 138.906C171.605 139.038 171.915 139.104 172.262 139.104C172.708 139.104 173.087 139.013 173.396 138.831C173.706 138.649 173.978 138.405 174.21 138.1L174.976 138.708C174.816 138.95 174.613 139.18 174.367 139.398C174.121 139.617 173.818 139.795 173.458 139.932C173.103 140.068 172.681 140.137 172.193 140.137ZM178.113 134.183V140H176.848V132.604H178.044L178.113 134.183ZM177.812 136.021L177.285 136.001C177.29 135.495 177.365 135.028 177.511 134.6C177.657 134.167 177.862 133.791 178.126 133.472C178.39 133.153 178.705 132.907 179.07 132.733C179.439 132.556 179.847 132.467 180.293 132.467C180.658 132.467 180.986 132.517 181.278 132.617C181.569 132.713 181.818 132.868 182.023 133.082C182.232 133.296 182.392 133.574 182.501 133.916C182.611 134.253 182.665 134.666 182.665 135.153V140H181.394V135.14C181.394 134.752 181.337 134.442 181.223 134.21C181.109 133.973 180.943 133.802 180.724 133.697C180.505 133.588 180.236 133.533 179.917 133.533C179.603 133.533 179.316 133.599 179.056 133.731C178.801 133.864 178.58 134.046 178.393 134.278C178.21 134.511 178.067 134.777 177.962 135.078C177.862 135.374 177.812 135.689 177.812 136.021ZM187.983 132.604V133.574H183.984V132.604H187.983ZM185.337 130.806H186.602V138.168C186.602 138.419 186.641 138.608 186.718 138.735C186.796 138.863 186.896 138.947 187.019 138.988C187.142 139.029 187.274 139.05 187.415 139.05C187.52 139.05 187.63 139.041 187.744 139.022C187.862 139 187.951 138.981 188.01 138.968L188.017 140C187.917 140.032 187.785 140.062 187.621 140.089C187.461 140.121 187.267 140.137 187.039 140.137C186.73 140.137 186.445 140.075 186.185 139.952C185.925 139.829 185.718 139.624 185.563 139.337C185.412 139.045 185.337 138.653 185.337 138.161V130.806ZM194.073 138.038C194.073 137.856 194.032 137.687 193.95 137.532C193.872 137.373 193.711 137.229 193.464 137.102C193.223 136.969 192.858 136.855 192.371 136.76C191.961 136.673 191.589 136.571 191.256 136.452C190.928 136.334 190.648 136.19 190.416 136.021C190.188 135.853 190.012 135.655 189.889 135.427C189.766 135.199 189.705 134.932 189.705 134.627C189.705 134.335 189.768 134.06 189.896 133.8C190.028 133.54 190.213 133.31 190.45 133.109C190.691 132.909 190.981 132.752 191.318 132.638C191.655 132.524 192.031 132.467 192.446 132.467C193.038 132.467 193.544 132.572 193.963 132.781C194.383 132.991 194.704 133.271 194.927 133.622C195.151 133.968 195.262 134.354 195.262 134.777H193.998C193.998 134.572 193.936 134.374 193.813 134.183C193.695 133.987 193.519 133.825 193.287 133.697C193.059 133.57 192.779 133.506 192.446 133.506C192.095 133.506 191.81 133.561 191.591 133.67C191.377 133.775 191.22 133.909 191.12 134.073C191.024 134.237 190.976 134.41 190.976 134.593C190.976 134.729 190.999 134.853 191.045 134.962C191.095 135.067 191.181 135.165 191.304 135.256C191.427 135.342 191.601 135.424 191.824 135.502C192.047 135.579 192.332 135.657 192.678 135.734C193.284 135.871 193.783 136.035 194.175 136.227C194.567 136.418 194.859 136.653 195.05 136.931C195.242 137.209 195.338 137.546 195.338 137.942C195.338 138.266 195.269 138.562 195.132 138.831C195 139.1 194.807 139.332 194.551 139.528C194.301 139.72 194 139.87 193.649 139.979C193.303 140.084 192.913 140.137 192.48 140.137C191.828 140.137 191.277 140.021 190.826 139.788C190.375 139.556 190.033 139.255 189.8 138.886C189.568 138.517 189.452 138.127 189.452 137.717H190.723C190.741 138.063 190.842 138.339 191.024 138.544C191.206 138.744 191.43 138.888 191.694 138.975C191.958 139.057 192.22 139.098 192.48 139.098C192.826 139.098 193.116 139.052 193.348 138.961C193.585 138.87 193.765 138.744 193.888 138.585C194.011 138.425 194.073 138.243 194.073 138.038Z" fill="#0A0A0A"/>
<path d="M564.054 154.65V155.689H556.862V154.944L561.319 148.047H562.352L561.244 150.043L558.298 154.65H564.054ZM562.666 148.047V158H561.401V148.047H562.666ZM571.75 152.23V153.748C571.75 154.564 571.677 155.252 571.531 155.812C571.386 156.373 571.176 156.824 570.903 157.166C570.629 157.508 570.299 157.756 569.911 157.911C569.529 158.062 569.096 158.137 568.613 158.137C568.23 158.137 567.876 158.089 567.553 157.993C567.229 157.897 566.938 157.745 566.678 157.535C566.423 157.321 566.204 157.043 566.022 156.701C565.839 156.359 565.7 155.945 565.605 155.457C565.509 154.969 565.461 154.4 565.461 153.748V152.23C565.461 151.415 565.534 150.731 565.68 150.18C565.83 149.628 566.042 149.186 566.316 148.854C566.589 148.516 566.917 148.275 567.3 148.129C567.687 147.983 568.12 147.91 568.599 147.91C568.986 147.91 569.342 147.958 569.665 148.054C569.993 148.145 570.285 148.293 570.54 148.498C570.795 148.699 571.012 148.967 571.19 149.305C571.372 149.637 571.511 150.045 571.607 150.528C571.702 151.011 571.75 151.579 571.75 152.23ZM570.479 153.953V152.019C570.479 151.572 570.451 151.18 570.397 150.843C570.347 150.501 570.271 150.209 570.171 149.968C570.071 149.726 569.943 149.53 569.788 149.38C569.638 149.229 569.462 149.12 569.262 149.052C569.066 148.979 568.845 148.942 568.599 148.942C568.298 148.942 568.031 148.999 567.799 149.113C567.567 149.223 567.371 149.398 567.211 149.64C567.056 149.881 566.938 150.198 566.856 150.59C566.774 150.982 566.733 151.458 566.733 152.019V153.953C566.733 154.4 566.758 154.794 566.808 155.136C566.863 155.478 566.942 155.774 567.047 156.024C567.152 156.271 567.279 156.473 567.43 156.633C567.58 156.792 567.753 156.911 567.949 156.988C568.15 157.061 568.371 157.098 568.613 157.098C568.922 157.098 569.194 157.038 569.426 156.92C569.658 156.801 569.852 156.617 570.007 156.366C570.167 156.111 570.285 155.785 570.363 155.389C570.44 154.988 570.479 154.509 570.479 153.953ZM573.568 150.487V149.961C573.568 149.583 573.65 149.239 573.814 148.929C573.978 148.619 574.213 148.37 574.518 148.184C574.823 147.997 575.186 147.903 575.605 147.903C576.033 147.903 576.398 147.997 576.699 148.184C577.004 148.37 577.239 148.619 577.403 148.929C577.567 149.239 577.649 149.583 577.649 149.961V150.487C577.649 150.856 577.567 151.196 577.403 151.506C577.243 151.816 577.011 152.064 576.705 152.251C576.405 152.438 576.042 152.531 575.619 152.531C575.195 152.531 574.828 152.438 574.518 152.251C574.213 152.064 573.978 151.816 573.814 151.506C573.65 151.196 573.568 150.856 573.568 150.487ZM574.518 149.961V150.487C574.518 150.697 574.557 150.895 574.634 151.082C574.716 151.269 574.839 151.422 575.003 151.54C575.167 151.654 575.372 151.711 575.619 151.711C575.865 151.711 576.067 151.654 576.227 151.54C576.386 151.422 576.505 151.269 576.582 151.082C576.66 150.895 576.699 150.697 576.699 150.487V149.961C576.699 149.747 576.658 149.546 576.576 149.359C576.498 149.168 576.377 149.015 576.213 148.901C576.054 148.783 575.851 148.724 575.605 148.724C575.363 148.724 575.161 148.783 574.996 148.901C574.837 149.015 574.716 149.168 574.634 149.359C574.557 149.546 574.518 149.747 574.518 149.961ZM578.414 156.093V155.56C578.414 155.186 578.496 154.844 578.661 154.534C578.825 154.224 579.059 153.976 579.365 153.789C579.67 153.602 580.032 153.509 580.452 153.509C580.88 153.509 581.245 153.602 581.545 153.789C581.851 153.976 582.085 154.224 582.249 154.534C582.413 154.844 582.496 155.186 582.496 155.56V156.093C582.496 156.466 582.413 156.808 582.249 157.118C582.09 157.428 581.857 157.676 581.552 157.863C581.251 158.05 580.889 158.144 580.465 158.144C580.041 158.144 579.677 158.05 579.371 157.863C579.066 157.676 578.829 157.428 578.661 157.118C578.496 156.808 578.414 156.466 578.414 156.093ZM579.365 155.56V156.093C579.365 156.302 579.403 156.503 579.481 156.694C579.563 156.881 579.686 157.034 579.85 157.152C580.014 157.266 580.219 157.323 580.465 157.323C580.711 157.323 580.914 157.266 581.074 157.152C581.238 157.034 581.358 156.881 581.436 156.694C581.513 156.507 581.552 156.307 581.552 156.093V155.56C581.552 155.345 581.511 155.145 581.429 154.958C581.352 154.771 581.231 154.621 581.067 154.507C580.907 154.388 580.702 154.329 580.452 154.329C580.21 154.329 580.007 154.388 579.843 154.507C579.684 154.621 579.563 154.771 579.481 154.958C579.403 155.145 579.365 155.345 579.365 155.56ZM580.766 149.462L575.906 157.241L575.195 156.79L580.055 149.011L580.766 149.462Z" fill="#455560"/>
<rect x="67" y="149" width="481.5" height="8" rx="4" fill="#455560" fill-opacity="0.06"/>
<g clip-path="url(#clip6_96_1012)">
<rect x="67" y="149" width="195" height="8" rx="4" fill="#00CC66"/>
<rect x="67" y="149" width="19500" height="8" fill="#00CC66"/>
</g>
<defs>
<clipPath id="clip0_96_1012">
<rect width="33" height="33" fill="white" transform="translate(24 25.5)"/>
</clipPath>
<clipPath id="clip1_96_1012">
<rect width="32.0294" height="33" fill="white" transform="translate(24 25.5)"/>
</clipPath>
<clipPath id="clip2_96_1012">
<rect x="67" y="49" width="49" height="8" rx="4" fill="white"/>
</clipPath>
<clipPath id="clip3_96_1012">
<rect width="33" height="33" fill="white" transform="translate(24 75.5)"/>
</clipPath>
<clipPath id="clip4_96_1012">
<rect width="33" height="33" fill="white" transform="translate(24 125.5)"/>
</clipPath>
<clipPath id="clip5_96_1012">
<rect width="33" height="33" fill="white" transform="translate(24 125.5)"/>
</clipPath>
<clipPath id="clip6_96_1012">
<rect x="67" y="149" width="195" height="8" rx="4" fill="white"/>
</clipPath>
</defs>
</svg>