<svg width="578" height="197" viewBox="0 0 578 197" fill="none" xmlns="http://www.w3.org/2000/svg">
<rect width="577.403" height="196.028" fill="white"/>
<rect width="573.5" height="192.125" transform="translate(1.95117 1.95129)" fill="white"/>
<g clip-path="url(#clip0_91_3353)">
<g clip-path="url(#clip1_91_3353)">
<path d="M34.1862 54.9013C40.9434 54.9013 46.4212 49.4235 46.4212 42.6663C46.4212 35.9091 40.9434 30.4313 34.1862 30.4313C27.429 30.4313 21.9512 35.9091 21.9512 42.6663C21.9512 49.4235 27.429 54.9013 34.1862 54.9013Z" fill="#07AF57"/>
<path d="M32.6853 48.071C31.9819 48.071 31.278 48.0862 30.5753 48.0638C30.2686 48.0539 29.9507 48.0056 29.6612 47.9065C29.1344 47.726 28.7913 47.3353 28.671 46.7907C28.4152 45.6326 28.6313 44.5744 29.4417 43.6846C30.0148 43.0554 30.7776 42.8141 31.6032 42.7929C32.5445 42.7685 33.487 42.7705 34.4283 42.7877C35.2109 42.8016 35.8878 43.1043 36.4628 43.637C36.5706 43.7369 36.5858 43.8307 36.5171 43.9596C36.2084 44.536 36.4093 44.3913 35.7701 44.5096C35.6624 44.5294 35.5513 44.5334 35.443 44.5519C34.9829 44.6292 34.6577 44.8758 34.5057 45.3246C34.3549 45.7688 34.4659 46.1554 34.7859 46.4866C34.9472 46.6539 35.1283 46.8019 35.281 46.9764C35.3392 47.0425 35.3709 47.1582 35.3643 47.2475C35.3491 47.4477 35.3021 47.6453 35.2684 47.8443C35.2406 48.0076 35.1561 48.0783 34.9796 48.0763C34.2155 48.0684 33.4507 48.073 32.6859 48.073L32.6853 48.071Z" fill="white"/>
<path d="M35.3255 39.2659C35.3255 40.5707 34.272 41.6171 32.9631 41.6132C31.6828 41.6092 30.6278 40.5502 30.6292 39.2706C30.6311 37.9631 31.6835 36.9121 32.9869 36.9154C34.2845 36.9181 35.3255 37.9651 35.3255 39.2659Z" fill="white"/>
<path d="M36.3339 46.8338C36.2996 46.7796 36.2619 46.6896 36.1978 46.6255C35.9559 46.3836 35.6974 46.1575 35.4615 45.9103C35.3914 45.8363 35.3339 45.7094 35.3418 45.6123C35.3524 45.4793 35.4799 45.4311 35.6134 45.4146C35.9406 45.3742 36.2665 45.3201 36.5938 45.2824C36.7748 45.2612 36.8939 45.1839 36.9712 45.0127C37.1001 44.7298 37.2508 44.4562 37.3883 44.1765C37.449 44.053 37.535 43.9366 37.6765 43.9717C37.7789 43.9967 37.8946 44.0827 37.9481 44.1739C38.108 44.4475 38.2475 44.7338 38.3804 45.022C38.4564 45.1859 38.5721 45.2592 38.7459 45.2804C39.0731 45.3194 39.399 45.3722 39.7261 45.4133C39.8584 45.4297 39.9662 45.4734 40.0104 45.6056C40.0574 45.7437 39.9741 45.8363 39.8815 45.9236C39.6416 46.1503 39.4076 46.383 39.1623 46.6044C39.044 46.7114 39.009 46.8304 39.0368 46.9811C39.0923 47.2879 39.1399 47.5952 39.198 47.9012C39.2245 48.0414 39.2297 48.1709 39.1042 48.2668C38.9766 48.3639 38.851 48.3163 38.7268 48.2516C38.4339 48.0995 38.1392 47.9521 37.8483 47.7968C37.7293 47.7334 37.6235 47.73 37.5026 47.7949C37.2064 47.9535 36.9056 48.1022 36.6076 48.2576C36.4806 48.3236 36.3544 48.36 36.2315 48.2588C36.1178 48.165 36.1217 48.0414 36.1469 47.9072C36.2117 47.5654 36.2659 47.2217 36.3326 46.8338H36.3339Z" fill="white"/>
</g>
</g>
<path d="M58.7119 37.9108H60.4575C60.411 38.5286 60.2396 39.0766 59.9434 39.5548C59.6471 40.0288 59.2345 40.4012 58.7056 40.672C58.1766 40.9428 57.5355 41.0782 56.7822 41.0782C56.2025 41.0782 55.6799 40.9767 55.2144 40.7736C54.7531 40.5662 54.3574 40.2721 54.0273 39.8912C53.7015 39.5061 53.4518 39.0449 53.2783 38.5074C53.1048 37.9658 53.0181 37.3585 53.0181 36.6857V35.9811C53.0181 35.3082 53.1069 34.701 53.2847 34.1593C53.4624 33.6176 53.7163 33.1564 54.0464 32.7755C54.3807 32.3904 54.7806 32.0942 55.2461 31.8868C55.7158 31.6795 56.2406 31.5758 56.8203 31.5758C57.5736 31.5758 58.2104 31.7155 58.731 31.9948C59.2515 32.2698 59.6556 32.6486 59.9434 33.131C60.2311 33.6134 60.4046 34.1678 60.4639 34.7941H58.7183C58.6844 34.4047 58.5998 34.0747 58.4644 33.8038C58.3332 33.533 58.1343 33.3278 57.8677 33.1881C57.6053 33.0442 57.2562 32.9723 56.8203 32.9723C56.4818 32.9723 56.1834 33.0358 55.9253 33.1627C55.6714 33.2897 55.4598 33.4801 55.2905 33.734C55.1213 33.9837 54.9943 34.2968 54.9097 34.6735C54.825 35.0459 54.7827 35.4775 54.7827 35.9684V36.6857C54.7827 37.1554 54.8208 37.5765 54.897 37.9489C54.9731 38.3212 55.0916 38.6365 55.2524 38.8947C55.4132 39.1528 55.6206 39.3496 55.8745 39.485C56.1284 39.6204 56.431 39.6881 56.7822 39.6881C57.2096 39.6881 57.5566 39.6204 57.8232 39.485C58.0941 39.3496 58.2993 39.1507 58.439 38.8883C58.5828 38.6259 58.6738 38.3001 58.7119 37.9108ZM66.0705 39.3199V34.0831H67.759V40.9513H66.1721L66.0705 39.3199ZM66.2863 37.8981L66.8068 37.8854C66.8068 38.3466 66.7561 38.7719 66.6545 39.1613C66.5529 39.5506 66.3942 39.8891 66.1784 40.1769C65.9668 40.4604 65.6981 40.6826 65.3723 40.8434C65.0464 41 64.6613 41.0782 64.217 41.0782C63.8785 41.0782 63.5695 41.0317 63.2902 40.9386C63.0109 40.8413 62.7697 40.691 62.5666 40.4879C62.3677 40.2806 62.2132 40.0161 62.1032 39.6945C61.9932 39.3686 61.9382 38.9772 61.9382 38.5201V34.0831H63.614V38.5328C63.614 38.7614 63.6394 38.9518 63.6901 39.1041C63.7451 39.2565 63.8192 39.3813 63.9123 39.4786C64.0096 39.5717 64.1218 39.6394 64.2487 39.6818C64.3799 39.7198 64.5196 39.7389 64.6677 39.7389C65.0739 39.7389 65.3934 39.6585 65.6262 39.4977C65.8632 39.3326 66.0324 39.1126 66.134 38.8375C66.2355 38.5582 66.2863 38.2451 66.2863 37.8981ZM73.3212 39.0724C73.3212 38.9285 73.2831 38.7994 73.2069 38.6852C73.1308 38.5709 72.9869 38.4672 72.7753 38.3741C72.5679 38.2768 72.2632 38.1858 71.8612 38.1012C71.5058 38.025 71.1778 37.9298 70.8773 37.8156C70.5769 37.7013 70.3188 37.5638 70.1029 37.403C69.8871 37.2379 69.7178 37.0454 69.5951 36.8253C69.4766 36.601 69.4174 36.3429 69.4174 36.0509C69.4174 35.7674 69.4787 35.5008 69.6015 35.2511C69.7242 34.9972 69.9019 34.775 70.1347 34.5846C70.3674 34.3899 70.6509 34.2376 70.9853 34.1276C71.3196 34.0133 71.6962 33.9562 72.1151 33.9562C72.6991 33.9562 73.2006 34.0514 73.6195 34.2418C74.0427 34.4323 74.3664 34.6946 74.5907 35.0289C74.815 35.359 74.9271 35.7314 74.9271 36.1461H73.2514C73.2514 35.9642 73.209 35.7991 73.1244 35.651C73.044 35.5029 72.9192 35.3844 72.7499 35.2955C72.5806 35.2024 72.3669 35.1559 72.1088 35.1559C71.876 35.1559 71.6793 35.194 71.5185 35.2701C71.3619 35.3463 71.2434 35.4458 71.163 35.5685C71.0826 35.6912 71.0424 35.8266 71.0424 35.9747C71.0424 36.0848 71.0635 36.1842 71.1059 36.2731C71.1524 36.3577 71.2265 36.436 71.328 36.5079C71.4296 36.5799 71.5671 36.6455 71.7406 36.7047C71.9184 36.764 72.1363 36.8211 72.3944 36.8761C72.9065 36.9777 73.3529 37.1131 73.7338 37.2823C74.1189 37.4474 74.4193 37.6674 74.6352 37.9425C74.851 38.2176 74.9589 38.5688 74.9589 38.9962C74.9589 39.3009 74.8933 39.5802 74.7621 39.8341C74.6309 40.0838 74.4405 40.3017 74.1908 40.4879C73.9411 40.6741 73.6428 40.8201 73.2958 40.9259C72.9488 41.0275 72.5574 41.0782 72.1215 41.0782C71.491 41.0782 70.9577 40.9661 70.5219 40.7418C70.086 40.5133 69.7559 40.2255 69.5316 39.8785C69.3074 39.5273 69.1952 39.1634 69.1952 38.7867H70.8012C70.8139 39.0533 70.8858 39.267 71.017 39.4279C71.1482 39.5887 71.3132 39.705 71.5121 39.777C71.7152 39.8447 71.9289 39.8785 72.1532 39.8785C72.4071 39.8785 72.6208 39.8447 72.7943 39.777C72.9678 39.705 73.099 39.6098 73.1879 39.4913C73.2768 39.3686 73.3212 39.229 73.3212 39.0724ZM79.7848 34.0831V35.2892H75.8492V34.0831H79.7848ZM76.9029 32.3947H78.5851V38.9708C78.5851 39.174 78.6126 39.3305 78.6676 39.4406C78.7226 39.5506 78.8051 39.6246 78.9151 39.6627C79.0252 39.7008 79.1563 39.7198 79.3087 39.7198C79.4187 39.7198 79.5203 39.7135 79.6134 39.7008C79.7065 39.6881 79.7848 39.6754 79.8482 39.6627L79.8546 40.9196C79.7149 40.9661 79.5562 41.0042 79.3785 41.0338C79.205 41.0634 79.0082 41.0782 78.7882 41.0782C78.4116 41.0782 78.0815 41.0148 77.7979 40.8878C77.5144 40.7566 77.2944 40.5472 77.1378 40.2594C76.9812 39.9674 76.9029 39.5823 76.9029 39.1041V32.3947ZM80.7386 37.587V37.4537C80.7386 36.9502 80.8105 36.4868 80.9544 36.0636C81.0983 35.6362 81.3077 35.2659 81.5828 34.9528C81.8579 34.6396 82.1943 34.3963 82.5921 34.2228C82.9899 34.045 83.4427 33.9562 83.9505 33.9562C84.4668 33.9562 84.9238 34.045 85.3216 34.2228C85.7236 34.3963 86.0621 34.6396 86.3372 34.9528C86.6123 35.2659 86.8217 35.6362 86.9656 36.0636C87.1095 36.4868 87.1814 36.9502 87.1814 37.4537V37.587C87.1814 38.0864 87.1095 38.5498 86.9656 38.9772C86.8217 39.4003 86.6123 39.7706 86.3372 40.088C86.0621 40.4012 85.7257 40.6445 85.3279 40.818C84.9301 40.9915 84.4752 41.0782 83.9632 41.0782C83.4554 41.0782 83.0005 40.9915 82.5984 40.818C82.1964 40.6445 81.8579 40.4012 81.5828 40.088C81.3077 39.7706 81.0983 39.4003 80.9544 38.9772C80.8105 38.5498 80.7386 38.0864 80.7386 37.587ZM82.4144 37.4537V37.587C82.4144 37.8875 82.444 38.1689 82.5032 38.4313C82.5625 38.6936 82.6535 38.9243 82.7762 39.1232C82.8989 39.3221 83.0576 39.4786 83.2522 39.5929C83.4511 39.7029 83.6881 39.7579 83.9632 39.7579C84.234 39.7579 84.4668 39.7029 84.6614 39.5929C84.8561 39.4786 85.0148 39.3221 85.1375 39.1232C85.2645 38.9243 85.3576 38.6936 85.4168 38.4313C85.476 38.1689 85.5057 37.8875 85.5057 37.587V37.4537C85.5057 37.1575 85.476 36.8803 85.4168 36.6222C85.3576 36.3598 85.2645 36.1292 85.1375 35.9303C85.0148 35.7272 84.854 35.5685 84.6551 35.4542C84.4604 35.3357 84.2256 35.2765 83.9505 35.2765C83.6797 35.2765 83.4469 35.3357 83.2522 35.4542C83.0576 35.5685 82.8989 35.7272 82.7762 35.9303C82.6535 36.1292 82.5625 36.3598 82.5032 36.6222C82.444 36.8803 82.4144 37.1575 82.4144 37.4537ZM90.3696 35.4923V40.9513H88.6938V34.0831H90.2744L90.3696 35.4923ZM90.1221 37.2697H89.6079C89.6079 36.7915 89.665 36.3514 89.7793 35.9493C89.8978 35.5473 90.0713 35.1982 90.2998 34.902C90.5283 34.6015 90.8097 34.3688 91.144 34.2037C91.4826 34.0387 91.874 33.9562 92.3184 33.9562C92.6273 33.9562 92.9108 34.0027 93.1689 34.0958C93.4271 34.1847 93.6493 34.3265 93.8354 34.5211C94.0259 34.7115 94.1719 34.9612 94.2734 35.2701C94.375 35.5748 94.4258 35.9409 94.4258 36.3683V40.9513H92.75V36.5397C92.75 36.2181 92.7035 35.9663 92.6104 35.7843C92.5215 35.6023 92.3924 35.4754 92.2231 35.4034C92.0539 35.3273 91.8507 35.2892 91.6138 35.2892C91.3514 35.2892 91.125 35.3421 90.9346 35.4479C90.7484 35.5494 90.5939 35.6912 90.4712 35.8732C90.3527 36.0551 90.2638 36.2646 90.2046 36.5016C90.1496 36.7386 90.1221 36.9946 90.1221 37.2697ZM94.2988 36.9586L93.6069 37.0856C93.6112 36.6539 93.6704 36.2498 93.7847 35.8732C93.8989 35.4923 94.0661 35.1601 94.2861 34.8766C94.5104 34.5888 94.7876 34.3645 95.1177 34.2037C95.452 34.0387 95.8371 33.9562 96.2729 33.9562C96.6115 33.9562 96.9162 34.0048 97.187 34.1022C97.4621 34.1953 97.6969 34.3455 97.8916 34.5529C98.0863 34.756 98.2344 35.0205 98.3359 35.3463C98.4417 35.6722 98.4946 36.0699 98.4946 36.5397V40.9513H96.8062V36.5333C96.8062 36.199 96.7596 35.943 96.6665 35.7653C96.5776 35.5875 96.4486 35.4648 96.2793 35.3971C96.11 35.3252 95.9111 35.2892 95.6826 35.2892C95.4499 35.2892 95.2467 35.3336 95.0732 35.4225C94.904 35.5071 94.7601 35.6256 94.6416 35.778C94.5273 35.9303 94.4406 36.108 94.3813 36.3112C94.3263 36.5101 94.2988 36.7259 94.2988 36.9586ZM103.384 41.0782C102.863 41.0782 102.396 40.9936 101.981 40.8243C101.566 40.6551 101.213 40.4202 100.921 40.1198C100.633 39.8151 100.411 39.4617 100.255 39.0597C100.102 38.6534 100.026 38.2176 100.026 37.7521V37.4982C100.026 36.9692 100.102 36.4889 100.255 36.0573C100.407 35.6214 100.623 35.2469 100.902 34.9337C101.181 34.6206 101.516 34.3794 101.905 34.2101C102.294 34.0408 102.724 33.9562 103.194 33.9562C103.68 33.9562 104.11 34.0387 104.482 34.2037C104.855 34.3645 105.166 34.5931 105.415 34.8893C105.665 35.1855 105.853 35.541 105.98 35.9557C106.107 36.3662 106.171 36.8211 106.171 37.3204V38.025H100.788V36.8698H104.52V36.7428C104.512 36.4762 104.461 36.2329 104.368 36.0128C104.275 35.7885 104.131 35.6108 103.936 35.4796C103.742 35.3442 103.49 35.2765 103.181 35.2765C102.931 35.2765 102.713 35.3315 102.527 35.4415C102.345 35.5473 102.193 35.6997 102.07 35.8986C101.952 36.0932 101.863 36.326 101.803 36.5968C101.744 36.8676 101.715 37.1681 101.715 37.4982V37.7521C101.715 38.0398 101.753 38.3064 101.829 38.5519C101.909 38.7973 102.026 39.011 102.178 39.193C102.335 39.3707 102.521 39.5104 102.737 39.6119C102.957 39.7093 103.206 39.7579 103.486 39.7579C103.837 39.7579 104.154 39.6902 104.438 39.5548C104.725 39.4152 104.975 39.2099 105.187 38.9391L106.031 39.8151C105.887 40.0267 105.692 40.2298 105.447 40.4244C105.206 40.6191 104.914 40.7778 104.571 40.9005C104.228 41.019 103.833 41.0782 103.384 41.0782ZM109.27 35.486V40.9513H107.594V34.0831H109.181L109.27 35.486ZM111.358 34.0387L111.333 35.6002C111.24 35.5833 111.134 35.5706 111.016 35.5621C110.901 35.5537 110.793 35.5494 110.692 35.5494C110.434 35.5494 110.207 35.5854 110.013 35.6573C109.818 35.7251 109.655 35.8245 109.524 35.9557C109.397 36.0869 109.3 36.2477 109.232 36.4381C109.164 36.6243 109.126 36.8359 109.118 37.0729L108.756 37.0284C108.756 36.5926 108.8 36.1884 108.889 35.816C108.978 35.4436 109.107 35.1178 109.276 34.8385C109.446 34.5592 109.657 34.3434 109.911 34.191C110.169 34.0345 110.465 33.9562 110.8 33.9562C110.893 33.9562 110.992 33.9646 111.098 33.9816C111.208 33.9943 111.295 34.0133 111.358 34.0387ZM121.08 38.5519C121.08 38.3741 121.052 38.2155 120.997 38.0758C120.947 37.9319 120.851 37.8029 120.712 37.6886C120.576 37.5701 120.384 37.4559 120.134 37.3458C119.889 37.2316 119.571 37.1131 119.182 36.9904C118.75 36.8549 118.348 36.7026 117.976 36.5333C117.603 36.3641 117.276 36.1673 116.992 35.943C116.713 35.7187 116.495 35.4606 116.338 35.1686C116.182 34.8724 116.103 34.5296 116.103 34.1403C116.103 33.7594 116.184 33.4124 116.345 33.0992C116.51 32.7861 116.742 32.5174 117.043 32.2931C117.343 32.0646 117.697 31.889 118.103 31.7662C118.513 31.6435 118.966 31.5822 119.461 31.5822C120.147 31.5822 120.739 31.707 121.239 31.9567C121.742 32.2063 122.131 32.5449 122.407 32.9723C122.682 33.3997 122.819 33.88 122.819 34.4132H121.08C121.08 34.1254 121.019 33.8715 120.896 33.6515C120.777 33.4314 120.595 33.2579 120.35 33.131C120.109 33.004 119.804 32.9406 119.436 32.9406C119.08 32.9406 118.784 32.9934 118.547 33.0992C118.314 33.205 118.139 33.3489 118.02 33.5309C117.906 33.7128 117.849 33.916 117.849 34.1403C117.849 34.3095 117.889 34.4619 117.97 34.5973C118.05 34.7285 118.171 34.8533 118.331 34.9718C118.492 35.0861 118.691 35.194 118.928 35.2955C119.169 35.3929 119.449 35.4902 119.766 35.5875C120.274 35.7399 120.718 35.9091 121.099 36.0953C121.484 36.2815 121.804 36.4931 122.057 36.7301C122.316 36.9671 122.508 37.2337 122.635 37.5299C122.766 37.8261 122.832 38.1626 122.832 38.5392C122.832 38.937 122.754 39.2924 122.597 39.6056C122.44 39.9187 122.216 40.1853 121.924 40.4054C121.632 40.6254 121.281 40.7926 120.87 40.9069C120.464 41.0211 120.009 41.0782 119.506 41.0782C119.057 41.0782 118.613 41.019 118.173 40.9005C117.737 40.7778 117.341 40.5958 116.986 40.3546C116.63 40.1092 116.347 39.8003 116.135 39.4279C115.923 39.0512 115.818 38.6111 115.818 38.1075H117.57C117.57 38.3995 117.616 38.6492 117.709 38.8566C117.807 39.0597 117.942 39.2268 118.116 39.358C118.293 39.485 118.501 39.5781 118.738 39.6373C118.975 39.6966 119.231 39.7262 119.506 39.7262C119.861 39.7262 120.153 39.6775 120.382 39.5802C120.614 39.4786 120.788 39.339 120.902 39.1613C121.021 38.9835 121.08 38.7804 121.08 38.5519ZM126.026 35.4034V43.5919H124.344V34.0831H125.899L126.026 35.4034ZM130.438 37.4474V37.5807C130.438 38.08 130.379 38.5434 130.26 38.9708C130.146 39.394 129.977 39.7643 129.752 40.0817C129.528 40.3948 129.249 40.6403 128.915 40.818C128.584 40.9915 128.204 41.0782 127.772 41.0782C127.349 41.0782 126.981 40.9978 126.667 40.837C126.354 40.672 126.09 40.4392 125.874 40.1388C125.658 39.8383 125.485 39.4892 125.354 39.0914C125.227 38.6894 125.131 38.2514 125.068 37.7775V37.3522C125.131 36.8486 125.227 36.3916 125.354 35.9811C125.485 35.5664 125.658 35.2088 125.874 34.9083C126.09 34.6036 126.352 34.3688 126.661 34.2037C126.974 34.0387 127.34 33.9562 127.759 33.9562C128.195 33.9562 128.578 34.0387 128.908 34.2037C129.243 34.3688 129.524 34.6058 129.752 34.9147C129.981 35.2236 130.152 35.5918 130.267 36.0192C130.381 36.4466 130.438 36.9226 130.438 37.4474ZM128.756 37.5807V37.4474C128.756 37.1427 128.728 36.8613 128.673 36.6031C128.618 36.3408 128.534 36.1123 128.419 35.9176C128.305 35.7187 128.157 35.5642 127.975 35.4542C127.793 35.3442 127.573 35.2892 127.315 35.2892C127.057 35.2892 126.835 35.3315 126.648 35.4161C126.462 35.5008 126.31 35.6214 126.191 35.778C126.073 35.9345 125.98 36.1207 125.912 36.3365C125.849 36.5481 125.806 36.783 125.785 37.0411V38.0948C125.823 38.408 125.897 38.6894 126.007 38.9391C126.117 39.1888 126.278 39.3877 126.49 39.5358C126.706 39.6839 126.985 39.7579 127.328 39.7579C127.586 39.7579 127.806 39.7008 127.988 39.5865C128.17 39.4723 128.318 39.3157 128.432 39.1168C128.546 38.9137 128.629 38.6809 128.68 38.4186C128.73 38.1562 128.756 37.8769 128.756 37.5807ZM135.048 41.0782C134.528 41.0782 134.06 40.9936 133.645 40.8243C133.231 40.6551 132.877 40.4202 132.585 40.1198C132.297 39.8151 132.075 39.4617 131.919 39.0597C131.766 38.6534 131.69 38.2176 131.69 37.7521V37.4982C131.69 36.9692 131.766 36.4889 131.919 36.0573C132.071 35.6214 132.287 35.2469 132.566 34.9337C132.845 34.6206 133.18 34.3794 133.569 34.2101C133.958 34.0408 134.388 33.9562 134.858 33.9562C135.344 33.9562 135.774 34.0387 136.146 34.2037C136.519 34.3645 136.83 34.5931 137.079 34.8893C137.329 35.1855 137.517 35.541 137.644 35.9557C137.771 36.3662 137.835 36.8211 137.835 37.3204V38.025H132.452V36.8698H136.184V36.7428C136.176 36.4762 136.125 36.2329 136.032 36.0128C135.939 35.7885 135.795 35.6108 135.6 35.4796C135.406 35.3442 135.154 35.2765 134.845 35.2765C134.595 35.2765 134.377 35.3315 134.191 35.4415C134.009 35.5473 133.857 35.6997 133.734 35.8986C133.616 36.0932 133.527 36.326 133.467 36.5968C133.408 36.8676 133.379 37.1681 133.379 37.4982V37.7521C133.379 38.0398 133.417 38.3064 133.493 38.5519C133.573 38.7973 133.69 39.011 133.842 39.193C133.999 39.3707 134.185 39.5104 134.401 39.6119C134.621 39.7093 134.87 39.7579 135.15 39.7579C135.501 39.7579 135.818 39.6902 136.102 39.5548C136.39 39.4152 136.639 39.2099 136.851 38.9391L137.695 39.8151C137.551 40.0267 137.356 40.2298 137.111 40.4244C136.87 40.6191 136.578 40.7778 136.235 40.9005C135.892 41.019 135.497 41.0782 135.048 41.0782ZM143.041 39.4913V36.3239C143.041 36.0911 143.001 35.8901 142.921 35.7208C142.84 35.5516 142.718 35.4204 142.553 35.3273C142.388 35.2342 142.178 35.1876 141.924 35.1876C141.7 35.1876 141.503 35.2257 141.334 35.3019C141.169 35.3781 141.042 35.486 140.953 35.6256C140.864 35.761 140.82 35.9176 140.82 36.0953H139.138C139.138 35.8118 139.205 35.5431 139.341 35.2892C139.476 35.031 139.669 34.8025 139.918 34.6036C140.172 34.4005 140.475 34.2418 140.826 34.1276C141.182 34.0133 141.579 33.9562 142.019 33.9562C142.54 33.9562 143.003 34.045 143.41 34.2228C143.82 34.3963 144.142 34.6587 144.374 35.0099C144.611 35.3611 144.73 35.8033 144.73 36.3365V39.3326C144.73 39.6754 144.751 39.9695 144.793 40.215C144.84 40.4562 144.908 40.6656 144.996 40.8434V40.9513H143.289C143.209 40.7778 143.147 40.5577 143.105 40.2911C143.063 40.0203 143.041 39.7537 143.041 39.4913ZM143.276 36.7682L143.289 37.7648H142.229C141.967 37.7648 141.736 37.7923 141.537 37.8473C141.338 37.8981 141.175 37.9742 141.048 38.0758C140.921 38.1731 140.826 38.2916 140.763 38.4313C140.699 38.5667 140.667 38.7212 140.667 38.8947C140.667 39.0639 140.705 39.2163 140.782 39.3517C140.862 39.4871 140.976 39.595 141.124 39.6754C141.277 39.7516 141.454 39.7897 141.658 39.7897C141.954 39.7897 142.212 39.7304 142.432 39.6119C142.652 39.4892 142.823 39.3411 142.946 39.1676C143.069 38.9941 143.135 38.8291 143.143 38.6725L143.625 39.3961C143.566 39.5696 143.477 39.7537 143.359 39.9484C143.24 40.143 143.088 40.325 142.902 40.4943C142.716 40.6635 142.491 40.8032 142.229 40.9132C141.967 41.0232 141.662 41.0782 141.315 41.0782C140.871 41.0782 140.473 40.9894 140.121 40.8116C139.77 40.6339 139.493 40.3906 139.29 40.0817C139.087 39.7727 138.985 39.4215 138.985 39.028C138.985 38.664 139.053 38.3424 139.188 38.0631C139.324 37.7838 139.525 37.549 139.791 37.3585C140.058 37.1639 140.388 37.0179 140.782 36.9205C141.179 36.819 141.634 36.7682 142.146 36.7682H143.276ZM148.216 31.1949V40.9513H146.541V31.1949H148.216ZM152.52 34.0831L149.53 37.441L147.912 39.0851L147.379 37.7838L148.629 36.2096L150.495 34.0831H152.52ZM150.806 40.9513L148.68 37.7521L149.797 36.6666L152.749 40.9513H150.806ZM161.023 31.7091V40.9513H159.284V31.7091H161.023ZM163.892 31.7091V33.0865H156.446V31.7091H163.892ZM167.004 34.0831V40.9513H165.322V34.0831H167.004ZM165.208 32.2867C165.208 32.0371 165.292 31.8297 165.462 31.6647C165.635 31.4996 165.868 31.4171 166.16 31.4171C166.452 31.4171 166.682 31.4996 166.852 31.6647C167.025 31.8297 167.112 32.0371 167.112 32.2867C167.112 32.5322 167.025 32.7374 166.852 32.9025C166.682 33.0675 166.452 33.15 166.16 33.15C165.868 33.15 165.635 33.0675 165.462 32.9025C165.292 32.7374 165.208 32.5322 165.208 32.2867ZM170.573 35.4923V40.9513H168.897V34.0831H170.478L170.573 35.4923ZM170.326 37.2697H169.811C169.811 36.7915 169.869 36.3514 169.983 35.9493C170.101 35.5473 170.275 35.1982 170.503 34.902C170.732 34.6015 171.013 34.3688 171.348 34.2037C171.686 34.0387 172.078 33.9562 172.522 33.9562C172.831 33.9562 173.114 34.0027 173.372 34.0958C173.631 34.1847 173.853 34.3265 174.039 34.5211C174.229 34.7115 174.375 34.9612 174.477 35.2701C174.579 35.5748 174.629 35.9409 174.629 36.3683V40.9513H172.954V36.5397C172.954 36.2181 172.907 35.9663 172.814 35.7843C172.725 35.6023 172.596 35.4754 172.427 35.4034C172.257 35.3273 172.054 35.2892 171.817 35.2892C171.555 35.2892 171.329 35.3421 171.138 35.4479C170.952 35.5494 170.797 35.6912 170.675 35.8732C170.556 36.0551 170.467 36.2646 170.408 36.5016C170.353 36.7386 170.326 36.9946 170.326 37.2697ZM174.502 36.9586L173.81 37.0856C173.815 36.6539 173.874 36.2498 173.988 35.8732C174.102 35.4923 174.27 35.1601 174.49 34.8766C174.714 34.5888 174.991 34.3645 175.321 34.2037C175.655 34.0387 176.041 33.9562 176.476 33.9562C176.815 33.9562 177.12 34.0048 177.391 34.1022C177.666 34.1953 177.9 34.3455 178.095 34.5529C178.29 34.756 178.438 35.0205 178.539 35.3463C178.645 35.6722 178.698 36.0699 178.698 36.5397V40.9513H177.01V36.5333C177.01 36.199 176.963 35.943 176.87 35.7653C176.781 35.5875 176.652 35.4648 176.483 35.3971C176.314 35.3252 176.115 35.2892 175.886 35.2892C175.653 35.2892 175.45 35.3336 175.277 35.4225C175.107 35.5071 174.964 35.6256 174.845 35.778C174.731 35.9303 174.644 36.108 174.585 36.3112C174.53 36.5101 174.502 36.7259 174.502 36.9586ZM183.588 41.0782C183.067 41.0782 182.599 40.9936 182.185 40.8243C181.77 40.6551 181.417 40.4202 181.125 40.1198C180.837 39.8151 180.615 39.4617 180.458 39.0597C180.306 38.6534 180.23 38.2176 180.23 37.7521V37.4982C180.23 36.9692 180.306 36.4889 180.458 36.0573C180.61 35.6214 180.826 35.2469 181.106 34.9337C181.385 34.6206 181.719 34.3794 182.108 34.2101C182.498 34.0408 182.927 33.9562 183.397 33.9562C183.884 33.9562 184.313 34.0387 184.686 34.2037C185.058 34.3645 185.369 34.5931 185.619 34.8893C185.868 35.1855 186.057 35.541 186.184 35.9557C186.311 36.3662 186.374 36.8211 186.374 37.3204V38.025H180.991V36.8698H184.724V36.7428C184.715 36.4762 184.664 36.2329 184.571 36.0128C184.478 35.7885 184.334 35.6108 184.14 35.4796C183.945 35.3442 183.693 35.2765 183.384 35.2765C183.135 35.2765 182.917 35.3315 182.731 35.4415C182.549 35.5473 182.396 35.6997 182.274 35.8986C182.155 36.0932 182.066 36.326 182.007 36.5968C181.948 36.8676 181.918 37.1681 181.918 37.4982V37.7521C181.918 38.0398 181.956 38.3064 182.032 38.5519C182.113 38.7973 182.229 39.011 182.381 39.193C182.538 39.3707 182.724 39.5104 182.94 39.6119C183.16 39.7093 183.41 39.7579 183.689 39.7579C184.04 39.7579 184.358 39.6902 184.641 39.5548C184.929 39.4152 185.179 39.2099 185.39 38.9391L186.234 39.8151C186.091 40.0267 185.896 40.2298 185.65 40.4244C185.409 40.6191 185.117 40.7778 184.775 40.9005C184.432 41.019 184.036 41.0782 183.588 41.0782Z" fill="black"/>
<g clip-path="url(#clip2_91_3353)">
<rect x="52.4214" y="50.4563" width="453.03" height="7" rx="3.5" fill="#455560" fill-opacity="0.06"/>
<g clip-path="url(#clip3_91_3353)">
<rect x="52.4214" y="50.4563" width="143.47" height="7" rx="3.5" fill="#07AF57"/>
<rect x="52.4214" y="50.4563" width="453" height="7" fill="#07AF57"/>
</g>
</g>
<path d="M515.742 50.6575H516.516C516.895 50.6575 517.207 50.595 517.453 50.47C517.703 50.3411 517.889 50.1672 518.01 49.9485C518.135 49.7258 518.197 49.4758 518.197 49.1985C518.197 48.8704 518.143 48.595 518.033 48.3723C517.924 48.1497 517.76 47.9817 517.541 47.8684C517.322 47.7551 517.045 47.6985 516.709 47.6985C516.404 47.6985 516.135 47.759 515.9 47.8801C515.67 47.9973 515.488 48.1653 515.355 48.384C515.227 48.6028 515.162 48.8606 515.162 49.1575H514.078C514.078 48.7239 514.188 48.3293 514.406 47.9739C514.625 47.6184 514.932 47.3352 515.326 47.1243C515.725 46.9133 516.186 46.8079 516.709 46.8079C517.225 46.8079 517.676 46.8997 518.062 47.0833C518.449 47.2629 518.75 47.5325 518.965 47.8918C519.18 48.2473 519.287 48.6907 519.287 49.2219C519.287 49.4368 519.236 49.6672 519.135 49.9133C519.037 50.1555 518.883 50.3821 518.672 50.593C518.465 50.804 518.195 50.9778 517.863 51.1145C517.531 51.2473 517.133 51.3137 516.668 51.3137H515.742V50.6575ZM515.742 51.5481V50.8977H516.668C517.211 50.8977 517.66 50.9622 518.016 51.0911C518.371 51.22 518.65 51.3918 518.854 51.6067C519.061 51.8215 519.205 52.0579 519.287 52.3157C519.373 52.5696 519.416 52.8235 519.416 53.0774C519.416 53.4758 519.348 53.8293 519.211 54.1379C519.078 54.4465 518.889 54.7083 518.643 54.9231C518.4 55.1379 518.115 55.3 517.787 55.4094C517.459 55.5188 517.102 55.5735 516.715 55.5735C516.344 55.5735 515.994 55.5208 515.666 55.4153C515.342 55.3098 515.055 55.1575 514.805 54.9583C514.555 54.7551 514.359 54.5071 514.219 54.2141C514.078 53.9172 514.008 53.5793 514.008 53.2004H515.092C515.092 53.4973 515.156 53.7571 515.285 53.9797C515.418 54.2024 515.605 54.3762 515.848 54.5012C516.094 54.6223 516.383 54.6829 516.715 54.6829C517.047 54.6829 517.332 54.6262 517.57 54.5129C517.812 54.3958 517.998 54.22 518.127 53.9856C518.26 53.7512 518.326 53.4563 518.326 53.1008C518.326 52.7454 518.252 52.4543 518.104 52.2278C517.955 51.9973 517.744 51.8274 517.471 51.718C517.201 51.6047 516.883 51.5481 516.516 51.5481H515.742ZM524.773 46.8782V55.4563H523.689V48.2317L521.503 49.0286V48.05L524.603 46.8782H524.773ZM528.395 54.8821C528.395 54.6985 528.452 54.5442 528.565 54.4192C528.682 54.2903 528.85 54.2258 529.069 54.2258C529.288 54.2258 529.454 54.2903 529.567 54.4192C529.684 54.5442 529.743 54.6985 529.743 54.8821C529.743 55.0618 529.684 55.2141 529.567 55.3391C529.454 55.4641 529.288 55.5266 529.069 55.5266C528.85 55.5266 528.682 55.4641 528.565 55.3391C528.452 55.2141 528.395 55.0618 528.395 54.8821ZM535.884 46.9133H535.978V47.8333H535.884C535.31 47.8333 534.83 47.927 534.443 48.1145C534.056 48.2981 533.75 48.5461 533.523 48.8586C533.296 49.1672 533.132 49.5149 533.031 49.9016C532.933 50.2883 532.884 50.6809 532.884 51.0793V52.3333C532.884 52.7122 532.929 53.0481 533.019 53.3411C533.109 53.6301 533.232 53.8743 533.388 54.0735C533.545 54.2727 533.72 54.4231 533.916 54.5247C534.115 54.6262 534.322 54.677 534.537 54.677C534.787 54.677 535.009 54.6301 535.205 54.5364C535.4 54.4387 535.564 54.304 535.697 54.1321C535.834 53.9563 535.937 53.7493 536.007 53.511C536.078 53.2727 536.113 53.011 536.113 52.7258C536.113 52.4719 536.082 52.2278 536.019 51.9934C535.957 51.7551 535.861 51.5442 535.732 51.3606C535.603 51.1731 535.441 51.0266 535.246 50.9211C535.054 50.8118 534.826 50.7571 534.56 50.7571C534.259 50.7571 533.978 50.8313 533.716 50.9797C533.459 51.1243 533.246 51.3157 533.078 51.554C532.914 51.7883 532.82 52.0442 532.796 52.3215L532.222 52.3157C532.277 51.8782 532.379 51.5051 532.527 51.1965C532.679 50.884 532.867 50.6301 533.089 50.4348C533.316 50.2356 533.568 50.0911 533.845 50.0012C534.127 49.9075 534.423 49.8606 534.736 49.8606C535.162 49.8606 535.529 49.9407 535.837 50.1008C536.146 50.261 536.4 50.4758 536.599 50.7454C536.798 51.011 536.945 51.3118 537.039 51.6477C537.136 51.9797 537.185 52.3215 537.185 52.6731C537.185 53.0754 537.129 53.4524 537.015 53.804C536.902 54.1555 536.732 54.4641 536.505 54.7297C536.283 54.9954 536.007 55.2024 535.679 55.3508C535.351 55.4993 534.97 55.5735 534.537 55.5735C534.076 55.5735 533.673 55.4797 533.33 55.2922C532.986 55.1008 532.701 54.8469 532.474 54.5305C532.248 54.2141 532.078 53.8625 531.964 53.4758C531.851 53.0891 531.795 52.6965 531.795 52.2981V51.7883C531.795 51.1868 531.855 50.5969 531.976 50.0188C532.097 49.4407 532.306 48.9172 532.603 48.4485C532.904 47.9797 533.32 47.6067 533.851 47.3293C534.382 47.052 535.06 46.9133 535.884 46.9133ZM544.288 46.925V47.5344L540.755 55.4563H539.612L543.139 47.8157H538.522V46.925H544.288ZM545.73 49.0168V48.5657C545.73 48.2415 545.801 47.9465 545.941 47.6809C546.082 47.4153 546.283 47.2024 546.545 47.0422C546.807 46.8821 547.117 46.802 547.477 46.802C547.844 46.802 548.156 46.8821 548.414 47.0422C548.676 47.2024 548.877 47.4153 549.018 47.6809C549.158 47.9465 549.229 48.2415 549.229 48.5657V49.0168C549.229 49.3333 549.158 49.6243 549.018 49.8899C548.881 50.1555 548.682 50.3684 548.42 50.5286C548.162 50.6887 547.852 50.7688 547.488 50.7688C547.125 50.7688 546.811 50.6887 546.545 50.5286C546.283 50.3684 546.082 50.1555 545.941 49.8899C545.801 49.6243 545.73 49.3333 545.73 49.0168ZM546.545 48.5657V49.0168C546.545 49.1965 546.578 49.3665 546.645 49.5266C546.715 49.6868 546.82 49.8176 546.961 49.9192C547.102 50.0168 547.277 50.0657 547.488 50.0657C547.699 50.0657 547.873 50.0168 548.01 49.9192C548.146 49.8176 548.248 49.6868 548.314 49.5266C548.381 49.3665 548.414 49.1965 548.414 49.0168V48.5657C548.414 48.3821 548.379 48.2102 548.309 48.05C548.242 47.886 548.139 47.7551 547.998 47.6575C547.861 47.5559 547.688 47.5051 547.477 47.5051C547.27 47.5051 547.096 47.5559 546.955 47.6575C546.818 47.7551 546.715 47.886 546.645 48.05C546.578 48.2102 546.545 48.3821 546.545 48.5657ZM549.885 53.8215V53.3645C549.885 53.0442 549.955 52.7512 550.096 52.4856C550.236 52.22 550.438 52.0071 550.699 51.8469C550.961 51.6868 551.271 51.6067 551.631 51.6067C551.998 51.6067 552.311 51.6868 552.568 51.8469C552.83 52.0071 553.031 52.22 553.172 52.4856C553.312 52.7512 553.383 53.0442 553.383 53.3645V53.8215C553.383 54.1418 553.312 54.4348 553.172 54.7004C553.035 54.9661 552.836 55.179 552.574 55.3391C552.316 55.4993 552.006 55.5793 551.643 55.5793C551.279 55.5793 550.967 55.4993 550.705 55.3391C550.443 55.179 550.24 54.9661 550.096 54.7004C549.955 54.4348 549.885 54.1418 549.885 53.8215ZM550.699 53.3645V53.8215C550.699 54.0012 550.732 54.1731 550.799 54.3372C550.869 54.4973 550.975 54.6282 551.115 54.7297C551.256 54.8274 551.432 54.8762 551.643 54.8762C551.854 54.8762 552.027 54.8274 552.164 54.7297C552.305 54.6282 552.408 54.4973 552.475 54.3372C552.541 54.177 552.574 54.0051 552.574 53.8215V53.3645C552.574 53.1809 552.539 53.009 552.469 52.8489C552.402 52.6887 552.299 52.5598 552.158 52.4622C552.021 52.3606 551.846 52.3098 551.631 52.3098C551.424 52.3098 551.25 52.3606 551.109 52.4622C550.973 52.5598 550.869 52.6887 550.799 52.8489C550.732 53.009 550.699 53.1809 550.699 53.3645ZM551.9 48.1379L547.734 54.8059L547.125 54.4192L551.291 47.7512L551.9 48.1379Z" fill="#455560"/>
<g clip-path="url(#clip4_91_3353)">
<g clip-path="url(#clip5_91_3353)">
<path d="M34.1862 106.891C40.9434 106.891 46.4212 101.413 46.4212 94.6563C46.4212 87.8991 40.9434 82.4213 34.1862 82.4213C27.429 82.4213 21.9512 87.8991 21.9512 94.6563C21.9512 101.413 27.429 106.891 34.1862 106.891Z" fill="#E27646"/>
<mask id="mask0_91_3353" style="mask-type:luminance" maskUnits="userSpaceOnUse" x="29" y="88" width="11" height="13">
<path d="M29.2919 88.5388H39.2422V100.921H29.2919V88.5388Z" fill="white"/>
</mask>
<g mask="url(#mask0_91_3353)">
<path d="M34.2677 100.888C35.3348 100.888 36.4016 100.896 37.4687 100.883C37.7097 100.88 37.9547 100.828 38.1894 100.765C38.8473 100.589 39.1789 100.13 39.2312 99.4693C39.3789 97.6055 37.9752 96.0869 36.2885 95.9421C36.2173 95.936 36.1454 95.9377 36.0742 95.9377C34.8819 95.9377 33.6895 95.9377 32.4969 95.9377C31.1486 95.9377 29.898 96.8467 29.4748 98.1325C29.3163 98.6146 29.2437 99.1052 29.3259 99.6109C29.4304 100.254 29.7738 100.653 30.4163 100.777C30.8578 100.863 31.3135 100.899 31.7639 100.91C32.5981 100.931 33.433 100.916 34.2677 100.916C34.2677 100.907 34.2677 100.897 34.2677 100.888Z" fill="white"/>
<path d="M34.2401 95.4376C34.8314 95.4418 35.3548 95.2873 35.8226 94.969C36.0226 94.8326 36.2058 94.6656 36.3753 94.4917C36.6752 94.1841 36.8783 93.8357 36.8108 93.3735C36.7806 93.1692 36.7867 92.9546 36.8125 92.7489C36.8343 92.5765 36.8837 92.3969 36.9674 92.2459C37.0314 92.13 37.0482 92.0363 37.0182 91.9147C36.7582 90.8654 35.8481 89.8995 34.5045 89.7772C33.4359 89.6799 32.2979 90.2254 31.7424 91.3233C31.678 91.4503 31.6283 91.5852 31.5782 91.7186C31.5023 91.9211 31.4551 92.1096 31.6107 92.3175C31.6955 92.4305 31.7173 92.6072 31.7259 92.7578C31.7431 93.0608 31.7313 93.3656 31.7316 93.6697C31.7316 94.016 31.8465 94.1741 32.1799 94.2775C32.2933 94.3125 32.4085 94.3561 32.5251 94.364C32.6306 94.3712 32.7422 94.3469 32.8453 94.3164C33.2206 94.2052 33.604 94.182 33.9663 94.319C34.3484 94.4635 34.4894 94.9046 34.3187 95.278C34.2972 95.3249 34.2727 95.3714 34.2401 95.4376Z" fill="white"/>
<path d="M30.0865 93.4028C30.0865 93.5996 30.0826 93.7964 30.0872 93.9931C30.099 94.4958 30.5201 94.7794 30.9923 94.6138C31.052 94.593 31.1443 94.6048 31.1983 94.6385C31.648 94.9171 32.1395 95.0627 32.6604 95.1289C32.7405 95.1389 32.8146 95.1954 32.8911 95.2305C32.8961 95.233 32.8997 95.2388 32.904 95.2427C33.0593 95.3844 33.7532 95.3944 33.9096 95.2544C34.0262 95.15 34.0663 95.0202 34.0237 94.8667C33.9787 94.7035 33.8641 94.6088 33.7049 94.5959C33.5096 94.5802 33.3119 94.5884 33.1154 94.5948C33.0653 94.5965 33.001 94.617 32.9695 94.6524C32.8554 94.7801 32.7219 94.7576 32.5785 94.7321C32.1882 94.6632 31.8144 94.5508 31.4702 94.3487C31.3854 94.299 31.3611 94.2496 31.3647 94.1391C31.3819 93.6568 31.3908 93.1732 31.3651 92.6917C31.3575 92.5504 31.2463 92.3962 31.1433 92.2846C31.0646 92.1994 31.0316 92.1308 31.047 92.0238C31.2323 90.7166 31.9296 89.7883 33.1658 89.3347C35.0235 88.654 37.0498 89.7905 37.4333 91.6872C37.4497 91.7687 37.464 91.851 37.478 91.9333C37.5037 92.0835 37.4962 92.1998 37.356 92.3229C37.2458 92.4194 37.1725 92.6083 37.1631 92.7607C37.1374 93.1825 37.1463 93.6071 37.156 94.0299C37.1642 94.3988 37.439 94.6603 37.796 94.6617C38.1537 94.6627 38.4352 94.4049 38.4457 94.0382C38.4578 93.6093 38.4528 93.1796 38.4457 92.7503C38.442 92.5504 38.3498 92.3887 38.1931 92.257C38.1376 92.2105 38.089 92.1279 38.0811 92.0567C37.884 90.2434 36.6391 88.9072 34.8436 88.5892C33.2113 88.3002 31.4302 89.2793 30.7723 90.8243C30.6052 91.2167 30.4976 91.6221 30.4553 92.047C30.4482 92.1189 30.4049 92.2059 30.3498 92.2509C30.1745 92.3944 30.0908 92.5743 30.0872 92.7947C30.084 92.9975 30.0865 93.2 30.0865 93.4028Z" fill="white"/>
</g>
</g>
</g>
<path d="M56.9788 85.8169L54.3445 93.6562H52.4973L55.9504 84.4141H57.1311L56.9788 85.8169ZM59.1814 93.6562L56.5344 85.8169L56.3757 84.4141H57.5627L61.0349 93.6562H59.1814ZM59.0608 90.2222V91.5996H54.1033V90.2222H59.0608ZM66.5273 86.7881H68.0507V93.4468C68.0507 94.0688 67.9153 94.5957 67.6445 95.0273C67.3779 95.4632 67.0034 95.7933 66.5209 96.0176C66.0385 96.2461 65.4778 96.3604 64.8388 96.3604C64.5638 96.3604 64.2654 96.3223 63.9438 96.2461C63.6264 96.1699 63.3196 96.0493 63.0234 95.8843C62.7314 95.7235 62.4881 95.514 62.2934 95.2559L63.0488 94.2656C63.2773 94.5322 63.5354 94.7332 63.8232 94.8687C64.111 95.0083 64.422 95.0781 64.7563 95.0781C65.0948 95.0781 65.3826 95.0146 65.6196 94.8877C65.8608 94.765 66.0449 94.583 66.1718 94.3418C66.303 94.1048 66.3686 93.8128 66.3686 93.4658V88.356L66.5273 86.7881ZM61.8872 90.3047V90.1714C61.8872 89.6466 61.9506 89.1706 62.0776 88.7432C62.2045 88.3115 62.3865 87.9412 62.6235 87.6323C62.8647 87.3234 63.1546 87.0843 63.4931 86.915C63.8359 86.7458 64.221 86.6611 64.6484 86.6611C65.1012 86.6611 65.482 86.7437 65.791 86.9087C66.1041 87.0737 66.3623 87.3086 66.5654 87.6133C66.7727 87.918 66.9335 88.2798 67.0478 88.6987C67.1663 89.1134 67.2573 89.5705 67.3208 90.0698V90.4316C67.2615 90.9183 67.1663 91.3647 67.0351 91.771C66.9082 92.1772 66.7389 92.5327 66.5273 92.8374C66.3157 93.1379 66.0533 93.3706 65.7402 93.5356C65.427 93.7007 65.0589 93.7832 64.6357 93.7832C64.2125 93.7832 63.8317 93.6965 63.4931 93.5229C63.1546 93.3494 62.8647 93.1061 62.6235 92.793C62.3865 92.4798 62.2045 92.1117 62.0776 91.6885C61.9506 91.2653 61.8872 90.804 61.8872 90.3047ZM63.5629 90.1714V90.3047C63.5629 90.6009 63.5926 90.8781 63.6518 91.1362C63.7111 91.3944 63.802 91.6229 63.9248 91.8218C64.0475 92.0164 64.2019 92.1688 64.3881 92.2788C64.5743 92.3888 64.7965 92.4438 65.0546 92.4438C65.4016 92.4438 65.6852 92.3719 65.9052 92.228C66.1295 92.0799 66.2988 91.8789 66.413 91.625C66.5315 91.3669 66.6077 91.077 66.6416 90.7554V89.7588C66.6204 89.5049 66.5738 89.27 66.5019 89.0542C66.4342 88.8384 66.339 88.6522 66.2163 88.4956C66.0935 88.339 65.937 88.2163 65.7465 88.1274C65.5561 88.0386 65.3297 87.9941 65.0673 87.9941C64.8134 87.9941 64.5913 88.0513 64.4008 88.1655C64.2104 88.2756 64.0538 88.43 63.9311 88.6289C63.8084 88.8278 63.7153 89.0584 63.6518 89.3208C63.5926 89.5832 63.5629 89.8667 63.5629 90.1714ZM72.9464 93.7832C72.4259 93.7832 71.9583 93.6986 71.5436 93.5293C71.1289 93.36 70.7755 93.1252 70.4835 92.8247C70.1958 92.52 69.9736 92.1667 69.817 91.7646C69.6647 91.3584 69.5885 90.9225 69.5885 90.457V90.2031C69.5885 89.6742 69.6647 89.1938 69.817 88.7622C69.9694 88.3263 70.1852 87.9518 70.4645 87.6387C70.7438 87.3255 71.0781 87.0843 71.4674 86.915C71.8568 86.7458 72.2863 86.6611 72.756 86.6611C73.2427 86.6611 73.6722 86.7437 74.0446 86.9087C74.417 87.0695 74.728 87.298 74.9777 87.5942C75.2274 87.8905 75.4157 88.2459 75.5426 88.6606C75.6696 89.0711 75.7331 89.526 75.7331 90.0254V90.73H70.3502V89.5747H74.0827V89.4478C74.0742 89.1812 74.0234 88.9378 73.9303 88.7178C73.8372 88.4935 73.6933 88.3158 73.4987 88.1846C73.304 88.0492 73.0522 87.9814 72.7433 87.9814C72.4936 87.9814 72.2757 88.0365 72.0895 88.1465C71.9075 88.2523 71.7552 88.4046 71.6325 88.6035C71.514 88.7982 71.4251 89.0309 71.3659 89.3018C71.3066 89.5726 71.277 89.873 71.277 90.2031V90.457C71.277 90.7448 71.3151 91.0114 71.3913 91.2568C71.4717 91.5023 71.588 91.716 71.7404 91.8979C71.897 92.0757 72.0832 92.2153 72.299 92.3169C72.519 92.4142 72.7687 92.4629 73.048 92.4629C73.3992 92.4629 73.7166 92.3952 74.0001 92.2598C74.2879 92.1201 74.5376 91.9149 74.7492 91.644L75.5934 92.52C75.4495 92.7316 75.2549 92.9347 75.0094 93.1294C74.7682 93.3241 74.4762 93.4827 74.1334 93.6055C73.7907 93.724 73.395 93.7832 72.9464 93.7832ZM78.8006 88.2544V93.6562H77.1249V86.7881H78.6991L78.8006 88.2544ZM78.534 89.9746H78.0389C78.0431 89.4753 78.1109 89.0225 78.242 88.6162C78.3732 88.21 78.5573 87.8608 78.7943 87.5688C79.0355 87.2769 79.3211 87.0526 79.6512 86.896C79.9813 86.7394 80.3495 86.6611 80.7557 86.6611C81.0858 86.6611 81.3841 86.7077 81.6507 86.8008C81.9173 86.8939 82.1458 87.042 82.3363 87.2451C82.5309 87.4482 82.6791 87.7148 82.7806 88.0449C82.8864 88.3708 82.9393 88.7728 82.9393 89.251V93.6562H81.2508V89.2383C81.2508 88.9251 81.2043 88.6776 81.1112 88.4956C81.0223 88.3136 80.8911 88.1846 80.7176 88.1084C80.5484 88.0322 80.3389 87.9941 80.0892 87.9941C79.8311 87.9941 79.6047 88.047 79.41 88.1528C79.2196 88.2544 79.0588 88.3962 78.9276 88.5781C78.8006 88.7601 78.7033 88.9696 78.6356 89.2065C78.5679 89.4435 78.534 89.6995 78.534 89.9746ZM87.9683 86.7881V87.9941H84.0328V86.7881H87.9683ZM85.0865 85.0996H86.7686V91.6758C86.7686 91.8789 86.7961 92.0355 86.8511 92.1455C86.9061 92.2555 86.9887 92.3296 87.0987 92.3677C87.2087 92.4058 87.3399 92.4248 87.4922 92.4248C87.6023 92.4248 87.7038 92.4185 87.7969 92.4058C87.89 92.3931 87.9683 92.3804 88.0318 92.3677L88.0381 93.6245C87.8985 93.6711 87.7398 93.7091 87.5621 93.7388C87.3886 93.7684 87.1918 93.7832 86.9717 93.7832C86.5951 93.7832 86.265 93.7197 85.9815 93.5928C85.698 93.4616 85.4779 93.2521 85.3213 92.9644C85.1648 92.6724 85.0865 92.2873 85.0865 91.8091V85.0996ZM97.8867 91.2568C97.8867 91.0791 97.8592 90.9204 97.8041 90.7808C97.7534 90.6369 97.6582 90.5078 97.5185 90.3936C97.3831 90.2751 97.1905 90.1608 96.9409 90.0508C96.6954 89.9365 96.378 89.818 95.9887 89.6953C95.5571 89.5599 95.1551 89.4076 94.7827 89.2383C94.4103 89.069 94.0823 88.8722 93.7988 88.6479C93.5195 88.4237 93.3015 88.1655 93.145 87.8735C92.9884 87.5773 92.9101 87.2345 92.9101 86.8452C92.9101 86.4644 92.9905 86.1174 93.1513 85.8042C93.3164 85.491 93.5491 85.2223 93.8496 84.998C94.15 84.7695 94.5034 84.5939 94.9096 84.4712C95.3201 84.3485 95.7729 84.2871 96.268 84.2871C96.9536 84.2871 97.546 84.4119 98.0454 84.6616C98.5489 84.9113 98.9383 85.2498 99.2133 85.6772C99.4884 86.1047 99.6259 86.585 99.6259 87.1182H97.8867C97.8867 86.8304 97.8253 86.5765 97.7026 86.3564C97.5841 86.1364 97.4021 85.9629 97.1567 85.8359C96.9155 85.709 96.6108 85.6455 96.2426 85.6455C95.8872 85.6455 95.5909 85.6984 95.354 85.8042C95.1212 85.91 94.9456 86.0539 94.8271 86.2358C94.7128 86.4178 94.6557 86.6209 94.6557 86.8452C94.6557 87.0145 94.6959 87.1668 94.7763 87.3022C94.8567 87.4334 94.9773 87.5583 95.1381 87.6768C95.2989 87.791 95.4978 87.8989 95.7348 88.0005C95.976 88.0978 96.2553 88.1951 96.5727 88.2925C97.0805 88.4448 97.5249 88.6141 97.9057 88.8003C98.2908 88.9865 98.6103 89.1981 98.8642 89.4351C99.1223 89.672 99.3149 89.9386 99.4418 90.2349C99.573 90.5311 99.6386 90.8675 99.6386 91.2441C99.6386 91.6419 99.5603 91.9974 99.4038 92.3105C99.2472 92.6237 99.0229 92.8903 98.7309 93.1104C98.4389 93.3304 98.0877 93.4976 97.6772 93.6118C97.2709 93.7261 96.816 93.7832 96.3125 93.7832C95.8639 93.7832 95.4195 93.724 94.9794 93.6055C94.5436 93.4827 94.1479 93.3008 93.7924 93.0596C93.437 92.8141 93.1534 92.5052 92.9418 92.1328C92.7303 91.7562 92.6245 91.3161 92.6245 90.8125H94.3764C94.3764 91.1045 94.423 91.3542 94.5161 91.5615C94.6134 91.7646 94.7488 91.9318 94.9223 92.063C95.1 92.1899 95.3074 92.283 95.5444 92.3423C95.7814 92.4015 96.0374 92.4312 96.3125 92.4312C96.6679 92.4312 96.9599 92.3825 97.1884 92.2852C97.4212 92.1836 97.5947 92.0439 97.7089 91.8662C97.8274 91.6885 97.8867 91.4854 97.8867 91.2568ZM102.833 88.1084V96.2969H101.151V86.7881H102.706L102.833 88.1084ZM107.245 90.1523V90.2856C107.245 90.785 107.186 91.2484 107.067 91.6758C106.953 92.099 106.784 92.4692 106.559 92.7866C106.335 93.0998 106.056 93.3452 105.721 93.5229C105.391 93.6965 105.01 93.7832 104.579 93.7832C104.156 93.7832 103.787 93.7028 103.474 93.542C103.161 93.377 102.897 93.1442 102.681 92.8438C102.465 92.5433 102.291 92.1942 102.16 91.7964C102.033 91.3944 101.938 90.9564 101.875 90.4824V90.0571C101.938 89.5535 102.033 89.0965 102.16 88.686C102.291 88.2713 102.465 87.9137 102.681 87.6133C102.897 87.3086 103.159 87.0737 103.468 86.9087C103.781 86.7437 104.147 86.6611 104.566 86.6611C105.002 86.6611 105.385 86.7437 105.715 86.9087C106.049 87.0737 106.331 87.3107 106.559 87.6196C106.788 87.9285 106.959 88.2967 107.073 88.7241C107.188 89.1515 107.245 89.6276 107.245 90.1523ZM105.563 90.2856V90.1523C105.563 89.8477 105.535 89.5662 105.48 89.3081C105.425 89.0457 105.34 88.8172 105.226 88.6226C105.112 88.4237 104.964 88.2692 104.782 88.1592C104.6 88.0492 104.38 87.9941 104.122 87.9941C103.864 87.9941 103.641 88.0365 103.455 88.1211C103.269 88.2057 103.117 88.3263 102.998 88.4829C102.88 88.6395 102.787 88.8257 102.719 89.0415C102.655 89.2531 102.613 89.488 102.592 89.7461V90.7998C102.63 91.113 102.704 91.3944 102.814 91.644C102.924 91.8937 103.085 92.0926 103.297 92.2407C103.512 92.3888 103.792 92.4629 104.134 92.4629C104.393 92.4629 104.613 92.4058 104.795 92.2915C104.977 92.1772 105.125 92.0207 105.239 91.8218C105.353 91.6187 105.436 91.3859 105.486 91.1235C105.537 90.8612 105.563 90.5819 105.563 90.2856ZM111.855 93.7832C111.334 93.7832 110.867 93.6986 110.452 93.5293C110.037 93.36 109.684 93.1252 109.392 92.8247C109.104 92.52 108.882 92.1667 108.725 91.7646C108.573 91.3584 108.497 90.9225 108.497 90.457V90.2031C108.497 89.6742 108.573 89.1938 108.725 88.7622C108.878 88.3263 109.094 87.9518 109.373 87.6387C109.652 87.3255 109.987 87.0843 110.376 86.915C110.765 86.7458 111.195 86.6611 111.664 86.6611C112.151 86.6611 112.581 86.7437 112.953 86.9087C113.325 87.0695 113.636 87.298 113.886 87.5942C114.136 87.8905 114.324 88.2459 114.451 88.6606C114.578 89.0711 114.641 89.526 114.641 90.0254V90.73H109.259V89.5747H112.991V89.4478C112.983 89.1812 112.932 88.9378 112.839 88.7178C112.746 88.4935 112.602 88.3158 112.407 88.1846C112.212 88.0492 111.961 87.9814 111.652 87.9814C111.402 87.9814 111.184 88.0365 110.998 88.1465C110.816 88.2523 110.664 88.4046 110.541 88.6035C110.422 88.7982 110.334 89.0309 110.274 89.3018C110.215 89.5726 110.185 89.873 110.185 90.2031V90.457C110.185 90.7448 110.223 91.0114 110.3 91.2568C110.38 91.5023 110.496 91.716 110.649 91.8979C110.805 92.0757 110.992 92.2153 111.207 92.3169C111.427 92.4142 111.677 92.4629 111.956 92.4629C112.308 92.4629 112.625 92.3952 112.909 92.2598C113.196 92.1201 113.446 91.9149 113.658 91.644L114.502 92.52C114.358 92.7316 114.163 92.9347 113.918 93.1294C113.677 93.3241 113.385 93.4827 113.042 93.6055C112.699 93.724 112.303 93.7832 111.855 93.7832ZM119.848 92.1963V89.0288C119.848 88.7961 119.808 88.5951 119.728 88.4258C119.647 88.2565 119.524 88.1253 119.359 88.0322C119.194 87.9391 118.985 87.8926 118.731 87.8926C118.507 87.8926 118.31 87.9307 118.141 88.0068C117.976 88.083 117.849 88.1909 117.76 88.3306C117.671 88.466 117.627 88.6226 117.627 88.8003H115.944C115.944 88.5168 116.012 88.248 116.148 87.9941C116.283 87.736 116.475 87.5075 116.725 87.3086C116.979 87.1055 117.282 86.9468 117.633 86.8325C117.988 86.7183 118.386 86.6611 118.826 86.6611C119.347 86.6611 119.81 86.75 120.216 86.9277C120.627 87.1012 120.948 87.3636 121.181 87.7148C121.418 88.0661 121.537 88.5083 121.537 89.0415V92.0376C121.537 92.3804 121.558 92.6745 121.6 92.9199C121.647 93.1611 121.714 93.3706 121.803 93.5483V93.6562H120.096C120.015 93.4827 119.954 93.2627 119.912 92.9961C119.869 92.7253 119.848 92.4587 119.848 92.1963ZM120.083 89.4731L120.096 90.4697H119.036C118.773 90.4697 118.543 90.4972 118.344 90.5522C118.145 90.603 117.982 90.6792 117.855 90.7808C117.728 90.8781 117.633 90.9966 117.569 91.1362C117.506 91.2716 117.474 91.4261 117.474 91.5996C117.474 91.7689 117.512 91.9212 117.588 92.0566C117.669 92.1921 117.783 92.3 117.931 92.3804C118.084 92.4565 118.261 92.4946 118.464 92.4946C118.761 92.4946 119.019 92.4354 119.239 92.3169C119.459 92.1942 119.63 92.0461 119.753 91.8726C119.876 91.6991 119.941 91.534 119.95 91.3774L120.432 92.1011C120.373 92.2746 120.284 92.4587 120.166 92.6533C120.047 92.848 119.895 93.0299 119.709 93.1992C119.522 93.3685 119.298 93.5081 119.036 93.6182C118.773 93.7282 118.469 93.7832 118.122 93.7832C117.677 93.7832 117.28 93.6943 116.928 93.5166C116.577 93.3389 116.3 93.0955 116.097 92.7866C115.894 92.4777 115.792 92.1265 115.792 91.7329C115.792 91.369 115.86 91.0474 115.995 90.7681C116.131 90.4888 116.332 90.2539 116.598 90.0635C116.865 89.8688 117.195 89.7228 117.588 89.6255C117.986 89.5239 118.441 89.4731 118.953 89.4731H120.083ZM125.023 83.8999V93.6562H123.347V83.8999H125.023ZM129.327 86.7881L126.337 90.146L124.719 91.79L124.185 90.4888L125.436 88.9146L127.302 86.7881H129.327ZM127.613 93.6562L125.487 90.457L126.604 89.3716L129.555 93.6562H127.613ZM137.83 84.4141V93.6562H136.09V84.4141H137.83ZM140.699 84.4141V85.7915H133.253V84.4141H140.699ZM143.811 86.7881V93.6562H142.129V86.7881H143.811ZM142.015 84.9917C142.015 84.742 142.099 84.5347 142.268 84.3696C142.442 84.2046 142.675 84.1221 142.967 84.1221C143.259 84.1221 143.489 84.2046 143.659 84.3696C143.832 84.5347 143.919 84.742 143.919 84.9917C143.919 85.2371 143.832 85.4424 143.659 85.6074C143.489 85.7725 143.259 85.855 142.967 85.855C142.675 85.855 142.442 85.7725 142.268 85.6074C142.099 85.4424 142.015 85.2371 142.015 84.9917ZM147.38 88.1973V93.6562H145.704V86.7881H147.285L147.38 88.1973ZM147.132 89.9746H146.618C146.618 89.4964 146.675 89.0563 146.79 88.6543C146.908 88.2523 147.082 87.9032 147.31 87.6069C147.539 87.3065 147.82 87.0737 148.154 86.9087C148.493 86.7437 148.884 86.6611 149.329 86.6611C149.638 86.6611 149.921 86.7077 150.179 86.8008C150.437 86.8896 150.66 87.0314 150.846 87.2261C151.036 87.4165 151.182 87.6662 151.284 87.9751C151.385 88.2798 151.436 88.6458 151.436 89.0732V93.6562H149.76V89.2446C149.76 88.923 149.714 88.6712 149.621 88.4893C149.532 88.3073 149.403 88.1803 149.233 88.1084C149.064 88.0322 148.861 87.9941 148.624 87.9941C148.362 87.9941 148.135 88.047 147.945 88.1528C147.759 88.2544 147.604 88.3962 147.481 88.5781C147.363 88.7601 147.274 88.9696 147.215 89.2065C147.16 89.4435 147.132 89.6995 147.132 89.9746ZM151.309 89.6636L150.617 89.7905C150.621 89.3589 150.681 88.9548 150.795 88.5781C150.909 88.1973 151.076 87.8651 151.296 87.5815C151.521 87.2938 151.798 87.0695 152.128 86.9087C152.462 86.7437 152.847 86.6611 153.283 86.6611C153.622 86.6611 153.926 86.7098 154.197 86.8071C154.472 86.9002 154.707 87.0505 154.902 87.2578C155.097 87.4609 155.245 87.7254 155.346 88.0513C155.452 88.3771 155.505 88.7749 155.505 89.2446V93.6562H153.816V89.2383C153.816 88.904 153.77 88.6479 153.677 88.4702C153.588 88.2925 153.459 88.1698 153.29 88.1021C153.12 88.0301 152.921 87.9941 152.693 87.9941C152.46 87.9941 152.257 88.0386 152.084 88.1274C151.914 88.2121 151.77 88.3306 151.652 88.4829C151.538 88.6353 151.451 88.813 151.392 89.0161C151.337 89.215 151.309 89.4308 151.309 89.6636ZM160.394 93.7832C159.874 93.7832 159.406 93.6986 158.991 93.5293C158.577 93.36 158.223 93.1252 157.931 92.8247C157.644 92.52 157.421 92.1667 157.265 91.7646C157.113 91.3584 157.036 90.9225 157.036 90.457V90.2031C157.036 89.6742 157.113 89.1938 157.265 88.7622C157.417 88.3263 157.633 87.9518 157.912 87.6387C158.192 87.3255 158.526 87.0843 158.915 86.915C159.305 86.7458 159.734 86.6611 160.204 86.6611C160.691 86.6611 161.12 86.7437 161.492 86.9087C161.865 87.0695 162.176 87.298 162.426 87.5942C162.675 87.8905 162.864 88.2459 162.99 88.6606C163.117 89.0711 163.181 89.526 163.181 90.0254V90.73H157.798V89.5747H161.531V89.4478C161.522 89.1812 161.471 88.9378 161.378 88.7178C161.285 88.4935 161.141 88.3158 160.947 88.1846C160.752 88.0492 160.5 87.9814 160.191 87.9814C159.941 87.9814 159.724 88.0365 159.537 88.1465C159.355 88.2523 159.203 88.4046 159.08 88.6035C158.962 88.7982 158.873 89.0309 158.814 89.3018C158.754 89.5726 158.725 89.873 158.725 90.2031V90.457C158.725 90.7448 158.763 91.0114 158.839 91.2568C158.92 91.5023 159.036 91.716 159.188 91.8979C159.345 92.0757 159.531 92.2153 159.747 92.3169C159.967 92.4142 160.217 92.4629 160.496 92.4629C160.847 92.4629 161.164 92.3952 161.448 92.2598C161.736 92.1201 161.985 91.9149 162.197 91.644L163.041 92.52C162.897 92.7316 162.703 92.9347 162.457 93.1294C162.216 93.3241 161.924 93.4827 161.581 93.6055C161.239 93.724 160.843 93.7832 160.394 93.7832Z" fill="black"/>
<g clip-path="url(#clip6_91_3353)">
<rect x="52.4211" y="103.161" width="453.03" height="7" rx="3.5" fill="#455560" fill-opacity="0.06"/>
<g clip-path="url(#clip7_91_3353)">
<rect x="52.4211" y="103.161" width="126.53" height="7" rx="3.5" fill="#E27646"/>
<rect x="52.4211" y="103.161" width="453.02" height="7" fill="#E27646"/>
</g>
</g>
<path d="M519.75 107.271V108.161H514.166V107.382L516.961 104.271C517.305 103.888 517.57 103.564 517.758 103.298C517.949 103.028 518.082 102.788 518.156 102.577C518.234 102.362 518.273 102.144 518.273 101.921C518.273 101.64 518.215 101.386 518.098 101.159C517.984 100.929 517.816 100.745 517.594 100.609C517.371 100.472 517.102 100.403 516.785 100.403C516.406 100.403 516.09 100.478 515.836 100.626C515.586 100.771 515.398 100.974 515.273 101.235C515.148 101.497 515.086 101.798 515.086 102.138H514.002C514.002 101.657 514.107 101.218 514.318 100.819C514.529 100.421 514.842 100.105 515.256 99.8702C515.67 99.632 516.18 99.5128 516.785 99.5128C517.324 99.5128 517.785 99.6085 518.168 99.7999C518.551 99.9874 518.844 100.253 519.047 100.597C519.254 100.937 519.357 101.335 519.357 101.792C519.357 102.042 519.314 102.296 519.229 102.554C519.146 102.808 519.031 103.062 518.883 103.316C518.738 103.569 518.568 103.819 518.373 104.066C518.182 104.312 517.977 104.554 517.758 104.792L515.473 107.271H519.75ZM526.724 99.63V100.239L523.191 108.161H522.048L525.575 100.521H520.958V99.63H526.724ZM528.395 107.587C528.395 107.403 528.452 107.249 528.565 107.124C528.682 106.995 528.85 106.931 529.069 106.931C529.288 106.931 529.454 106.995 529.567 107.124C529.684 107.249 529.743 107.403 529.743 107.587C529.743 107.767 529.684 107.919 529.567 108.044C529.454 108.169 529.288 108.232 529.069 108.232C528.85 108.232 528.682 108.169 528.565 108.044C528.452 107.919 528.395 107.767 528.395 107.587ZM532.802 107.253H532.914C533.539 107.253 534.046 107.165 534.437 106.989C534.828 106.814 535.129 106.577 535.339 106.28C535.55 105.984 535.695 105.65 535.773 105.278C535.851 104.903 535.89 104.519 535.89 104.124V102.818C535.89 102.431 535.845 102.087 535.755 101.786C535.67 101.485 535.548 101.234 535.392 101.03C535.24 100.827 535.066 100.673 534.871 100.568C534.675 100.462 534.468 100.409 534.25 100.409C534 100.409 533.775 100.46 533.576 100.562C533.38 100.659 533.214 100.798 533.078 100.978C532.945 101.157 532.843 101.368 532.773 101.61C532.703 101.853 532.668 102.116 532.668 102.401C532.668 102.655 532.699 102.901 532.761 103.14C532.824 103.378 532.92 103.593 533.048 103.784C533.177 103.976 533.337 104.128 533.529 104.241C533.724 104.351 533.953 104.405 534.214 104.405C534.457 104.405 534.683 104.359 534.894 104.265C535.109 104.167 535.298 104.036 535.462 103.872C535.63 103.704 535.763 103.515 535.861 103.304C535.962 103.093 536.021 102.872 536.037 102.642H536.552C536.552 102.966 536.488 103.286 536.359 103.603C536.234 103.915 536.058 104.2 535.832 104.458C535.605 104.716 535.339 104.923 535.035 105.079C534.73 105.232 534.398 105.308 534.039 105.308C533.617 105.308 533.252 105.226 532.943 105.062C532.634 104.898 532.38 104.679 532.181 104.405C531.986 104.132 531.839 103.827 531.742 103.491C531.648 103.151 531.601 102.808 531.601 102.46C531.601 102.054 531.658 101.673 531.771 101.318C531.884 100.962 532.052 100.65 532.275 100.38C532.498 100.107 532.773 99.8937 533.101 99.7413C533.433 99.589 533.816 99.5128 534.25 99.5128C534.738 99.5128 535.154 99.6105 535.498 99.8058C535.841 100.001 536.121 100.263 536.336 100.591C536.554 100.919 536.714 101.288 536.816 101.698C536.918 102.109 536.968 102.53 536.968 102.964V103.357C536.968 103.798 536.939 104.247 536.88 104.704C536.826 105.157 536.718 105.591 536.558 106.005C536.402 106.419 536.173 106.79 535.873 107.118C535.572 107.443 535.179 107.7 534.695 107.892C534.214 108.079 533.621 108.173 532.914 108.173H532.802V107.253ZM540.356 103.362H541.13C541.509 103.362 541.821 103.3 542.067 103.175C542.317 103.046 542.503 102.872 542.624 102.653C542.749 102.431 542.811 102.181 542.811 101.903C542.811 101.575 542.757 101.3 542.647 101.077C542.538 100.855 542.374 100.687 542.155 100.573C541.936 100.46 541.659 100.403 541.323 100.403C541.018 100.403 540.749 100.464 540.514 100.585C540.284 100.702 540.102 100.87 539.97 101.089C539.841 101.308 539.776 101.566 539.776 101.862H538.692C538.692 101.429 538.802 101.034 539.02 100.679C539.239 100.323 539.546 100.04 539.94 99.8292C540.339 99.6183 540.8 99.5128 541.323 99.5128C541.839 99.5128 542.29 99.6046 542.677 99.7882C543.063 99.9679 543.364 100.237 543.579 100.597C543.794 100.952 543.901 101.396 543.901 101.927C543.901 102.142 543.85 102.372 543.749 102.618C543.651 102.86 543.497 103.087 543.286 103.298C543.079 103.509 542.809 103.683 542.477 103.819C542.145 103.952 541.747 104.019 541.282 104.019H540.356V103.362ZM540.356 104.253V103.603H541.282C541.825 103.603 542.274 103.667 542.63 103.796C542.985 103.925 543.264 104.097 543.468 104.312C543.675 104.526 543.819 104.763 543.901 105.021C543.987 105.275 544.03 105.528 544.03 105.782C544.03 106.181 543.962 106.534 543.825 106.843C543.692 107.151 543.503 107.413 543.257 107.628C543.014 107.843 542.729 108.005 542.401 108.114C542.073 108.224 541.716 108.278 541.329 108.278C540.958 108.278 540.608 108.226 540.28 108.12C539.956 108.015 539.669 107.862 539.419 107.663C539.169 107.46 538.973 107.212 538.833 106.919C538.692 106.622 538.622 106.284 538.622 105.905H539.706C539.706 106.202 539.77 106.462 539.899 106.685C540.032 106.907 540.22 107.081 540.462 107.206C540.708 107.327 540.997 107.388 541.329 107.388C541.661 107.388 541.946 107.331 542.184 107.218C542.427 107.101 542.612 106.925 542.741 106.691C542.874 106.456 542.94 106.161 542.94 105.806C542.94 105.45 542.866 105.159 542.718 104.933C542.569 104.702 542.358 104.532 542.085 104.423C541.815 104.31 541.497 104.253 541.13 104.253H540.356ZM545.73 101.722V101.271C545.73 100.946 545.801 100.651 545.941 100.386C546.082 100.12 546.283 99.9073 546.545 99.7472C546.807 99.587 547.117 99.507 547.477 99.507C547.844 99.507 548.156 99.587 548.414 99.7472C548.676 99.9073 548.877 100.12 549.018 100.386C549.158 100.651 549.229 100.946 549.229 101.271V101.722C549.229 102.038 549.158 102.329 549.018 102.595C548.881 102.86 548.682 103.073 548.42 103.234C548.162 103.394 547.852 103.474 547.488 103.474C547.125 103.474 546.811 103.394 546.545 103.234C546.283 103.073 546.082 102.86 545.941 102.595C545.801 102.329 545.73 102.038 545.73 101.722ZM546.545 101.271V101.722C546.545 101.901 546.578 102.071 546.645 102.232C546.715 102.392 546.82 102.523 546.961 102.624C547.102 102.722 547.277 102.771 547.488 102.771C547.699 102.771 547.873 102.722 548.01 102.624C548.146 102.523 548.248 102.392 548.314 102.232C548.381 102.071 548.414 101.901 548.414 101.722V101.271C548.414 101.087 548.379 100.915 548.309 100.755C548.242 100.591 548.139 100.46 547.998 100.362C547.861 100.261 547.688 100.21 547.477 100.21C547.27 100.21 547.096 100.261 546.955 100.362C546.818 100.46 546.715 100.591 546.645 100.755C546.578 100.915 546.545 101.087 546.545 101.271ZM549.885 106.526V106.069C549.885 105.749 549.955 105.456 550.096 105.191C550.236 104.925 550.438 104.712 550.699 104.552C550.961 104.392 551.271 104.312 551.631 104.312C551.998 104.312 552.311 104.392 552.568 104.552C552.83 104.712 553.031 104.925 553.172 105.191C553.312 105.456 553.383 105.749 553.383 106.069V106.526C553.383 106.847 553.312 107.14 553.172 107.405C553.035 107.671 552.836 107.884 552.574 108.044C552.316 108.204 552.006 108.284 551.643 108.284C551.279 108.284 550.967 108.204 550.705 108.044C550.443 107.884 550.24 107.671 550.096 107.405C549.955 107.14 549.885 106.847 549.885 106.526ZM550.699 106.069V106.526C550.699 106.706 550.732 106.878 550.799 107.042C550.869 107.202 550.975 107.333 551.115 107.435C551.256 107.532 551.432 107.581 551.643 107.581C551.854 107.581 552.027 107.532 552.164 107.435C552.305 107.333 552.408 107.202 552.475 107.042C552.541 106.882 552.574 106.71 552.574 106.526V106.069C552.574 105.886 552.539 105.714 552.469 105.554C552.402 105.394 552.299 105.265 552.158 105.167C552.021 105.066 551.846 105.015 551.631 105.015C551.424 105.015 551.25 105.066 551.109 105.167C550.973 105.265 550.869 105.394 550.799 105.554C550.732 105.714 550.699 105.886 550.699 106.069ZM551.9 100.843L547.734 107.511L547.125 107.124L551.291 100.456L551.9 100.843Z" fill="#455560"/>
<g clip-path="url(#clip8_91_3353)">
<g clip-path="url(#clip9_91_3353)">
<path d="M34.1862 160.055C40.9434 160.055 46.4212 154.577 46.4212 147.82C46.4212 141.063 40.9434 135.585 34.1862 135.585C27.429 135.585 21.9512 141.063 21.9512 147.82C21.9512 154.577 27.429 160.055 34.1862 160.055Z" fill="#FB6C79"/>
<mask id="mask1_91_3353" style="mask-type:luminance" maskUnits="userSpaceOnUse" x="28" y="142" width="12" height="12">
<path d="M39.7104 142.319H28.8828V153.147H39.7104V142.319Z" fill="white"/>
</mask>
<g mask="url(#mask1_91_3353)">
<path d="M37.5437 151.753C37.5437 152.046 37.5452 152.298 37.5434 152.551C37.5417 152.833 37.4257 153.018 37.189 153.109C36.9475 153.201 36.7504 153.118 36.5776 152.945C35.7815 152.147 34.9838 151.352 34.1901 150.552C34.1086 150.47 34.0281 150.434 33.9108 150.435C33.3362 150.441 32.7613 150.44 32.1864 150.438C31.5084 150.435 31.0515 149.979 31.0502 149.302C31.0485 148.248 31.0441 147.195 31.0549 146.141C31.0569 145.943 31.1083 145.741 31.1678 145.55C31.2 145.447 31.1946 145.394 31.1195 145.319C30.4435 144.649 29.7722 143.973 29.0976 143.301C28.9305 143.135 28.8328 142.949 28.9092 142.71C29.0421 142.295 29.5094 142.186 29.8294 142.502C30.3789 143.044 30.9223 143.592 31.4682 144.138C34.1374 146.806 36.8058 149.476 39.4761 152.144C39.6415 152.309 39.755 152.488 39.6935 152.729C39.5881 153.143 39.0963 153.283 38.7852 152.982C38.4163 152.627 38.0581 152.259 37.6953 151.898C37.656 151.858 37.6151 151.821 37.5437 151.753Z" fill="white"/>
<path d="M33.7878 145.012C34.0432 145.098 34.1639 144.94 34.2993 144.804C35.0537 144.046 35.8108 143.289 36.566 142.531C36.7324 142.364 36.9197 142.27 37.1588 142.35C37.4077 142.433 37.5405 142.616 37.543 142.885C37.5467 143.279 37.544 143.673 37.544 144.068C37.544 145.577 37.544 147.087 37.544 148.597C37.544 148.656 37.544 148.715 37.544 148.766C36.2985 147.521 35.0587 146.282 33.7878 145.012Z" fill="white"/>
</g>
</g>
</g>
<path d="M56.0647 146.361H54.0715L54.0842 144.99H56.0647C56.6021 144.99 57.0528 144.872 57.4167 144.635C57.7807 144.394 58.0557 144.049 58.2419 143.6C58.4281 143.147 58.5212 142.606 58.5212 141.975V141.499C58.5212 141.012 58.4683 140.583 58.3625 140.21C58.2568 139.838 58.1002 139.525 57.8928 139.271C57.6897 139.017 57.4379 138.825 57.1375 138.693C56.837 138.562 56.4921 138.497 56.1028 138.497H54.0334V137.119H56.1028C56.7206 137.119 57.2834 137.223 57.7913 137.43C58.3033 137.638 58.7455 137.936 59.1179 138.325C59.4945 138.71 59.7823 139.172 59.9812 139.709C60.1843 140.246 60.2859 140.847 60.2859 141.512V141.975C60.2859 142.635 60.1843 143.236 59.9812 143.778C59.7823 144.315 59.4945 144.777 59.1179 145.162C58.7455 145.547 58.3012 145.843 57.7849 146.05C57.2686 146.258 56.6952 146.361 56.0647 146.361ZM55.0491 137.119V146.361H53.3035V137.119H55.0491ZM65.0292 146.488C64.5087 146.488 64.0411 146.404 63.6264 146.234C63.2117 146.065 62.8583 145.83 62.5664 145.53C62.2786 145.225 62.0564 144.872 61.8999 144.47C61.7475 144.063 61.6713 143.628 61.6713 143.162V142.908C61.6713 142.379 61.7475 141.899 61.8999 141.467C62.0522 141.031 62.268 140.657 62.5473 140.344C62.8266 140.031 63.1609 139.789 63.5502 139.62C63.9396 139.451 64.3691 139.366 64.8388 139.366C65.3255 139.366 65.755 139.449 66.1274 139.614C66.4998 139.775 66.8108 140.003 67.0605 140.299C67.3102 140.596 67.4985 140.951 67.6254 141.366C67.7524 141.776 67.8159 142.231 67.8159 142.73V143.435H62.4331V142.28H66.1655V142.153C66.157 141.886 66.1062 141.643 66.0131 141.423C65.92 141.199 65.7762 141.021 65.5815 140.89C65.3868 140.754 65.135 140.687 64.8261 140.687C64.5764 140.687 64.3585 140.742 64.1723 140.852C63.9903 140.957 63.838 141.11 63.7153 141.309C63.5968 141.503 63.5079 141.736 63.4487 142.007C63.3894 142.278 63.3598 142.578 63.3598 142.908V143.162C63.3598 143.45 63.3979 143.716 63.4741 143.962C63.5545 144.207 63.6708 144.421 63.8232 144.603C63.9798 144.781 64.166 144.92 64.3818 145.022C64.6018 145.119 64.8515 145.168 65.1308 145.168C65.482 145.168 65.7994 145.1 66.083 144.965C66.3707 144.825 66.6204 144.62 66.832 144.349L67.6762 145.225C67.5323 145.437 67.3377 145.64 67.0922 145.834C66.851 146.029 66.559 146.188 66.2163 146.311C65.8735 146.429 65.4778 146.488 65.0292 146.488ZM73.0226 144.901V141.734C73.0226 141.501 72.9824 141.3 72.902 141.131C72.8216 140.962 72.6989 140.83 72.5338 140.737C72.3688 140.644 72.1593 140.598 71.9054 140.598C71.6811 140.598 71.4844 140.636 71.3151 140.712C71.15 140.788 71.0231 140.896 70.9342 141.036C70.8454 141.171 70.8009 141.328 70.8009 141.505H69.1188C69.1188 141.222 69.1865 140.953 69.3219 140.699C69.4573 140.441 69.6499 140.213 69.8996 140.014C70.1535 139.811 70.456 139.652 70.8073 139.538C71.1627 139.423 71.5605 139.366 72.0006 139.366C72.5211 139.366 72.9845 139.455 73.3908 139.633C73.8013 139.806 74.1229 140.069 74.3556 140.42C74.5926 140.771 74.7111 141.213 74.7111 141.747V144.743C74.7111 145.085 74.7322 145.38 74.7746 145.625C74.8211 145.866 74.8888 146.076 74.9777 146.253V146.361H73.2702C73.1898 146.188 73.1284 145.968 73.0861 145.701C73.0438 145.43 73.0226 145.164 73.0226 144.901ZM73.2575 142.178L73.2702 143.175H72.2101C71.9477 143.175 71.7171 143.202 71.5182 143.257C71.3193 143.308 71.1564 143.384 71.0294 143.486C70.9025 143.583 70.8073 143.702 70.7438 143.841C70.6803 143.977 70.6486 144.131 70.6486 144.305C70.6486 144.474 70.6867 144.626 70.7628 144.762C70.8432 144.897 70.9575 145.005 71.1056 145.085C71.258 145.162 71.4357 145.2 71.6388 145.2C71.935 145.2 72.1932 145.14 72.4132 145.022C72.6333 144.899 72.8047 144.751 72.9274 144.578C73.0501 144.404 73.1157 144.239 73.1242 144.083L73.6066 144.806C73.5473 144.98 73.4585 145.164 73.34 145.358C73.2215 145.553 73.0692 145.735 72.883 145.904C72.6968 146.074 72.4725 146.213 72.2101 146.323C71.9477 146.433 71.6431 146.488 71.296 146.488C70.8517 146.488 70.4539 146.399 70.1027 146.222C69.7514 146.044 69.4743 145.801 69.2711 145.492C69.068 145.183 68.9665 144.832 68.9665 144.438C68.9665 144.074 69.0342 143.752 69.1696 143.473C69.305 143.194 69.506 142.959 69.7726 142.769C70.0392 142.574 70.3693 142.428 70.7628 142.331C71.1606 142.229 71.6155 142.178 72.1276 142.178H73.2575ZM80.6415 144.901V136.611H82.3299V146.361H80.8065L80.6415 144.901ZM76.2298 143.01V142.876C76.2298 142.352 76.2891 141.876 76.4076 141.448C76.5303 141.017 76.708 140.646 76.9408 140.337C77.1735 140.028 77.4549 139.789 77.785 139.62C78.1193 139.451 78.4981 139.366 78.9212 139.366C79.3317 139.366 79.6893 139.449 79.994 139.614C80.3029 139.779 80.5653 140.014 80.7811 140.318C81.0012 140.623 81.1768 140.985 81.308 141.404C81.4391 141.819 81.5344 142.276 81.5936 142.775V143.137C81.5344 143.623 81.4391 144.07 81.308 144.476C81.1768 144.882 81.0012 145.238 80.7811 145.542C80.5653 145.843 80.3029 146.076 79.994 146.241C79.6851 146.406 79.3233 146.488 78.9085 146.488C78.4896 146.488 78.113 146.402 77.7787 146.228C77.4486 146.055 77.1672 145.811 76.9344 145.498C76.7059 145.185 76.5303 144.817 76.4076 144.394C76.2891 143.97 76.2298 143.509 76.2298 143.01ZM77.912 142.876V143.01C77.912 143.306 77.9374 143.583 77.9881 143.841C78.0389 144.099 78.1214 144.328 78.2357 144.527C78.35 144.722 78.4959 144.874 78.6737 144.984C78.8556 145.094 79.0757 145.149 79.3338 145.149C79.6639 145.149 79.9347 145.077 80.1463 144.933C80.3622 144.785 80.5293 144.584 80.6478 144.33C80.7663 144.072 80.8425 143.782 80.8763 143.46V142.464C80.8594 142.21 80.815 141.975 80.743 141.759C80.6753 141.543 80.578 141.357 80.451 141.201C80.3283 141.044 80.176 140.921 79.994 140.833C79.812 140.744 79.5962 140.699 79.3465 140.699C79.0884 140.699 78.8683 140.756 78.6864 140.871C78.5044 140.981 78.3563 141.135 78.242 141.334C78.1278 141.533 78.0431 141.764 77.9881 142.026C77.9374 142.288 77.912 142.572 77.912 142.876ZM91.4866 138.522L88.8523 146.361H87.0051L90.4583 137.119H91.6389L91.4866 138.522ZM93.6892 146.361L91.0422 138.522L90.8835 137.119H92.0706L95.5427 146.361H93.6892ZM93.5686 142.927V144.305H88.6111V142.927H93.5686ZM98.4453 139.493V146.361H96.7631V139.493H98.4453ZM96.6489 137.697C96.6489 137.447 96.7335 137.24 96.9028 137.075C97.0763 136.91 97.309 136.827 97.601 136.827C97.893 136.827 98.1236 136.91 98.2929 137.075C98.4664 137.24 98.5532 137.447 98.5532 137.697C98.5532 137.942 98.4664 138.147 98.2929 138.312C98.1236 138.478 97.893 138.56 97.601 138.56C97.309 138.56 97.0763 138.478 96.9028 138.312C96.7335 138.147 96.6489 137.942 96.6489 137.697ZM102.021 140.896V146.361H100.345V139.493H101.932L102.021 140.896ZM104.109 139.449L104.084 141.01C103.991 140.993 103.885 140.981 103.766 140.972C103.652 140.964 103.544 140.959 103.443 140.959C103.184 140.959 102.958 140.995 102.763 141.067C102.569 141.135 102.406 141.235 102.275 141.366C102.148 141.497 102.05 141.658 101.983 141.848C101.915 142.034 101.877 142.246 101.868 142.483L101.506 142.438C101.506 142.003 101.551 141.598 101.64 141.226C101.729 140.854 101.858 140.528 102.027 140.249C102.196 139.969 102.408 139.753 102.662 139.601C102.92 139.444 103.216 139.366 103.55 139.366C103.644 139.366 103.743 139.375 103.849 139.392C103.959 139.404 104.046 139.423 104.109 139.449Z" fill="black"/>
<g clip-path="url(#clip10_91_3353)">
<rect x="52.4211" y="155.866" width="453.03" height="7" rx="3.5" fill="#455560" fill-opacity="0.06"/>
<g clip-path="url(#clip11_91_3353)">
<rect x="52.4211" y="155.866" width="183.02" height="7" rx="3.5" fill="#FB6C79"/>
<rect x="52.4211" y="155.866" width="453" height="7" fill="#FB6C79"/>
</g>
</g>
<path d="M519.926 157.995V158.886H513.762V158.247L517.582 152.335H518.467L517.518 154.046L514.992 157.995H519.926ZM518.736 152.335V160.866H517.652V152.335H518.736ZM526.566 155.921V157.222C526.566 157.921 526.503 158.511 526.378 158.991C526.253 159.472 526.073 159.859 525.839 160.151C525.605 160.444 525.321 160.657 524.989 160.79C524.661 160.919 524.29 160.984 523.876 160.984C523.548 160.984 523.245 160.943 522.968 160.86C522.691 160.778 522.441 160.648 522.218 160.468C521.999 160.284 521.812 160.046 521.655 159.753C521.499 159.46 521.38 159.105 521.298 158.687C521.216 158.269 521.175 157.78 521.175 157.222V155.921C521.175 155.222 521.238 154.636 521.363 154.163C521.491 153.691 521.673 153.312 521.907 153.026C522.142 152.737 522.423 152.53 522.751 152.405C523.083 152.28 523.454 152.218 523.864 152.218C524.196 152.218 524.501 152.259 524.779 152.341C525.06 152.419 525.31 152.546 525.529 152.722C525.747 152.894 525.933 153.124 526.085 153.413C526.241 153.698 526.361 154.048 526.443 154.462C526.525 154.876 526.566 155.362 526.566 155.921ZM525.476 157.398V155.739C525.476 155.357 525.452 155.021 525.405 154.732C525.363 154.439 525.298 154.189 525.212 153.982C525.126 153.775 525.017 153.607 524.884 153.478C524.755 153.349 524.605 153.255 524.433 153.196C524.265 153.134 524.075 153.103 523.864 153.103C523.607 153.103 523.378 153.151 523.179 153.249C522.98 153.343 522.812 153.493 522.675 153.7C522.542 153.907 522.441 154.179 522.37 154.515C522.3 154.851 522.265 155.259 522.265 155.739V157.398C522.265 157.78 522.286 158.118 522.329 158.411C522.376 158.704 522.445 158.958 522.534 159.173C522.624 159.384 522.734 159.558 522.863 159.694C522.991 159.831 523.14 159.933 523.308 159.999C523.48 160.062 523.669 160.093 523.876 160.093C524.142 160.093 524.374 160.042 524.573 159.941C524.773 159.839 524.939 159.681 525.071 159.466C525.208 159.247 525.31 158.968 525.376 158.628C525.443 158.284 525.476 157.874 525.476 157.398ZM528.395 160.292C528.395 160.109 528.452 159.954 528.565 159.829C528.682 159.7 528.85 159.636 529.069 159.636C529.288 159.636 529.454 159.7 529.567 159.829C529.684 159.954 529.743 160.109 529.743 160.292C529.743 160.472 529.684 160.624 529.567 160.749C529.454 160.874 529.288 160.937 529.069 160.937C528.85 160.937 528.682 160.874 528.565 160.749C528.452 160.624 528.395 160.472 528.395 160.292ZM537.49 157.995V158.886H531.326V158.247L535.146 152.335H536.031L535.082 154.046L532.556 157.995H537.49ZM536.3 152.335V160.866H535.216V152.335H536.3ZM544.13 155.921V157.222C544.13 157.921 544.067 158.511 543.942 158.991C543.817 159.472 543.638 159.859 543.403 160.151C543.169 160.444 542.886 160.657 542.554 160.79C542.225 160.919 541.854 160.984 541.44 160.984C541.112 160.984 540.809 160.943 540.532 160.86C540.255 160.778 540.005 160.648 539.782 160.468C539.563 160.284 539.376 160.046 539.22 159.753C539.063 159.46 538.944 159.105 538.862 158.687C538.78 158.269 538.739 157.78 538.739 157.222V155.921C538.739 155.222 538.802 154.636 538.927 154.163C539.055 153.691 539.237 153.312 539.471 153.026C539.706 152.737 539.987 152.53 540.315 152.405C540.647 152.28 541.018 152.218 541.429 152.218C541.761 152.218 542.065 152.259 542.343 152.341C542.624 152.419 542.874 152.546 543.093 152.722C543.311 152.894 543.497 153.124 543.649 153.413C543.805 153.698 543.925 154.048 544.007 154.462C544.089 154.876 544.13 155.362 544.13 155.921ZM543.04 157.398V155.739C543.04 155.357 543.016 155.021 542.97 154.732C542.927 154.439 542.862 154.189 542.776 153.982C542.69 153.775 542.581 153.607 542.448 153.478C542.319 153.349 542.169 153.255 541.997 153.196C541.829 153.134 541.639 153.103 541.429 153.103C541.171 153.103 540.942 153.151 540.743 153.249C540.544 153.343 540.376 153.493 540.239 153.7C540.106 153.907 540.005 154.179 539.934 154.515C539.864 154.851 539.829 155.259 539.829 155.739V157.398C539.829 157.78 539.85 158.118 539.893 158.411C539.94 158.704 540.009 158.958 540.098 159.173C540.188 159.384 540.298 159.558 540.427 159.694C540.555 159.831 540.704 159.933 540.872 159.999C541.044 160.062 541.233 160.093 541.44 160.093C541.706 160.093 541.938 160.042 542.138 159.941C542.337 159.839 542.503 159.681 542.636 159.466C542.772 159.247 542.874 158.968 542.94 158.628C543.007 158.284 543.04 157.874 543.04 157.398ZM545.73 154.427V153.976C545.73 153.651 545.801 153.357 545.941 153.091C546.082 152.825 546.283 152.612 546.545 152.452C546.807 152.292 547.117 152.212 547.477 152.212C547.844 152.212 548.156 152.292 548.414 152.452C548.676 152.612 548.877 152.825 549.018 153.091C549.158 153.357 549.229 153.651 549.229 153.976V154.427C549.229 154.743 549.158 155.034 549.018 155.3C548.881 155.566 548.682 155.778 548.42 155.939C548.162 156.099 547.852 156.179 547.488 156.179C547.125 156.179 546.811 156.099 546.545 155.939C546.283 155.778 546.082 155.566 545.941 155.3C545.801 155.034 545.73 154.743 545.73 154.427ZM546.545 153.976V154.427C546.545 154.607 546.578 154.776 546.645 154.937C546.715 155.097 546.82 155.228 546.961 155.329C547.102 155.427 547.277 155.476 547.488 155.476C547.699 155.476 547.873 155.427 548.01 155.329C548.146 155.228 548.248 155.097 548.314 154.937C548.381 154.776 548.414 154.607 548.414 154.427V153.976C548.414 153.792 548.379 153.62 548.309 153.46C548.242 153.296 548.139 153.165 547.998 153.068C547.861 152.966 547.688 152.915 547.477 152.915C547.27 152.915 547.096 152.966 546.955 153.068C546.818 153.165 546.715 153.296 546.645 153.46C546.578 153.62 546.545 153.792 546.545 153.976ZM549.885 159.232V158.775C549.885 158.454 549.955 158.161 550.096 157.896C550.236 157.63 550.438 157.417 550.699 157.257C550.961 157.097 551.271 157.017 551.631 157.017C551.998 157.017 552.311 157.097 552.568 157.257C552.83 157.417 553.031 157.63 553.172 157.896C553.312 158.161 553.383 158.454 553.383 158.775V159.232C553.383 159.552 553.312 159.845 553.172 160.11C553.035 160.376 552.836 160.589 552.574 160.749C552.316 160.909 552.006 160.989 551.643 160.989C551.279 160.989 550.967 160.909 550.705 160.749C550.443 160.589 550.24 160.376 550.096 160.11C549.955 159.845 549.885 159.552 549.885 159.232ZM550.699 158.775V159.232C550.699 159.411 550.732 159.583 550.799 159.747C550.869 159.907 550.975 160.038 551.115 160.14C551.256 160.237 551.432 160.286 551.643 160.286C551.854 160.286 552.027 160.237 552.164 160.14C552.305 160.038 552.408 159.907 552.475 159.747C552.541 159.587 552.574 159.415 552.574 159.232V158.775C552.574 158.591 552.539 158.419 552.469 158.259C552.402 158.099 552.299 157.97 552.158 157.872C552.021 157.771 551.846 157.72 551.631 157.72C551.424 157.72 551.25 157.771 551.109 157.872C550.973 157.97 550.869 158.099 550.799 158.259C550.732 158.419 550.699 158.591 550.699 158.775ZM551.9 153.548L547.734 160.216L547.125 159.829L551.291 153.161L551.9 153.548Z" fill="#455560"/>
<defs>
<clipPath id="clip0_91_3353">
<rect width="24.47" height="26" fill="white" transform="translate(21.9512 29.6663)"/>
</clipPath>
<clipPath id="clip1_91_3353">
<rect width="24.47" height="24.47" fill="white" transform="translate(21.9512 30.4313)"/>
</clipPath>
<clipPath id="clip2_91_3353">
<rect x="52.4214" y="50.4563" width="453.03" height="7" rx="3.5" fill="white"/>
</clipPath>
<clipPath id="clip3_91_3353">
<rect x="52.4214" y="50.4563" width="143.47" height="7" rx="3.5" fill="white"/>
</clipPath>
<clipPath id="clip4_91_3353">
<rect width="24.47" height="26" fill="white" transform="translate(21.9512 81.6562)"/>
</clipPath>
<clipPath id="clip5_91_3353">
<rect width="24.47" height="24.47" fill="white" transform="translate(21.9512 82.4213)"/>
</clipPath>
<clipPath id="clip6_91_3353">
<rect x="52.4211" y="103.161" width="453.03" height="7" rx="3.5" fill="white"/>
</clipPath>
<clipPath id="clip7_91_3353">
<rect x="52.4211" y="103.161" width="126.53" height="7" rx="3.5" fill="white"/>
</clipPath>
<clipPath id="clip8_91_3353">
<rect width="24.47" height="26" fill="white" transform="translate(21.9512 134.361)"/>
</clipPath>
<clipPath id="clip9_91_3353">
<rect width="24.47" height="25.5823" fill="white" transform="translate(21.9512 134.57)"/>
</clipPath>
<clipPath id="clip10_91_3353">
<rect x="52.4211" y="155.866" width="453.03" height="7" rx="3.5" fill="white"/>
</clipPath>
<clipPath id="clip11_91_3353">
<rect x="52.4211" y="155.866" width="183.02" height="7" rx="3.5" fill="white"/>
</clipPath>
</defs>
</svg>