<?xml version="1.0" encoding="UTF-8"?>
<svg id="maluvalnik_x40_gmail.com_-_custom_design_and_cooperation" xmlns="http://www.w3.org/2000/svg" version="1.1" viewBox="0 0 3900 3900">
  <!-- Generator: Adobe Illustrator 30.2.1, SVG Export Plug-In . SVG Version: 2.1.1 Build 1)  -->
  <defs>
    <style>
      .st0 {
        fill: #fff;
      }
    </style>
  </defs>
  <rect x="1.5" y="-32.5" width="3897" height="3965"/>
  <g>
    <path class="st0" d="M1808.09,1178.29h-421.33v967.09c0,141.9-67.68,213.94-172.46,213.94-96.05,0-165.91-52.39-240.13-141.9l-272.89,257.61c109.15,146.26,270.7,257.6,537.03,257.6,44.86,0,87.67-3.66,128.28-10.72l24.38-57.86,417.12-990.13v-495.62Z"/>
    <path class="st0" d="M2548.17,1167.37h-408.24l-648.36,1539.05h443.17l109.14-275.06h591.61l109.15,275.06h454.08l-650.54-1539.05ZM2168.32,2101.72l172.46-432.25,170.28,432.25h-342.74Z"/>
  </g>
</svg>